solid AssimpScene
 facet normal 0 0 0
  outer loop
  vertex 0.0104486 0.0025833002 0.00014680099
  vertex 0.01036 0.026403399 0.000154629
  vertex 0.0104005 0.025253402 0.0190366
  endloop
 endfacet

 facet normal 0 0 0
  outer loop
  vertex 0.0104486 0.0025833002 0.00014680099
  vertex 0.0104005 0.025253402 0.0190366
  vertex 0.0086160796 0.0139887 0.051327895
  endloop
 endfacet

 facet normal 0 0 0
  outer loop
  vertex 0.0104486 0.0025833002 0.00014680099
  vertex 0.0086160796 0.0139887 0.051327895
  vertex 0.0086927703 -0.00013264301 0.050166201
  endloop
 endfacet

 facet normal 0 0 0
  outer loop
  vertex 0.0104486 0.0025833002 0.00014680099
  vertex -0.0103872 0.0025341802 0.000131696
  vertex -0.0104013 0.026309403 0.00016650998
  endloop
 endfacet

 facet normal 0 0 0
  outer loop
  vertex 0.0104486 0.0025833002 0.00014680099
  vertex -0.0104013 0.026309403 0.00016650998
  vertex 0.01036 0.026403399 0.000154629
  endloop
 endfacet

 facet normal 0 0 0
  outer loop
  vertex -0.0103889 0.025220301 0.019187598
  vertex -0.0052779205 0.014293101 0.053849
  vertex 0.0058398298 0.014274301 0.053803496
  endloop
 endfacet

 facet normal 0 0 0
  outer loop
  vertex -0.0103889 0.025220301 0.019187598
  vertex 0.0058398298 0.014274301 0.053803496
  vertex 0.0104005 0.025253402 0.0190366
  endloop
 endfacet

 facet normal 0 0 0
  outer loop
  vertex -0.0103889 0.025220301 0.019187598
  vertex 0.0104005 0.025253402 0.0190366
  vertex 0.01036 0.026403399 0.000154629
  endloop
 endfacet

 facet normal 0 0 0
  outer loop
  vertex -0.0103889 0.025220301 0.019187598
  vertex 0.01036 0.026403399 0.000154629
  vertex -0.0104013 0.026309403 0.00016650998
  endloop
 endfacet

 facet normal 0 0 0
  outer loop
  vertex -0.0086229397 -5.6801902e-05 0.0509528
  vertex -0.00884117 0.013917601 0.050589398
  vertex -0.0103889 0.025220301 0.019187598
  endloop
 endfacet

 facet normal 0 0 0
  outer loop
  vertex -0.0086229397 -5.6801902e-05 0.0509528
  vertex -0.0103889 0.025220301 0.019187598
  vertex -0.0104013 0.026309403 0.00016650998
  endloop
 endfacet

 facet normal 0 0 0
  outer loop
  vertex -0.0086229397 -5.6801902e-05 0.0509528
  vertex -0.0104013 0.026309403 0.00016650998
  vertex -0.0103872 0.0025341802 0.000131696
  endloop
 endfacet

 facet normal 0 0 0
  outer loop
  vertex 0.0061380202 -2.0602602e-05 0.053577598
  vertex 0.0086927703 -0.00013264301 0.050166201
  vertex 0.0086160796 0.0139887 0.051327895
  endloop
 endfacet

 facet normal 0 0 0
  outer loop
  vertex -0.00884117 0.013917601 0.050589398
  vertex -0.0052779205 0.014293101 0.053849
  vertex -0.0103889 0.025220301 0.019187598
  endloop
 endfacet

 facet normal 0 0 0
  outer loop
  vertex -0.00884117 0.013917601 0.050589398
  vertex -0.0086229397 -5.6801902e-05 0.0509528
  vertex -0.0054814206 -9.1120804e-05 0.053724695
  endloop
 endfacet

 facet normal 0 0 0
  outer loop
  vertex -0.00884117 0.013917601 0.050589398
  vertex -0.0054814206 -9.1120804e-05 0.053724695
  vertex -0.0052779205 0.014293101 0.053849
  endloop
 endfacet

 facet normal 0 0 0
  outer loop
  vertex 0.0058398298 0.014274301 0.053803496
  vertex -0.0052779205 0.014293101 0.053849
  vertex -0.0054814206 -9.1120804e-05 0.053724695
  endloop
 endfacet

 facet normal 0 0 0
  outer loop
  vertex 0.0058398298 0.014274301 0.053803496
  vertex -0.0054814206 -9.1120804e-05 0.053724695
  vertex 0.0061380202 -2.0602602e-05 0.053577598
  endloop
 endfacet

 facet normal 0 0 0
  outer loop
  vertex 0.0058398298 0.014274301 0.053803496
  vertex 0.0061380202 -2.0602602e-05 0.053577598
  vertex 0.0086160796 0.0139887 0.051327895
  endloop
 endfacet

 facet normal 0 0 0
  outer loop
  vertex 0.0058398298 0.014274301 0.053803496
  vertex 0.0086160796 0.0139887 0.051327895
  vertex 0.0104005 0.025253402 0.0190366
  endloop
 endfacet

 facet normal 0 0 0
  outer loop
  vertex 0.0086927703 -0.00013264301 0.050166201
  vertex 0.0061380202 -2.0602602e-05 0.053577598
  vertex -0.0054814206 -9.1120804e-05 0.053724695
  endloop
 endfacet

 facet normal 0 0 0
  outer loop
  vertex 0.0086927703 -0.00013264301 0.050166201
  vertex -0.0054814206 -9.1120804e-05 0.053724695
  vertex -0.0086229397 -5.6801902e-05 0.0509528
  endloop
 endfacet

 facet normal 0 0 0
  outer loop
  vertex 0.0086927703 -0.00013264301 0.050166201
  vertex -0.0086229397 -5.6801902e-05 0.0509528
  vertex -0.0087304004 -2.3525201e-05 0.036164802
  endloop
 endfacet

 facet normal 0 0 0
  outer loop
  vertex -0.0087304004 -2.3525201e-05 0.036164802
  vertex -0.0086229397 -5.6801902e-05 0.0509528
  vertex -0.0103872 0.0025341802 0.000131696
  endloop
 endfacet

 facet normal 0 0 0
  outer loop
  vertex -0.0087304004 -2.3525201e-05 0.036164802
  vertex -0.0103872 0.0025341802 0.000131696
  vertex 0.0104486 0.0025833002 0.00014680099
  endloop
 endfacet

 facet normal 0 0 0
  outer loop
  vertex -0.0087304004 -2.3525201e-05 0.036164802
  vertex 0.0104486 0.0025833002 0.00014680099
  vertex 0.0086927703 -0.00013264301 0.050166201
  endloop
 endfacet

endsolidAssimpScene
