solid AssimpScene
 facet normal 0 0 0
  outer loop
  vertex -0.030773399 0.045635905 -0.192
  vertex -0.021548603 0.050744001 -0.192
  vertex -0.012078701 0.053723 -0.192
  endloop
 endfacet

 facet normal 0 0 0
  outer loop
  vertex -0.030773399 0.045635905 -0.192
  vertex -0.012078701 0.053723 -0.192
  vertex -0.00035502401 0.055192303 -0.192
  endloop
 endfacet

 facet normal 0 0 0
  outer loop
  vertex -0.030773399 0.045635905 -0.192
  vertex -0.00035502401 0.055192303 -0.192
  vertex 0.0122025 0.0537025 -0.192
  endloop
 endfacet

 facet normal 0 0 0
  outer loop
  vertex -0.030773399 0.045635905 -0.192
  vertex 0.0122025 0.0537025 -0.192
  vertex 0.0229131 0.050150905 -0.192
  endloop
 endfacet

 facet normal 0 0 0
  outer loop
  vertex -0.030773399 0.045635905 -0.192
  vertex 0.0229131 0.050150905 -0.192
  vertex 0.034291703 0.0431697 -0.192
  endloop
 endfacet

 facet normal 0 0 0
  outer loop
  vertex -0.030773399 0.045635905 -0.192
  vertex 0.034291703 0.0431697 -0.192
  vertex 0.044789102 0.032345101 -0.192
  endloop
 endfacet

 facet normal 0 0 0
  outer loop
  vertex -0.030773399 0.045635905 -0.192
  vertex 0.044789102 0.032345101 -0.192
  vertex 0.051822804 0.018800402 -0.192
  endloop
 endfacet

 facet normal 0 0 0
  outer loop
  vertex -0.030773399 0.045635905 -0.192
  vertex 0.051822804 0.018800402 -0.192
  vertex 0.054382402 0.0089247311 -0.19199699
  endloop
 endfacet

 facet normal 0 0 0
  outer loop
  vertex -0.030773399 0.045635905 -0.192
  vertex 0.054382402 0.0089247311 -0.19199699
  vertex 0.0551612 -0.0036281603 -0.19200398
  endloop
 endfacet

 facet normal 0 0 0
  outer loop
  vertex -0.030773399 0.045635905 -0.192
  vertex 0.0551612 -0.0036281603 -0.19200398
  vertex -0.053667504 -0.013206601 -0.19200298
  endloop
 endfacet

 facet normal 0 0 0
  outer loop
  vertex -0.030773399 0.045635905 -0.192
  vertex -0.053667504 -0.013206601 -0.19200298
  vertex -0.054942004 0.00402568 -0.192
  endloop
 endfacet

 facet normal 0 0 0
  outer loop
  vertex -0.030773399 0.045635905 -0.192
  vertex -0.054942004 0.00402568 -0.192
  vertex -0.052334499 0.017523102 -0.192
  endloop
 endfacet

 facet normal 0 0 0
  outer loop
  vertex -0.030773399 0.045635905 -0.192
  vertex -0.052334499 0.017523102 -0.192
  vertex -0.045885205 0.030550903 -0.192
  endloop
 endfacet

 facet normal 0 0 0
  outer loop
  vertex -0.030773399 0.045635905 -0.192
  vertex -0.045885205 0.030550903 -0.192
  vertex -0.037874606 0.040031102 -0.192
  endloop
 endfacet

 facet normal 0 0 0
  outer loop
  vertex -0.025731102 -0.000521429 0.049161598
  vertex -0.0057301703 -0.00048880005 0.054942697
  vertex 0.00019801201 0.054921001 -0.12517798
  endloop
 endfacet

 facet normal 0 0 0
  outer loop
  vertex 0.037112702 -0.040730599 -0.192
  vertex 0.034727301 -0.116294 -0.014647999
  vertex 0.025412003 -0.120945 -0.017631898
  endloop
 endfacet

 facet normal 0 0 0
  outer loop
  vertex 0.037112702 -0.040730599 -0.192
  vertex 0.025412003 -0.120945 -0.017631898
  vertex 0.023176301 -0.050139803 -0.192
  endloop
 endfacet

 facet normal 0 0 0
  outer loop
  vertex -0.054768402 -0.000602188 0.0075167697
  vertex -0.054942004 0.00402568 -0.192
  vertex -0.054987002 -0.060275804 0.0029446199
  endloop
 endfacet

 facet normal 0 0 0
  outer loop
  vertex -0.053667504 -0.013206601 -0.19200298
  vertex -0.042941801 -0.035020102 -0.19199899
  vertex -0.045586601 -0.10775801 -0.0072536301
  endloop
 endfacet

 facet normal 0 0 0
  outer loop
  vertex -0.053667504 -0.013206601 -0.19200298
  vertex -0.054987002 -0.060275804 0.0029446199
  vertex -0.054942004 0.00402568 -0.192
  endloop
 endfacet

 facet normal 0 0 0
  outer loop
  vertex 0.012127501 -0.00050359109 0.053903401
  vertex 0.00019801201 0.054921001 -0.12517798
  vertex -0.0057301703 -0.00048880005 0.054942697
  endloop
 endfacet

 facet normal 0 0 0
  outer loop
  vertex -0.0057301703 -0.00048880005 0.054942697
  vertex -0.0010646899 -0.065471306 0.054973096
  vertex 0.0099262213 -0.0648368 0.054229699
  endloop
 endfacet

 facet normal 0 0 0
  outer loop
  vertex -0.0057301703 -0.00048880005 0.054942697
  vertex 0.0099262213 -0.0648368 0.054229699
  vertex 0.012127501 -0.00050359109 0.053903401
  endloop
 endfacet

 facet normal 0 0 0
  outer loop
  vertex -0.026107801 -0.048684701 -0.192
  vertex -0.033893399 -0.117564 -0.012557999
  vertex -0.042379305 -0.10967301 -0.0139655
  endloop
 endfacet

 facet normal 0 0 0
  outer loop
  vertex -0.026107801 -0.048684701 -0.192
  vertex -0.042379305 -0.10967301 -0.0139655
  vertex -0.042941801 -0.035020102 -0.19199899
  endloop
 endfacet

 facet normal 0 0 0
  outer loop
  vertex 0.051822804 0.018800402 -0.192
  vertex 0.044789102 0.032345101 -0.192
  vertex 0.045560405 0.030944802 -0.123597
  endloop
 endfacet

 facet normal 0 0 0
  outer loop
  vertex 0.051822804 0.018800402 -0.192
  vertex 0.045560405 0.030944802 -0.123597
  vertex 0.051739305 0.019267401 -0.119399
  endloop
 endfacet

 facet normal 0 0 0
  outer loop
  vertex -0.042251699 -0.00047990202 0.035590801
  vertex -0.031828899 -0.064068303 0.045033198
  vertex -0.025731102 -0.000521429 0.049161598
  endloop
 endfacet

 facet normal 0 0 0
  outer loop
  vertex 0.054883003 -0.00057262008 0.0059492802
  vertex 0.0549528 -0.0606682 0.0035636697
  vertex 0.0551612 -0.0036281603 -0.19200398
  endloop
 endfacet

 facet normal 0 0 0
  outer loop
  vertex 0.054883003 -0.00057262008 0.0059492802
  vertex 0.037477802 0.040466499 -0.12570199
  vertex 0.0518771 -0.00050205598 0.018582199
  endloop
 endfacet

 facet normal 0 0 0
  outer loop
  vertex -0.022482501 -0.12334101 -0.014598299
  vertex -0.033893399 -0.117564 -0.012557999
  vertex -0.026107801 -0.048684701 -0.192
  endloop
 endfacet

 facet normal 0 0 0
  outer loop
  vertex -0.026107801 -0.048684701 -0.192
  vertex -0.0079996102 -0.054700401 -0.192
  vertex -0.0084854299 -0.125357 -0.020503798
  endloop
 endfacet

 facet normal 0 0 0
  outer loop
  vertex -0.026107801 -0.048684701 -0.192
  vertex -0.0084854299 -0.125357 -0.020503798
  vertex -0.022482501 -0.12334101 -0.014598299
  endloop
 endfacet

 facet normal 0 0 0
  outer loop
  vertex 0.0048776004 -0.129373 0.00094687793
  vertex -0.011272101 -0.12851299 0.00025002699
  vertex 5.1980704e-05 -0.12783502 -0.014334499
  endloop
 endfacet

 facet normal 0 0 0
  outer loop
  vertex 0.046015505 -0.00051663199 0.030427499
  vertex 0.017598202 0.0521884 -0.12665498
  vertex 0.008944571 0.054261599 -0.12622498
  endloop
 endfacet

 facet normal 0 0 0
  outer loop
  vertex 0.046015505 -0.00051663199 0.030427499
  vertex 0.008944571 0.054261599 -0.12622498
  vertex 0.032228705 -0.00046813101 0.045079395
  endloop
 endfacet

 facet normal 0 0 0
  outer loop
  vertex -0.020954899 -0.064622402 0.050930701
  vertex -0.0086587211 -0.064250708 0.054434896
  vertex -0.0057301703 -0.00048880005 0.054942697
  endloop
 endfacet

 facet normal 0 0 0
  outer loop
  vertex -0.020954899 -0.064622402 0.050930701
  vertex -0.0057301703 -0.00048880005 0.054942697
  vertex -0.025731102 -0.000521429 0.049161598
  endloop
 endfacet

 facet normal 0 0 0
  outer loop
  vertex -0.020954899 -0.064622402 0.050930701
  vertex -0.025731102 -0.000521429 0.049161598
  vertex -0.031828899 -0.064068303 0.045033198
  endloop
 endfacet

 facet normal 0 0 0
  outer loop
  vertex 0.023176301 -0.050139803 -0.192
  vertex 0.017859099 -0.12439701 -0.016615501
  vertex 0.0077047604 -0.12579501 -0.019476898
  endloop
 endfacet

 facet normal 0 0 0
  outer loop
  vertex 0.023176301 -0.050139803 -0.192
  vertex 0.0077047604 -0.12579501 -0.019476898
  vertex 0.0077343504 -0.054572701 -0.192
  endloop
 endfacet

 facet normal 0 0 0
  outer loop
  vertex -0.0079996102 -0.054700401 -0.192
  vertex -0.026107801 -0.048684701 -0.192
  vertex -0.042941801 -0.035020102 -0.19199899
  endloop
 endfacet

 facet normal 0 0 0
  outer loop
  vertex -0.0079996102 -0.054700401 -0.192
  vertex -0.042941801 -0.035020102 -0.19199899
  vertex -0.053667504 -0.013206601 -0.19200298
  endloop
 endfacet

 facet normal 0 0 0
  outer loop
  vertex -0.0079996102 -0.054700401 -0.192
  vertex -0.053667504 -0.013206601 -0.19200298
  vertex 0.0551612 -0.0036281603 -0.19200398
  endloop
 endfacet

 facet normal 0 0 0
  outer loop
  vertex -0.0079996102 -0.054700401 -0.192
  vertex 0.0551612 -0.0036281603 -0.19200398
  vertex 0.049622104 -0.024777399 -0.19199899
  endloop
 endfacet

 facet normal 0 0 0
  outer loop
  vertex -0.0079996102 -0.054700401 -0.192
  vertex 0.049622104 -0.024777399 -0.19199899
  vertex 0.037112702 -0.040730599 -0.192
  endloop
 endfacet

 facet normal 0 0 0
  outer loop
  vertex -0.0079996102 -0.054700401 -0.192
  vertex 0.037112702 -0.040730599 -0.192
  vertex 0.023176301 -0.050139803 -0.192
  endloop
 endfacet

 facet normal 0 0 0
  outer loop
  vertex -0.0079996102 -0.054700401 -0.192
  vertex 0.023176301 -0.050139803 -0.192
  vertex 0.0077343504 -0.054572701 -0.192
  endloop
 endfacet

 facet normal 0 0 0
  outer loop
  vertex 0.0048776004 -0.129373 0.00094687793
  vertex 0.0206773 -0.12523 0.0083392002
  vertex 0.0173846 -0.124411 0.017312398
  endloop
 endfacet

 facet normal 0 0 0
  outer loop
  vertex 0.0048776004 -0.129373 0.00094687793
  vertex 0.0173846 -0.124411 0.017312398
  vertex 0.0042039305 -0.127918 0.013659799
  endloop
 endfacet

 facet normal 0 0 0
  outer loop
  vertex -0.043081801 -0.063859701 0.034509402
  vertex -0.031828899 -0.064068303 0.045033198
  vertex -0.042251699 -0.00047990202 0.035590801
  endloop
 endfacet

 facet normal 0 0 0
  outer loop
  vertex -0.042251699 -0.00047990202 0.035590801
  vertex -0.050318103 -0.000497323 0.022466099
  vertex -0.049316805 -0.064360097 0.024332099
  endloop
 endfacet

 facet normal 0 0 0
  outer loop
  vertex -0.042251699 -0.00047990202 0.035590801
  vertex -0.049316805 -0.064360097 0.024332099
  vertex -0.043081801 -0.063859701 0.034509402
  endloop
 endfacet

 facet normal 0 0 0
  outer loop
  vertex -0.043081801 -0.063859701 0.034509402
  vertex -0.049316805 -0.064360097 0.024332099
  vertex -0.041507103 -0.107025 0.021370601
  endloop
 endfacet

 facet normal 0 0 0
  outer loop
  vertex 0.034291703 0.0431697 -0.192
  vertex 0.037477802 0.040466499 -0.12570199
  vertex 0.044789102 0.032345101 -0.192
  endloop
 endfacet

 facet normal 0 0 0
  outer loop
  vertex 0.0549528 -0.0606682 0.0035636697
  vertex 0.054883003 -0.00057262008 0.0059492802
  vertex 0.0518771 -0.00050205598 0.018582199
  endloop
 endfacet

 facet normal 0 0 0
  outer loop
  vertex 0.0549528 -0.0606682 0.0035636697
  vertex 0.0518771 -0.00050205598 0.018582199
  vertex 0.051374901 -0.063873 0.0195316
  endloop
 endfacet

 facet normal 0 0 0
  outer loop
  vertex 0.0518771 -0.00050205598 0.018582199
  vertex 0.046015505 -0.00051663199 0.030427499
  vertex 0.046527602 -0.064680509 0.029294699
  endloop
 endfacet

 facet normal 0 0 0
  outer loop
  vertex 0.0518771 -0.00050205598 0.018582199
  vertex 0.046527602 -0.064680509 0.029294699
  vertex 0.051374901 -0.063873 0.0195316
  endloop
 endfacet

 facet normal 0 0 0
  outer loop
  vertex 0.051374901 -0.063873 0.0195316
  vertex 0.046527602 -0.064680509 0.029294699
  vertex 0.039318599 -0.107371 0.024662901
  endloop
 endfacet

 facet normal 0 0 0
  outer loop
  vertex 0.051374901 -0.063873 0.0195316
  vertex 0.039318599 -0.107371 0.024662901
  vertex 0.042932 -0.107418 0.017665399
  endloop
 endfacet

 facet normal 0 0 0
  outer loop
  vertex 0.050649401 -0.087687306 0.0036587599
  vertex 0.046444301 -0.107388 0.00010382399
  vertex 0.0551612 -0.0036281603 -0.19200398
  endloop
 endfacet

 facet normal 0 0 0
  outer loop
  vertex 0.050649401 -0.087687306 0.0036587599
  vertex 0.0551612 -0.0036281603 -0.19200398
  vertex 0.0549528 -0.0606682 0.0035636697
  endloop
 endfacet

 facet normal 0 0 0
  outer loop
  vertex 0.050649401 -0.087687306 0.0036587599
  vertex 0.0549528 -0.0606682 0.0035636697
  vertex 0.051374901 -0.063873 0.0195316
  endloop
 endfacet

 facet normal 0 0 0
  outer loop
  vertex -0.052334499 0.017523102 -0.192
  vertex -0.050133504 0.022743702 -0.12207399
  vertex -0.045797903 0.0305843 -0.12347999
  endloop
 endfacet

 facet normal 0 0 0
  outer loop
  vertex -0.052334499 0.017523102 -0.192
  vertex -0.045797903 0.0305843 -0.12347999
  vertex -0.045885205 0.030550903 -0.192
  endloop
 endfacet

 facet normal 0 0 0
  outer loop
  vertex -0.045885205 0.030550903 -0.192
  vertex -0.045797903 0.0305843 -0.12347999
  vertex -0.039695002 0.0381363 -0.12517798
  endloop
 endfacet

 facet normal 0 0 0
  outer loop
  vertex -0.045885205 0.030550903 -0.192
  vertex -0.039695002 0.0381363 -0.12517798
  vertex -0.037874606 0.040031102 -0.192
  endloop
 endfacet

 facet normal 0 0 0
  outer loop
  vertex -0.033994704 -0.107523 0.031676795
  vertex -0.043081801 -0.063859701 0.034509402
  vertex -0.041507103 -0.107025 0.021370601
  endloop
 endfacet

 facet normal 0 0 0
  outer loop
  vertex -0.015560301 0.052798599 -0.126596
  vertex -0.021548603 0.050744001 -0.192
  vertex -0.025424102 0.048831701 -0.12665799
  endloop
 endfacet

 facet normal 0 0 0
  outer loop
  vertex -0.015560301 0.052798599 -0.126596
  vertex -0.025424102 0.048831701 -0.12665799
  vertex -0.050318103 -0.000497323 0.022466099
  endloop
 endfacet

 facet normal 0 0 0
  outer loop
  vertex -0.015560301 0.052798599 -0.126596
  vertex -0.050318103 -0.000497323 0.022466099
  vertex -0.042251699 -0.00047990202 0.035590801
  endloop
 endfacet

 facet normal 0 0 0
  outer loop
  vertex -0.015560301 0.052798599 -0.126596
  vertex -0.042251699 -0.00047990202 0.035590801
  vertex -0.025731102 -0.000521429 0.049161598
  endloop
 endfacet

 facet normal 0 0 0
  outer loop
  vertex -0.015560301 0.052798599 -0.126596
  vertex -0.025731102 -0.000521429 0.049161598
  vertex 0.00019801201 0.054921001 -0.12517798
  endloop
 endfacet

 facet normal 0 0 0
  outer loop
  vertex 0.040513903 -0.113037 0.008921029
  vertex 0.042932 -0.107418 0.017665399
  vertex 0.034471903 -0.114389 0.020296199
  endloop
 endfacet

 facet normal 0 0 0
  outer loop
  vertex 0.017870702 -0.12668201 -0.0047686393
  vertex 0.0206773 -0.12523 0.0083392002
  vertex 0.0048776004 -0.129373 0.00094687793
  endloop
 endfacet

 facet normal 0 0 0
  outer loop
  vertex 0.017870702 -0.12668201 -0.0047686393
  vertex 0.026663302 -0.122854 -0.0077200998
  vertex 0.030507602 -0.12122 0.0033920298
  endloop
 endfacet

 facet normal 0 0 0
  outer loop
  vertex 0.017870702 -0.12668201 -0.0047686393
  vertex 0.030507602 -0.12122 0.0033920298
  vertex 0.0206773 -0.12523 0.0083392002
  endloop
 endfacet

 facet normal 0 0 0
  outer loop
  vertex 0.0454426 -0.107338 0.0096591888
  vertex 0.050649401 -0.087687306 0.0036587599
  vertex 0.051374901 -0.063873 0.0195316
  endloop
 endfacet

 facet normal 0 0 0
  outer loop
  vertex 0.0454426 -0.107338 0.0096591888
  vertex 0.051374901 -0.063873 0.0195316
  vertex 0.042932 -0.107418 0.017665399
  endloop
 endfacet

 facet normal 0 0 0
  outer loop
  vertex 0.0454426 -0.107338 0.0096591888
  vertex 0.042932 -0.107418 0.017665399
  vertex 0.040513903 -0.113037 0.008921029
  endloop
 endfacet

 facet normal 0 0 0
  outer loop
  vertex 0.024035601 -0.064733699 0.049545895
  vertex 0.032857899 -0.0643268 0.044151198
  vertex 0.032228705 -0.00046813101 0.045079395
  endloop
 endfacet

 facet normal 0 0 0
  outer loop
  vertex 0.024035601 -0.064733699 0.049545895
  vertex 0.032228705 -0.00046813101 0.045079395
  vertex 0.012127501 -0.00050359109 0.053903401
  endloop
 endfacet

 facet normal 0 0 0
  outer loop
  vertex 0.024035601 -0.064733699 0.049545895
  vertex 0.012127501 -0.00050359109 0.053903401
  vertex 0.0099262213 -0.0648368 0.054229699
  endloop
 endfacet

 facet normal 0 0 0
  outer loop
  vertex 0.024035601 -0.064733699 0.049545895
  vertex 0.0099262213 -0.0648368 0.054229699
  vertex 0.013692001 -0.10719901 0.0444347
  endloop
 endfacet

 facet normal 0 0 0
  outer loop
  vertex 0.024035601 -0.064733699 0.049545895
  vertex 0.013692001 -0.10719901 0.0444347
  vertex 0.0226619 -0.10751 0.040511895
  endloop
 endfacet

 facet normal 0 0 0
  outer loop
  vertex -0.014551501 -0.107379 0.044191498
  vertex -0.0043226704 -0.10741701 0.046152696
  vertex -0.014252201 -0.084755398 0.049506899
  endloop
 endfacet

 facet normal 0 0 0
  outer loop
  vertex 0.045560405 0.030944802 -0.123597
  vertex 0.037477802 0.040466499 -0.12570199
  vertex 0.054883003 -0.00057262008 0.0059492802
  endloop
 endfacet

 facet normal 0 0 0
  outer loop
  vertex 0.045560405 0.030944802 -0.123597
  vertex 0.054883003 -0.00057262008 0.0059492802
  vertex 0.051739305 0.019267401 -0.119399
  endloop
 endfacet

 facet normal 0 0 0
  outer loop
  vertex 0.045560405 0.030944802 -0.123597
  vertex 0.044789102 0.032345101 -0.192
  vertex 0.037477802 0.040466499 -0.12570199
  endloop
 endfacet

 facet normal 0 0 0
  outer loop
  vertex 0.0122025 0.0537025 -0.192
  vertex 0.017598202 0.0521884 -0.12665498
  vertex 0.0229131 0.050150905 -0.192
  endloop
 endfacet

 facet normal 0 0 0
  outer loop
  vertex 0.0280254 0.047407199 -0.12645899
  vertex 0.0229131 0.050150905 -0.192
  vertex 0.017598202 0.0521884 -0.12665498
  endloop
 endfacet

 facet normal 0 0 0
  outer loop
  vertex 0.017598202 0.0521884 -0.12665498
  vertex 0.046015505 -0.00051663199 0.030427499
  vertex 0.0518771 -0.00050205598 0.018582199
  endloop
 endfacet

 facet normal 0 0 0
  outer loop
  vertex 0.017598202 0.0521884 -0.12665498
  vertex 0.0518771 -0.00050205598 0.018582199
  vertex 0.0280254 0.047407199 -0.12645899
  endloop
 endfacet

 facet normal 0 0 0
  outer loop
  vertex 0.0280254 0.047407199 -0.12645899
  vertex 0.0518771 -0.00050205598 0.018582199
  vertex 0.037477802 0.040466499 -0.12570199
  endloop
 endfacet

 facet normal 0 0 0
  outer loop
  vertex 0.0280254 0.047407199 -0.12645899
  vertex 0.037477802 0.040466499 -0.12570199
  vertex 0.034291703 0.0431697 -0.192
  endloop
 endfacet

 facet normal 0 0 0
  outer loop
  vertex 0.0280254 0.047407199 -0.12645899
  vertex 0.034291703 0.0431697 -0.192
  vertex 0.0229131 0.050150905 -0.192
  endloop
 endfacet

 facet normal 0 0 0
  outer loop
  vertex -0.053197704 -0.0620308 0.014281599
  vertex -0.049316805 -0.064360097 0.024332099
  vertex -0.050318103 -0.000497323 0.022466099
  endloop
 endfacet

 facet normal 0 0 0
  outer loop
  vertex -0.053197704 -0.0620308 0.014281599
  vertex -0.050318103 -0.000497323 0.022466099
  vertex -0.054768402 -0.000602188 0.0075167697
  endloop
 endfacet

 facet normal 0 0 0
  outer loop
  vertex -0.053197704 -0.0620308 0.014281599
  vertex -0.054768402 -0.000602188 0.0075167697
  vertex -0.054987002 -0.060275804 0.0029446199
  endloop
 endfacet

 facet normal 0 0 0
  outer loop
  vertex -0.053197704 -0.0620308 0.014281599
  vertex -0.044898901 -0.107411 0.012099199
  vertex -0.041507103 -0.107025 0.021370601
  endloop
 endfacet

 facet normal 0 0 0
  outer loop
  vertex -0.053197704 -0.0620308 0.014281599
  vertex -0.041507103 -0.107025 0.021370601
  vertex -0.049316805 -0.064360097 0.024332099
  endloop
 endfacet

 facet normal 0 0 0
  outer loop
  vertex -0.022892199 -0.12500601 -0.00073527492
  vertex -0.011272101 -0.12851299 0.00025002699
  vertex -0.019273503 -0.12582099 0.0080081001
  endloop
 endfacet

 facet normal 0 0 0
  outer loop
  vertex -0.019273503 -0.12582099 0.0080081001
  vertex -0.032843899 -0.11920301 0.0077857194
  vertex -0.030922601 -0.12093101 -0.0022428997
  endloop
 endfacet

 facet normal 0 0 0
  outer loop
  vertex -0.019273503 -0.12582099 0.0080081001
  vertex -0.030922601 -0.12093101 -0.0022428997
  vertex -0.022892199 -0.12500601 -0.00073527492
  endloop
 endfacet

 facet normal 0 0 0
  outer loop
  vertex -0.051902104 -0.080543004 0.0051539401
  vertex -0.044898901 -0.107411 0.012099199
  vertex -0.053197704 -0.0620308 0.014281599
  endloop
 endfacet

 facet normal 0 0 0
  outer loop
  vertex -0.051902104 -0.080543004 0.0051539401
  vertex -0.053197704 -0.0620308 0.014281599
  vertex -0.054987002 -0.060275804 0.0029446199
  endloop
 endfacet

 facet normal 0 0 0
  outer loop
  vertex 0.026663302 -0.122854 -0.0077200998
  vertex 0.017870702 -0.12668201 -0.0047686393
  vertex 0.017859099 -0.12439701 -0.016615501
  endloop
 endfacet

 facet normal 0 0 0
  outer loop
  vertex -0.0089002503 -0.113838 0.039610501
  vertex -0.0043226704 -0.10741701 0.046152696
  vertex -0.014551501 -0.107379 0.044191498
  endloop
 endfacet

 facet normal 0 0 0
  outer loop
  vertex -0.0089002503 -0.113838 0.039610501
  vertex 0.00326605 -0.110954 0.043454599
  vertex -0.0043226704 -0.10741701 0.046152696
  endloop
 endfacet

 facet normal 0 0 0
  outer loop
  vertex 0.054382402 0.0089247311 -0.19199699
  vertex 0.051822804 0.018800402 -0.192
  vertex 0.051739305 0.019267401 -0.119399
  endloop
 endfacet

 facet normal 0 0 0
  outer loop
  vertex 0.054382402 0.0089247311 -0.19199699
  vertex 0.051739305 0.019267401 -0.119399
  vertex 0.054883003 -0.00057262008 0.0059492802
  endloop
 endfacet

 facet normal 0 0 0
  outer loop
  vertex 0.054382402 0.0089247311 -0.19199699
  vertex 0.054883003 -0.00057262008 0.0059492802
  vertex 0.0551612 -0.0036281603 -0.19200398
  endloop
 endfacet

 facet normal 0 0 0
  outer loop
  vertex -0.046546198 -0.107219 -0.00031815397
  vertex -0.044898901 -0.107411 0.012099199
  vertex -0.051902104 -0.080543004 0.0051539401
  endloop
 endfacet

 facet normal 0 0 0
  outer loop
  vertex -0.046546198 -0.107219 -0.00031815397
  vertex -0.051902104 -0.080543004 0.0051539401
  vertex -0.054987002 -0.060275804 0.0029446199
  endloop
 endfacet

 facet normal 0 0 0
  outer loop
  vertex -0.046546198 -0.107219 -0.00031815397
  vertex -0.054987002 -0.060275804 0.0029446199
  vertex -0.053667504 -0.013206601 -0.19200298
  endloop
 endfacet

 facet normal 0 0 0
  outer loop
  vertex -0.046546198 -0.107219 -0.00031815397
  vertex -0.053667504 -0.013206601 -0.19200298
  vertex -0.045586601 -0.10775801 -0.0072536301
  endloop
 endfacet

 facet normal 0 0 0
  outer loop
  vertex -0.046546198 -0.107219 -0.00031815397
  vertex -0.045586601 -0.10775801 -0.0072536301
  vertex -0.040767599 -0.11356501 -0.0035663499
  endloop
 endfacet

 facet normal 0 0 0
  outer loop
  vertex 0.0039278306 -0.125091 0.022593899
  vertex -0.0082654906 -0.12673301 0.016201399
  vertex 0.0042039305 -0.127918 0.013659799
  endloop
 endfacet

 facet normal 0 0 0
  outer loop
  vertex 0.0037940603 -0.089031398 0.050524395
  vertex 0.0043115998 -0.10744501 0.046230797
  vertex 0.013692001 -0.10719901 0.0444347
  endloop
 endfacet

 facet normal 0 0 0
  outer loop
  vertex 0.0037940603 -0.089031398 0.050524395
  vertex 0.013692001 -0.10719901 0.0444347
  vertex 0.0099262213 -0.0648368 0.054229699
  endloop
 endfacet

 facet normal 0 0 0
  outer loop
  vertex 0.0037940603 -0.089031398 0.050524395
  vertex 0.0099262213 -0.0648368 0.054229699
  vertex -0.0010646899 -0.065471306 0.054973096
  endloop
 endfacet

 facet normal 0 0 0
  outer loop
  vertex -0.0079996102 -0.054700401 -0.192
  vertex 0.0077343504 -0.054572701 -0.192
  vertex 0.0077047604 -0.12579501 -0.019476898
  endloop
 endfacet

 facet normal 0 0 0
  outer loop
  vertex -0.0079996102 -0.054700401 -0.192
  vertex 0.0077047604 -0.12579501 -0.019476898
  vertex 5.1980704e-05 -0.12783502 -0.014334499
  endloop
 endfacet

 facet normal 0 0 0
  outer loop
  vertex -0.0079996102 -0.054700401 -0.192
  vertex 5.1980704e-05 -0.12783502 -0.014334499
  vertex -0.0084854299 -0.125357 -0.020503798
  endloop
 endfacet

 facet normal 0 0 0
  outer loop
  vertex -0.028265702 -0.118307 0.020675799
  vertex -0.032843899 -0.11920301 0.0077857194
  vertex -0.019273503 -0.12582099 0.0080081001
  endloop
 endfacet

 facet normal 0 0 0
  outer loop
  vertex -0.028265702 -0.118307 0.020675799
  vertex -0.019273503 -0.12582099 0.0080081001
  vertex -0.019234201 -0.123633 0.017519698
  endloop
 endfacet

 facet normal 0 0 0
  outer loop
  vertex -0.019234201 -0.123633 0.017519698
  vertex -0.019273503 -0.12582099 0.0080081001
  vertex -0.0082654906 -0.12673301 0.016201399
  endloop
 endfacet

 facet normal 0 0 0
  outer loop
  vertex -0.019234201 -0.123633 0.017519698
  vertex -0.018038603 -0.11866501 0.029565599
  vertex -0.028265702 -0.118307 0.020675799
  endloop
 endfacet

 facet normal 0 0 0
  outer loop
  vertex -0.0086587211 -0.064250708 0.054434896
  vertex -0.020954899 -0.064622402 0.050930701
  vertex -0.014252201 -0.084755398 0.049506899
  endloop
 endfacet

 facet normal 0 0 0
  outer loop
  vertex -0.014252201 -0.084755398 0.049506899
  vertex -0.0043226704 -0.10741701 0.046152696
  vertex 0.0037940603 -0.089031398 0.050524395
  endloop
 endfacet

 facet normal 0 0 0
  outer loop
  vertex -0.014252201 -0.084755398 0.049506899
  vertex 0.0037940603 -0.089031398 0.050524395
  vertex -0.0010646899 -0.065471306 0.054973096
  endloop
 endfacet

 facet normal 0 0 0
  outer loop
  vertex -0.014252201 -0.084755398 0.049506899
  vertex -0.0010646899 -0.065471306 0.054973096
  vertex -0.0086587211 -0.064250708 0.054434896
  endloop
 endfacet

 facet normal 0 0 0
  outer loop
  vertex -0.0086587211 -0.064250708 0.054434896
  vertex -0.0010646899 -0.065471306 0.054973096
  vertex -0.0057301703 -0.00048880005 0.054942697
  endloop
 endfacet

 facet normal 0 0 0
  outer loop
  vertex -0.012078701 0.053723 -0.192
  vertex -0.021548603 0.050744001 -0.192
  vertex -0.015560301 0.052798599 -0.126596
  endloop
 endfacet

 facet normal 0 0 0
  outer loop
  vertex -0.015560301 0.052798599 -0.126596
  vertex 0.00019801201 0.054921001 -0.12517798
  vertex -0.00035502401 0.055192303 -0.192
  endloop
 endfacet

 facet normal 0 0 0
  outer loop
  vertex -0.015560301 0.052798599 -0.126596
  vertex -0.00035502401 0.055192303 -0.192
  vertex -0.012078701 0.053723 -0.192
  endloop
 endfacet

 facet normal 0 0 0
  outer loop
  vertex 0.037483901 -0.116272 -0.0036149698
  vertex 0.040513903 -0.113037 0.008921029
  vertex 0.030507602 -0.12122 0.0033920298
  endloop
 endfacet

 facet normal 0 0 0
  outer loop
  vertex 0.037483901 -0.116272 -0.0036149698
  vertex 0.030507602 -0.12122 0.0033920298
  vertex 0.026663302 -0.122854 -0.0077200998
  endloop
 endfacet

 facet normal 0 0 0
  outer loop
  vertex 0.037483901 -0.116272 -0.0036149698
  vertex 0.026663302 -0.122854 -0.0077200998
  vertex 0.034727301 -0.116294 -0.014647999
  endloop
 endfacet

 facet normal 0 0 0
  outer loop
  vertex 0.0173846 -0.124411 0.017312398
  vertex 0.021323601 -0.120405 0.023698898
  vertex 0.013819601 -0.119368 0.030523898
  endloop
 endfacet

 facet normal 0 0 0
  outer loop
  vertex 0.0173846 -0.124411 0.017312398
  vertex 0.013819601 -0.119368 0.030523898
  vertex 0.0039278306 -0.125091 0.022593899
  endloop
 endfacet

 facet normal 0 0 0
  outer loop
  vertex 0.0173846 -0.124411 0.017312398
  vertex 0.0039278306 -0.125091 0.022593899
  vertex 0.0042039305 -0.127918 0.013659799
  endloop
 endfacet

 facet normal 0 0 0
  outer loop
  vertex 0.040593803 -0.064405702 0.037126899
  vertex 0.046527602 -0.064680509 0.029294699
  vertex 0.046015505 -0.00051663199 0.030427499
  endloop
 endfacet

 facet normal 0 0 0
  outer loop
  vertex 0.040593803 -0.064405702 0.037126899
  vertex 0.046015505 -0.00051663199 0.030427499
  vertex 0.032228705 -0.00046813101 0.045079395
  endloop
 endfacet

 facet normal 0 0 0
  outer loop
  vertex 0.040593803 -0.064405702 0.037126899
  vertex 0.032228705 -0.00046813101 0.045079395
  vertex 0.032857899 -0.0643268 0.044151198
  endloop
 endfacet

 facet normal 0 0 0
  outer loop
  vertex -0.042379305 -0.10967301 -0.0139655
  vertex -0.033893399 -0.117564 -0.012557999
  vertex -0.040767599 -0.11356501 -0.0035663499
  endloop
 endfacet

 facet normal 0 0 0
  outer loop
  vertex -0.042379305 -0.10967301 -0.0139655
  vertex -0.040767599 -0.11356501 -0.0035663499
  vertex -0.045586601 -0.10775801 -0.0072536301
  endloop
 endfacet

 facet normal 0 0 0
  outer loop
  vertex -0.042379305 -0.10967301 -0.0139655
  vertex -0.045586601 -0.10775801 -0.0072536301
  vertex -0.042941801 -0.035020102 -0.19199899
  endloop
 endfacet

 facet normal 0 0 0
  outer loop
  vertex -0.0155493 -0.126569 -0.0104242
  vertex -0.022482501 -0.12334101 -0.014598299
  vertex -0.0084854299 -0.125357 -0.020503798
  endloop
 endfacet

 facet normal 0 0 0
  outer loop
  vertex -0.0155493 -0.126569 -0.0104242
  vertex -0.0084854299 -0.125357 -0.020503798
  vertex 5.1980704e-05 -0.12783502 -0.014334499
  endloop
 endfacet

 facet normal 0 0 0
  outer loop
  vertex -0.0155493 -0.126569 -0.0104242
  vertex 5.1980704e-05 -0.12783502 -0.014334499
  vertex -0.011272101 -0.12851299 0.00025002699
  endloop
 endfacet

 facet normal 0 0 0
  outer loop
  vertex -0.0155493 -0.126569 -0.0104242
  vertex -0.011272101 -0.12851299 0.00025002699
  vertex -0.022892199 -0.12500601 -0.00073527492
  endloop
 endfacet

 facet normal 0 0 0
  outer loop
  vertex -0.0155493 -0.126569 -0.0104242
  vertex -0.022892199 -0.12500601 -0.00073527492
  vertex -0.022482501 -0.12334101 -0.014598299
  endloop
 endfacet

 facet normal 0 0 0
  outer loop
  vertex 0.0043115998 -0.10744501 0.046230797
  vertex 0.0037940603 -0.089031398 0.050524395
  vertex -0.0043226704 -0.10741701 0.046152696
  endloop
 endfacet

 facet normal 0 0 0
  outer loop
  vertex 0.0043115998 -0.10744501 0.046230797
  vertex -0.0043226704 -0.10741701 0.046152696
  vertex 0.00326605 -0.110954 0.043454599
  endloop
 endfacet

 facet normal 0 0 0
  outer loop
  vertex -0.038870301 -0.112925 0.014468099
  vertex -0.041507103 -0.107025 0.021370601
  vertex -0.044898901 -0.107411 0.012099199
  endloop
 endfacet

 facet normal 0 0 0
  outer loop
  vertex -0.038870301 -0.112925 0.014468099
  vertex -0.044898901 -0.107411 0.012099199
  vertex -0.046546198 -0.107219 -0.00031815397
  endloop
 endfacet

 facet normal 0 0 0
  outer loop
  vertex -0.038870301 -0.112925 0.014468099
  vertex -0.046546198 -0.107219 -0.00031815397
  vertex -0.040767599 -0.11356501 -0.0035663499
  endloop
 endfacet

 facet normal 0 0 0
  outer loop
  vertex -0.038870301 -0.112925 0.014468099
  vertex -0.040767599 -0.11356501 -0.0035663499
  vertex -0.032843899 -0.11920301 0.0077857194
  endloop
 endfacet

 facet normal 0 0 0
  outer loop
  vertex -0.038870301 -0.112925 0.014468099
  vertex -0.032843899 -0.11920301 0.0077857194
  vertex -0.028265702 -0.118307 0.020675799
  endloop
 endfacet

 facet normal 0 0 0
  outer loop
  vertex 0.029306902 -0.12024201 0.013104899
  vertex 0.0206773 -0.12523 0.0083392002
  vertex 0.030507602 -0.12122 0.0033920298
  endloop
 endfacet

 facet normal 0 0 0
  outer loop
  vertex 0.029306902 -0.12024201 0.013104899
  vertex 0.030507602 -0.12122 0.0033920298
  vertex 0.040513903 -0.113037 0.008921029
  endloop
 endfacet

 facet normal 0 0 0
  outer loop
  vertex 0.029306902 -0.12024201 0.013104899
  vertex 0.040513903 -0.113037 0.008921029
  vertex 0.034471903 -0.114389 0.020296199
  endloop
 endfacet

 facet normal 0 0 0
  outer loop
  vertex 0.029306902 -0.12024201 0.013104899
  vertex 0.034471903 -0.114389 0.020296199
  vertex 0.021323601 -0.120405 0.023698898
  endloop
 endfacet

 facet normal 0 0 0
  outer loop
  vertex 0.029306902 -0.12024201 0.013104899
  vertex 0.021323601 -0.120405 0.023698898
  vertex 0.0173846 -0.124411 0.017312398
  endloop
 endfacet

 facet normal 0 0 0
  outer loop
  vertex 0.029306902 -0.12024201 0.013104899
  vertex 0.0173846 -0.124411 0.017312398
  vertex 0.0206773 -0.12523 0.0083392002
  endloop
 endfacet

 facet normal 0 0 0
  outer loop
  vertex -0.053404801 0.0136221 -0.118476
  vertex -0.050133504 0.022743702 -0.12207399
  vertex -0.052334499 0.017523102 -0.192
  endloop
 endfacet

 facet normal 0 0 0
  outer loop
  vertex -0.053404801 0.0136221 -0.118476
  vertex -0.052334499 0.017523102 -0.192
  vertex -0.054942004 0.00402568 -0.192
  endloop
 endfacet

 facet normal 0 0 0
  outer loop
  vertex -0.053404801 0.0136221 -0.118476
  vertex -0.054942004 0.00402568 -0.192
  vertex -0.054768402 -0.000602188 0.0075167697
  endloop
 endfacet

 facet normal 0 0 0
  outer loop
  vertex -0.053404801 0.0136221 -0.118476
  vertex -0.054768402 -0.000602188 0.0075167697
  vertex -0.050133504 0.022743702 -0.12207399
  endloop
 endfacet

 facet normal 0 0 0
  outer loop
  vertex 0.021619501 -0.11637801 0.030633498
  vertex 0.013819601 -0.119368 0.030523898
  vertex 0.021323601 -0.120405 0.023698898
  endloop
 endfacet

 facet normal 0 0 0
  outer loop
  vertex 0.021619501 -0.11637801 0.030633498
  vertex 0.021323601 -0.120405 0.023698898
  vertex 0.034471903 -0.114389 0.020296199
  endloop
 endfacet

 facet normal 0 0 0
  outer loop
  vertex 0.021619501 -0.11637801 0.030633498
  vertex 0.034471903 -0.114389 0.020296199
  vertex 0.033283599 -0.10729101 0.032545995
  endloop
 endfacet

 facet normal 0 0 0
  outer loop
  vertex 0.021619501 -0.11637801 0.030633498
  vertex 0.033283599 -0.10729101 0.032545995
  vertex 0.0226619 -0.10751 0.040511895
  endloop
 endfacet

 facet normal 0 0 0
  outer loop
  vertex -0.033893399 -0.117564 -0.012557999
  vertex -0.022482501 -0.12334101 -0.014598299
  vertex -0.022892199 -0.12500601 -0.00073527492
  endloop
 endfacet

 facet normal 0 0 0
  outer loop
  vertex -0.033893399 -0.117564 -0.012557999
  vertex -0.022892199 -0.12500601 -0.00073527492
  vertex -0.030922601 -0.12093101 -0.0022428997
  endloop
 endfacet

 facet normal 0 0 0
  outer loop
  vertex -0.030922601 -0.12093101 -0.0022428997
  vertex -0.032843899 -0.11920301 0.0077857194
  vertex -0.040767599 -0.11356501 -0.0035663499
  endloop
 endfacet

 facet normal 0 0 0
  outer loop
  vertex -0.030922601 -0.12093101 -0.0022428997
  vertex -0.040767599 -0.11356501 -0.0035663499
  vertex -0.033893399 -0.117564 -0.012557999
  endloop
 endfacet

 facet normal 0 0 0
  outer loop
  vertex -0.0082654906 -0.12673301 0.016201399
  vertex 0.0039278306 -0.125091 0.022593899
  vertex -0.0027438099 -0.12057701 0.031461399
  endloop
 endfacet

 facet normal 0 0 0
  outer loop
  vertex -0.0082654906 -0.12673301 0.016201399
  vertex -0.0027438099 -0.12057701 0.031461399
  vertex -0.0112115 -0.122478 0.026150798
  endloop
 endfacet

 facet normal 0 0 0
  outer loop
  vertex -0.0027438099 -0.12057701 0.031461399
  vertex -0.0089002503 -0.113838 0.039610501
  vertex -0.018038603 -0.11866501 0.029565599
  endloop
 endfacet

 facet normal 0 0 0
  outer loop
  vertex -0.0027438099 -0.12057701 0.031461399
  vertex -0.018038603 -0.11866501 0.029565599
  vertex -0.0112115 -0.122478 0.026150798
  endloop
 endfacet

 facet normal 0 0 0
  outer loop
  vertex -0.0112115 -0.122478 0.026150798
  vertex -0.018038603 -0.11866501 0.029565599
  vertex -0.019234201 -0.123633 0.017519698
  endloop
 endfacet

 facet normal 0 0 0
  outer loop
  vertex -0.0112115 -0.122478 0.026150798
  vertex -0.019234201 -0.123633 0.017519698
  vertex -0.0082654906 -0.12673301 0.016201399
  endloop
 endfacet

 facet normal 0 0 0
  outer loop
  vertex -0.025501601 -0.114408 0.030829098
  vertex -0.018038603 -0.11866501 0.029565599
  vertex -0.0089002503 -0.113838 0.039610501
  endloop
 endfacet

 facet normal 0 0 0
  outer loop
  vertex -0.025501601 -0.114408 0.030829098
  vertex -0.0089002503 -0.113838 0.039610501
  vertex -0.014551501 -0.107379 0.044191498
  endloop
 endfacet

 facet normal 0 0 0
  outer loop
  vertex -0.025501601 -0.114408 0.030829098
  vertex -0.014551501 -0.107379 0.044191498
  vertex -0.024876602 -0.10748401 0.039130896
  endloop
 endfacet

 facet normal 0 0 0
  outer loop
  vertex -0.025501601 -0.114408 0.030829098
  vertex -0.024876602 -0.10748401 0.039130896
  vertex -0.033994704 -0.107523 0.031676795
  endloop
 endfacet

 facet normal 0 0 0
  outer loop
  vertex -0.025501601 -0.114408 0.030829098
  vertex -0.028265702 -0.118307 0.020675799
  vertex -0.018038603 -0.11866501 0.029565599
  endloop
 endfacet

 facet normal 0 0 0
  outer loop
  vertex 0.0089435512 -0.12816399 -0.00918091
  vertex 5.1980704e-05 -0.12783502 -0.014334499
  vertex 0.0077047604 -0.12579501 -0.019476898
  endloop
 endfacet

 facet normal 0 0 0
  outer loop
  vertex 0.0089435512 -0.12816399 -0.00918091
  vertex 0.0077047604 -0.12579501 -0.019476898
  vertex 0.017859099 -0.12439701 -0.016615501
  endloop
 endfacet

 facet normal 0 0 0
  outer loop
  vertex 0.0089435512 -0.12816399 -0.00918091
  vertex 0.017859099 -0.12439701 -0.016615501
  vertex 0.017870702 -0.12668201 -0.0047686393
  endloop
 endfacet

 facet normal 0 0 0
  outer loop
  vertex 0.0089435512 -0.12816399 -0.00918091
  vertex 0.017870702 -0.12668201 -0.0047686393
  vertex 0.0048776004 -0.129373 0.00094687793
  endloop
 endfacet

 facet normal 0 0 0
  outer loop
  vertex 0.0089435512 -0.12816399 -0.00918091
  vertex 0.0048776004 -0.129373 0.00094687793
  vertex 5.1980704e-05 -0.12783502 -0.014334499
  endloop
 endfacet

 facet normal 0 0 0
  outer loop
  vertex 0.011679501 -0.11317301 0.039548699
  vertex 0.013819601 -0.119368 0.030523898
  vertex 0.021619501 -0.11637801 0.030633498
  endloop
 endfacet

 facet normal 0 0 0
  outer loop
  vertex 0.011679501 -0.11317301 0.039548699
  vertex 0.021619501 -0.11637801 0.030633498
  vertex 0.0226619 -0.10751 0.040511895
  endloop
 endfacet

 facet normal 0 0 0
  outer loop
  vertex 0.011679501 -0.11317301 0.039548699
  vertex 0.0226619 -0.10751 0.040511895
  vertex 0.013692001 -0.10719901 0.0444347
  endloop
 endfacet

 facet normal 0 0 0
  outer loop
  vertex 0.011679501 -0.11317301 0.039548699
  vertex 0.013692001 -0.10719901 0.0444347
  vertex 0.0043115998 -0.10744501 0.046230797
  endloop
 endfacet

 facet normal 0 0 0
  outer loop
  vertex 0.011679501 -0.11317301 0.039548699
  vertex 0.0043115998 -0.10744501 0.046230797
  vertex 0.00326605 -0.110954 0.043454599
  endloop
 endfacet

 facet normal 0 0 0
  outer loop
  vertex -0.045797903 0.0305843 -0.12347999
  vertex -0.050133504 0.022743702 -0.12207399
  vertex -0.054768402 -0.000602188 0.0075167697
  endloop
 endfacet

 facet normal 0 0 0
  outer loop
  vertex -0.045797903 0.0305843 -0.12347999
  vertex -0.054768402 -0.000602188 0.0075167697
  vertex -0.039695002 0.0381363 -0.12517798
  endloop
 endfacet

 facet normal 0 0 0
  outer loop
  vertex 0.046444301 -0.107388 0.00010382399
  vertex 0.050649401 -0.087687306 0.0036587599
  vertex 0.0454426 -0.107338 0.0096591888
  endloop
 endfacet

 facet normal 0 0 0
  outer loop
  vertex 0.046444301 -0.107388 0.00010382399
  vertex 0.0454426 -0.107338 0.0096591888
  vertex 0.040513903 -0.113037 0.008921029
  endloop
 endfacet

 facet normal 0 0 0
  outer loop
  vertex 0.040513903 -0.113037 0.008921029
  vertex 0.037483901 -0.116272 -0.0036149698
  vertex 0.045459203 -0.108458 -0.0057030194
  endloop
 endfacet

 facet normal 0 0 0
  outer loop
  vertex 0.040513903 -0.113037 0.008921029
  vertex 0.045459203 -0.108458 -0.0057030194
  vertex 0.046444301 -0.107388 0.00010382399
  endloop
 endfacet

 facet normal 0 0 0
  outer loop
  vertex 0.046444301 -0.107388 0.00010382399
  vertex 0.045459203 -0.108458 -0.0057030194
  vertex 0.049622104 -0.024777399 -0.19199899
  endloop
 endfacet

 facet normal 0 0 0
  outer loop
  vertex 0.046444301 -0.107388 0.00010382399
  vertex 0.049622104 -0.024777399 -0.19199899
  vertex 0.0551612 -0.0036281603 -0.19200398
  endloop
 endfacet

 facet normal 0 0 0
  outer loop
  vertex -0.030773399 0.045635905 -0.192
  vertex -0.025424102 0.048831701 -0.12665799
  vertex -0.021548603 0.050744001 -0.192
  endloop
 endfacet

 facet normal 0 0 0
  outer loop
  vertex 0.025412003 -0.120945 -0.017631898
  vertex 0.034727301 -0.116294 -0.014647999
  vertex 0.026663302 -0.122854 -0.0077200998
  endloop
 endfacet

 facet normal 0 0 0
  outer loop
  vertex 0.025412003 -0.120945 -0.017631898
  vertex 0.026663302 -0.122854 -0.0077200998
  vertex 0.017859099 -0.12439701 -0.016615501
  endloop
 endfacet

 facet normal 0 0 0
  outer loop
  vertex 0.025412003 -0.120945 -0.017631898
  vertex 0.017859099 -0.12439701 -0.016615501
  vertex 0.023176301 -0.050139803 -0.192
  endloop
 endfacet

 facet normal 0 0 0
  outer loop
  vertex -0.034036502 -0.083714209 0.038940601
  vertex -0.043081801 -0.063859701 0.034509402
  vertex -0.033994704 -0.107523 0.031676795
  endloop
 endfacet

 facet normal 0 0 0
  outer loop
  vertex -0.034036502 -0.083714209 0.038940601
  vertex -0.033994704 -0.107523 0.031676795
  vertex -0.024876602 -0.10748401 0.039130896
  endloop
 endfacet

 facet normal 0 0 0
  outer loop
  vertex -0.034036502 -0.083714209 0.038940601
  vertex -0.031828899 -0.064068303 0.045033198
  vertex -0.043081801 -0.063859701 0.034509402
  endloop
 endfacet

 facet normal 0 0 0
  outer loop
  vertex -0.0057686106 -0.12874199 0.0078556594
  vertex -0.011272101 -0.12851299 0.00025002699
  vertex 0.0048776004 -0.129373 0.00094687793
  endloop
 endfacet

 facet normal 0 0 0
  outer loop
  vertex -0.0057686106 -0.12874199 0.0078556594
  vertex 0.0048776004 -0.129373 0.00094687793
  vertex 0.0042039305 -0.127918 0.013659799
  endloop
 endfacet

 facet normal 0 0 0
  outer loop
  vertex -0.0057686106 -0.12874199 0.0078556594
  vertex 0.0042039305 -0.127918 0.013659799
  vertex -0.0082654906 -0.12673301 0.016201399
  endloop
 endfacet

 facet normal 0 0 0
  outer loop
  vertex -0.0082654906 -0.12673301 0.016201399
  vertex -0.019273503 -0.12582099 0.0080081001
  vertex -0.011272101 -0.12851299 0.00025002699
  endloop
 endfacet

 facet normal 0 0 0
  outer loop
  vertex -0.0082654906 -0.12673301 0.016201399
  vertex -0.011272101 -0.12851299 0.00025002699
  vertex -0.0057686106 -0.12874199 0.0078556594
  endloop
 endfacet

 facet normal 0 0 0
  outer loop
  vertex 0.042634405 -0.10989301 -0.012449299
  vertex 0.037112702 -0.040730599 -0.192
  vertex 0.049622104 -0.024777399 -0.19199899
  endloop
 endfacet

 facet normal 0 0 0
  outer loop
  vertex 0.042634405 -0.10989301 -0.012449299
  vertex 0.049622104 -0.024777399 -0.19199899
  vertex 0.045459203 -0.108458 -0.0057030194
  endloop
 endfacet

 facet normal 0 0 0
  outer loop
  vertex 0.042634405 -0.10989301 -0.012449299
  vertex 0.045459203 -0.108458 -0.0057030194
  vertex 0.037483901 -0.116272 -0.0036149698
  endloop
 endfacet

 facet normal 0 0 0
  outer loop
  vertex 0.042634405 -0.10989301 -0.012449299
  vertex 0.037483901 -0.116272 -0.0036149698
  vertex 0.034727301 -0.116294 -0.014647999
  endloop
 endfacet

 facet normal 0 0 0
  outer loop
  vertex 0.042634405 -0.10989301 -0.012449299
  vertex 0.034727301 -0.116294 -0.014647999
  vertex 0.037112702 -0.040730599 -0.192
  endloop
 endfacet

 facet normal 0 0 0
  outer loop
  vertex -0.035214804 -0.111623 0.024390697
  vertex -0.028265702 -0.118307 0.020675799
  vertex -0.025501601 -0.114408 0.030829098
  endloop
 endfacet

 facet normal 0 0 0
  outer loop
  vertex -0.035214804 -0.111623 0.024390697
  vertex -0.025501601 -0.114408 0.030829098
  vertex -0.033994704 -0.107523 0.031676795
  endloop
 endfacet

 facet normal 0 0 0
  outer loop
  vertex -0.035214804 -0.111623 0.024390697
  vertex -0.033994704 -0.107523 0.031676795
  vertex -0.041507103 -0.107025 0.021370601
  endloop
 endfacet

 facet normal 0 0 0
  outer loop
  vertex -0.035214804 -0.111623 0.024390697
  vertex -0.041507103 -0.107025 0.021370601
  vertex -0.038870301 -0.112925 0.014468099
  endloop
 endfacet

 facet normal 0 0 0
  outer loop
  vertex -0.035214804 -0.111623 0.024390697
  vertex -0.038870301 -0.112925 0.014468099
  vertex -0.028265702 -0.118307 0.020675799
  endloop
 endfacet

 facet normal 0 0 0
  outer loop
  vertex -0.022960301 -0.085024402 0.046109695
  vertex -0.024876602 -0.10748401 0.039130896
  vertex -0.014551501 -0.107379 0.044191498
  endloop
 endfacet

 facet normal 0 0 0
  outer loop
  vertex -0.014551501 -0.107379 0.044191498
  vertex -0.014252201 -0.084755398 0.049506899
  vertex -0.020954899 -0.064622402 0.050930701
  endloop
 endfacet

 facet normal 0 0 0
  outer loop
  vertex -0.014551501 -0.107379 0.044191498
  vertex -0.020954899 -0.064622402 0.050930701
  vertex -0.022960301 -0.085024402 0.046109695
  endloop
 endfacet

 facet normal 0 0 0
  outer loop
  vertex -0.022960301 -0.085024402 0.046109695
  vertex -0.020954899 -0.064622402 0.050930701
  vertex -0.031828899 -0.064068303 0.045033198
  endloop
 endfacet

 facet normal 0 0 0
  outer loop
  vertex -0.022960301 -0.085024402 0.046109695
  vertex -0.031828899 -0.064068303 0.045033198
  vertex -0.034036502 -0.083714209 0.038940601
  endloop
 endfacet

 facet normal 0 0 0
  outer loop
  vertex -0.022960301 -0.085024402 0.046109695
  vertex -0.034036502 -0.083714209 0.038940601
  vertex -0.024876602 -0.10748401 0.039130896
  endloop
 endfacet

 facet normal 0 0 0
  outer loop
  vertex -0.033309903 0.043873902 -0.126128
  vertex -0.025424102 0.048831701 -0.12665799
  vertex -0.030773399 0.045635905 -0.192
  endloop
 endfacet

 facet normal 0 0 0
  outer loop
  vertex -0.033309903 0.043873902 -0.126128
  vertex -0.030773399 0.045635905 -0.192
  vertex -0.037874606 0.040031102 -0.192
  endloop
 endfacet

 facet normal 0 0 0
  outer loop
  vertex -0.033309903 0.043873902 -0.126128
  vertex -0.037874606 0.040031102 -0.192
  vertex -0.039695002 0.0381363 -0.12517798
  endloop
 endfacet

 facet normal 0 0 0
  outer loop
  vertex -0.033309903 0.043873902 -0.126128
  vertex -0.039695002 0.0381363 -0.12517798
  vertex -0.054768402 -0.000602188 0.0075167697
  endloop
 endfacet

 facet normal 0 0 0
  outer loop
  vertex -0.033309903 0.043873902 -0.126128
  vertex -0.054768402 -0.000602188 0.0075167697
  vertex -0.050318103 -0.000497323 0.022466099
  endloop
 endfacet

 facet normal 0 0 0
  outer loop
  vertex -0.033309903 0.043873902 -0.126128
  vertex -0.050318103 -0.000497323 0.022466099
  vertex -0.025424102 0.048831701 -0.12665799
  endloop
 endfacet

 facet normal 0 0 0
  outer loop
  vertex 0.039318599 -0.107371 0.024662901
  vertex 0.046527602 -0.064680509 0.029294699
  vertex 0.040593803 -0.064405702 0.037126899
  endloop
 endfacet

 facet normal 0 0 0
  outer loop
  vertex 0.039318599 -0.107371 0.024662901
  vertex 0.040593803 -0.064405702 0.037126899
  vertex 0.033283599 -0.10729101 0.032545995
  endloop
 endfacet

 facet normal 0 0 0
  outer loop
  vertex 0.039318599 -0.107371 0.024662901
  vertex 0.033283599 -0.10729101 0.032545995
  vertex 0.034471903 -0.114389 0.020296199
  endloop
 endfacet

 facet normal 0 0 0
  outer loop
  vertex 0.039318599 -0.107371 0.024662901
  vertex 0.034471903 -0.114389 0.020296199
  vertex 0.042932 -0.107418 0.017665399
  endloop
 endfacet

 facet normal 0 0 0
  outer loop
  vertex 0.00391118 -0.11821701 0.034981895
  vertex 0.013819601 -0.119368 0.030523898
  vertex 0.011679501 -0.11317301 0.039548699
  endloop
 endfacet

 facet normal 0 0 0
  outer loop
  vertex 0.00391118 -0.11821701 0.034981895
  vertex 0.011679501 -0.11317301 0.039548699
  vertex 0.00326605 -0.110954 0.043454599
  endloop
 endfacet

 facet normal 0 0 0
  outer loop
  vertex 0.00326605 -0.110954 0.043454599
  vertex -0.0089002503 -0.113838 0.039610501
  vertex -0.0027438099 -0.12057701 0.031461399
  endloop
 endfacet

 facet normal 0 0 0
  outer loop
  vertex 0.00326605 -0.110954 0.043454599
  vertex -0.0027438099 -0.12057701 0.031461399
  vertex 0.00391118 -0.11821701 0.034981895
  endloop
 endfacet

 facet normal 0 0 0
  outer loop
  vertex 0.00391118 -0.11821701 0.034981895
  vertex -0.0027438099 -0.12057701 0.031461399
  vertex 0.0039278306 -0.125091 0.022593899
  endloop
 endfacet

 facet normal 0 0 0
  outer loop
  vertex 0.00391118 -0.11821701 0.034981895
  vertex 0.0039278306 -0.125091 0.022593899
  vertex 0.013819601 -0.119368 0.030523898
  endloop
 endfacet

 facet normal 0 0 0
  outer loop
  vertex 0.032315701 -0.085448503 0.0399413
  vertex 0.0226619 -0.10751 0.040511895
  vertex 0.033283599 -0.10729101 0.032545995
  endloop
 endfacet

 facet normal 0 0 0
  outer loop
  vertex 0.032315701 -0.085448503 0.0399413
  vertex 0.033283599 -0.10729101 0.032545995
  vertex 0.040593803 -0.064405702 0.037126899
  endloop
 endfacet

 facet normal 0 0 0
  outer loop
  vertex 0.032315701 -0.085448503 0.0399413
  vertex 0.040593803 -0.064405702 0.037126899
  vertex 0.032857899 -0.0643268 0.044151198
  endloop
 endfacet

 facet normal 0 0 0
  outer loop
  vertex 0.032315701 -0.085448503 0.0399413
  vertex 0.032857899 -0.0643268 0.044151198
  vertex 0.024035601 -0.064733699 0.049545895
  endloop
 endfacet

 facet normal 0 0 0
  outer loop
  vertex 0.032315701 -0.085448503 0.0399413
  vertex 0.024035601 -0.064733699 0.049545895
  vertex 0.0226619 -0.10751 0.040511895
  endloop
 endfacet

 facet normal 0 0 0
  outer loop
  vertex 0.008944571 0.054261599 -0.12622498
  vertex 0.017598202 0.0521884 -0.12665498
  vertex 0.0122025 0.0537025 -0.192
  endloop
 endfacet

 facet normal 0 0 0
  outer loop
  vertex 0.0122025 0.0537025 -0.192
  vertex -0.00035502401 0.055192303 -0.192
  vertex 0.00019801201 0.054921001 -0.12517798
  endloop
 endfacet

 facet normal 0 0 0
  outer loop
  vertex 0.0122025 0.0537025 -0.192
  vertex 0.00019801201 0.054921001 -0.12517798
  vertex 0.008944571 0.054261599 -0.12622498
  endloop
 endfacet

 facet normal 0 0 0
  outer loop
  vertex 0.008944571 0.054261599 -0.12622498
  vertex 0.00019801201 0.054921001 -0.12517798
  vertex 0.012127501 -0.00050359109 0.053903401
  endloop
 endfacet

 facet normal 0 0 0
  outer loop
  vertex 0.008944571 0.054261599 -0.12622498
  vertex 0.012127501 -0.00050359109 0.053903401
  vertex 0.032228705 -0.00046813101 0.045079395
  endloop
 endfacet

endsolidAssimpScene
