solid AssimpScene
 facet normal 0 0 0
  outer loop
  vertex 0.083501004 -0.051192004 -0.044242002
  vertex 0.13230899 -0.051199004 -0.00047400003
  vertex 0.067002997 -0.051208999 0.0392
  endloop
 endfacet

 facet normal 0 0 0
  outer loop
  vertex 0.083501004 -0.051192004 -0.044242002
  vertex 0.067002997 -0.051208999 0.0392
  vertex 0.051048998 -0.051197998 -0.024367003
  endloop
 endfacet

 facet normal 0 0 0
  outer loop
  vertex -0.046822 0.012491 -0.014800001
  vertex 0.083501004 -0.051192004 -0.044242002
  vertex -0.047169 -0.0098409997 -0.014800001
  endloop
 endfacet

 facet normal 0 0 0
  outer loop
  vertex -0.046822 0.012491 -0.014800001
  vertex -0.047169 -0.0098409997 -0.014800001
  vertex -0.047921997 0.001071 -0.0052999998
  endloop
 endfacet

 facet normal 0 0 0
  outer loop
  vertex 0.125677 -0.051192004 0.023244999
  vertex 0.10936499 -0.051194999 0.039420001
  vertex 0.13230899 -0.051199004 -0.00047400003
  endloop
 endfacet

 facet normal 0 0 0
  outer loop
  vertex -0.038993999 -0.028524 -0.014800001
  vertex -0.047169 -0.0098409997 -0.014800001
  vertex 0.083501004 -0.051192004 -0.044242002
  endloop
 endfacet

 facet normal 0 0 0
  outer loop
  vertex -0.038993999 -0.028524 -0.014800001
  vertex 0.083501004 -0.051192004 -0.044242002
  vertex -0.022260997 -0.042877998 -0.014800001
  endloop
 endfacet

 facet normal 0 0 0
  outer loop
  vertex 0.102775 -0.051187001 -0.041820001
  vertex 0.120428 -0.051176999 -0.030244
  vertex 0.13230899 -0.051199004 -0.00047400003
  endloop
 endfacet

 facet normal 0 0 0
  outer loop
  vertex 0.102775 -0.051187001 -0.041820001
  vertex 0.13230899 -0.051199004 -0.00047400003
  vertex 0.083501004 -0.051192004 -0.044242002
  endloop
 endfacet

 facet normal 0 0 0
  outer loop
  vertex 0.074774995 0.020891001 -0.041469004
  vertex 0.083501004 -0.051192004 -0.044242002
  vertex -0.046822 0.012491 -0.014800001
  endloop
 endfacet

 facet normal 0 0 0
  outer loop
  vertex 0.09787 0.018824002 0.042571999
  vertex 0.047829997 0.012134001 0.054322999
  vertex 0.10936499 -0.051194999 0.039420001
  endloop
 endfacet

 facet normal 0 0 0
  outer loop
  vertex 0.020645998 -0.023619 0.056396
  vertex -0.0052359998 -0.024111999 0.054450002
  vertex 0.087027989 -0.051176999 0.044297002
  endloop
 endfacet

 facet normal 0 0 0
  outer loop
  vertex 0.020645998 -0.023619 0.056396
  vertex 0.001805 0.024967 0.055447005
  vertex -0.0052359998 -0.024111999 0.054450002
  endloop
 endfacet

 facet normal 0 0 0
  outer loop
  vertex 0.072701 0.073786996 -0.033425
  vertex -0.031287 0.037503004 -0.014800001
  vertex 0.062494997 0.077393003 -0.025123002
  endloop
 endfacet

 facet normal 0 0 0
  outer loop
  vertex -0.047549997 0.001929 0.028294001
  vertex -0.044590995 -0.015976001 0.028567001
  vertex -0.040872995 -0.007247 0.037333
  endloop
 endfacet

 facet normal 0 0 0
  outer loop
  vertex -0.047549997 0.001929 0.028294001
  vertex -0.046822 0.012491 -0.014800001
  vertex -0.047921997 0.001071 -0.0052999998
  endloop
 endfacet

 facet normal 0 0 0
  outer loop
  vertex -0.031488001 -0.023644 0.039709002
  vertex -0.040872995 -0.007247 0.037333
  vertex -0.044590995 -0.015976001 0.028567001
  endloop
 endfacet

 facet normal 0 0 0
  outer loop
  vertex -0.0037279997 -0.047978003 -0.014800001
  vertex -0.011721 -0.046151999 0.021443002
  vertex -0.022260997 -0.042877998 -0.014800001
  endloop
 endfacet

 facet normal 0 0 0
  outer loop
  vertex -0.0037279997 -0.047978003 -0.014800001
  vertex -0.022260997 -0.042877998 -0.014800001
  vertex 0.083501004 -0.051192004 -0.044242002
  endloop
 endfacet

 facet normal 0 0 0
  outer loop
  vertex -0.033057999 -0.033032 0.029927
  vertex -0.023545999 -0.038272005 0.032985002
  vertex -0.031488001 -0.023644 0.039709002
  endloop
 endfacet

 facet normal 0 0 0
  outer loop
  vertex -0.033057999 -0.033032 0.029927
  vertex -0.031488001 -0.023644 0.039709002
  vertex -0.044590995 -0.015976001 0.028567001
  endloop
 endfacet

 facet normal 0 0 0
  outer loop
  vertex 0.129823 0.038743004 0.0061790003
  vertex 0.12654698 0.057068005 -0.00030499999
  vertex 0.125247 0.055241 0.013096
  endloop
 endfacet

 facet normal 0 0 0
  outer loop
  vertex 0.129823 0.038743004 0.0061790003
  vertex 0.125247 0.055241 0.013096
  vertex 0.125654 0.031189002 0.020895001
  endloop
 endfacet

 facet normal 0 0 0
  outer loop
  vertex 0.086075999 0.010664 -0.04397
  vertex 0.083501004 -0.051192004 -0.044242002
  vertex 0.074774995 0.020891001 -0.041469004
  endloop
 endfacet

 facet normal 0 0 0
  outer loop
  vertex 0.10558499 0.075040005 0.012318001
  vertex 0.11035499 0.069049999 0.025603002
  vertex 0.11808499 0.067630999 0.013054
  endloop
 endfacet

 facet normal 0 0 0
  outer loop
  vertex 0.10558499 0.075040005 0.012318001
  vertex 0.110796 0.072474003 -0.016169
  vertex 0.087076001 0.077789009 -0.025915002
  endloop
 endfacet

 facet normal 0 0 0
  outer loop
  vertex 0.12522601 -0.050680004 -0.024634002
  vertex 0.120428 -0.051176999 -0.030244
  vertex 0.12272 0.025126999 -0.026782
  endloop
 endfacet

 facet normal 0 0 0
  outer loop
  vertex 0.12522601 -0.050680004 -0.024634002
  vertex 0.12272 0.025126999 -0.026782
  vertex 0.130335 0.020509001 -0.011013
  endloop
 endfacet

 facet normal 0 0 0
  outer loop
  vertex 0.12522601 -0.050680004 -0.024634002
  vertex 0.13230899 -0.051199004 -0.00047400003
  vertex 0.120428 -0.051176999 -0.030244
  endloop
 endfacet

 facet normal 0 0 0
  outer loop
  vertex -0.014612999 0.020235002 0.052859001
  vertex -0.021483 0.012055 0.051205002
  vertex -0.017434997 -0.017780002 0.052196998
  endloop
 endfacet

 facet normal 0 0 0
  outer loop
  vertex -0.014612999 0.020235002 0.052859001
  vertex -0.017434997 -0.017780002 0.052196998
  vertex -0.0052359998 -0.024111999 0.054450002
  endloop
 endfacet

 facet normal 0 0 0
  outer loop
  vertex -0.014612999 0.020235002 0.052859001
  vertex -0.0052359998 -0.024111999 0.054450002
  vertex 0.001805 0.024967 0.055447005
  endloop
 endfacet

 facet normal 0 0 0
  outer loop
  vertex 0.071181998 0.081059001 0.01166
  vertex 0.089705996 0.07705301 0.025916001
  vertex 0.10558499 0.075040005 0.012318001
  endloop
 endfacet

 facet normal 0 0 0
  outer loop
  vertex 0.037916999 0.019863002 0.055675
  vertex 0.001805 0.024967 0.055447005
  vertex 0.020645998 -0.023619 0.056396
  endloop
 endfacet

 facet normal 0 0 0
  outer loop
  vertex 0.037916999 0.019863002 0.055675
  vertex 0.047829997 0.012134001 0.054322999
  vertex 0.09787 0.018824002 0.042571999
  endloop
 endfacet

 facet normal 0 0 0
  outer loop
  vertex 0.037916999 0.019863002 0.055675
  vertex 0.090980992 0.071027011 0.036318999
  vertex 0.001805 0.024967 0.055447005
  endloop
 endfacet

 facet normal 0 0 0
  outer loop
  vertex 0.086388998 0.049511001 -0.040874004
  vertex 0.086075999 0.010664 -0.04397
  vertex 0.074774995 0.020891001 -0.041469004
  endloop
 endfacet

 facet normal 0 0 0
  outer loop
  vertex 0.119613 0.049988002 0.025947001
  vertex 0.11755499 0.036554001 0.030909002
  vertex 0.125654 0.031189002 0.020895001
  endloop
 endfacet

 facet normal 0 0 0
  outer loop
  vertex 0.119613 0.049988002 0.025947001
  vertex 0.125654 0.031189002 0.020895001
  vertex 0.125247 0.055241 0.013096
  endloop
 endfacet

 facet normal 0 0 0
  outer loop
  vertex -0.033009 0.011986 0.043234002
  vertex -0.021483 0.012055 0.051205002
  vertex -0.014612999 0.020235002 0.052859001
  endloop
 endfacet

 facet normal 0 0 0
  outer loop
  vertex -0.033009 0.011986 0.043234002
  vertex -0.014612999 0.020235002 0.052859001
  vertex -0.031070998 0.024459001 0.039339002
  endloop
 endfacet

 facet normal 0 0 0
  outer loop
  vertex 0.131212 -0.0077300002 0.0099919997
  vertex 0.129823 0.038743004 0.0061790003
  vertex 0.125654 0.031189002 0.020895001
  endloop
 endfacet

 facet normal 0 0 0
  outer loop
  vertex 0.131212 -0.0077300002 0.0099919997
  vertex 0.125654 0.031189002 0.020895001
  vertex 0.125677 -0.051192004 0.023244999
  endloop
 endfacet

 facet normal 0 0 0
  outer loop
  vertex -0.018211998 0.032660998 0.042360999
  vertex -0.026340999 0.036818001 0.031998001
  vertex -0.031070998 0.024459001 0.039339002
  endloop
 endfacet

 facet normal 0 0 0
  outer loop
  vertex -0.018211998 0.032660998 0.042360999
  vertex -0.031070998 0.024459001 0.039339002
  vertex -0.014612999 0.020235002 0.052859001
  endloop
 endfacet

 facet normal 0 0 0
  outer loop
  vertex -0.018211998 0.032660998 0.042360999
  vertex -0.014612999 0.020235002 0.052859001
  vertex 0.001805 0.024967 0.055447005
  endloop
 endfacet

 facet normal 0 0 0
  outer loop
  vertex -0.018211998 0.032660998 0.042360999
  vertex 0.001805 0.024967 0.055447005
  vertex 0.068723992 0.07621 0.030498
  endloop
 endfacet

 facet normal 0 0 0
  outer loop
  vertex 0.12773401 0.051403999 -0.0066559999
  vertex 0.12063799 0.063790001 -0.014995001
  vertex 0.12654698 0.057068005 -0.00030499999
  endloop
 endfacet

 facet normal 0 0 0
  outer loop
  vertex -0.026300998 -0.039832 0.021243
  vertex -0.023545999 -0.038272005 0.032985002
  vertex -0.033057999 -0.033032 0.029927
  endloop
 endfacet

 facet normal 0 0 0
  outer loop
  vertex -0.026300998 -0.039832 0.021243
  vertex -0.022260997 -0.042877998 -0.014800001
  vertex -0.011721 -0.046151999 0.021443002
  endloop
 endfacet

 facet normal 0 0 0
  outer loop
  vertex -0.025129998 -0.0015270001 0.050250005
  vertex -0.017434997 -0.017780002 0.052196998
  vertex -0.021483 0.012055 0.051205002
  endloop
 endfacet

 facet normal 0 0 0
  outer loop
  vertex -0.025129998 -0.0015270001 0.050250005
  vertex -0.021483 0.012055 0.051205002
  vertex -0.033009 0.011986 0.043234002
  endloop
 endfacet

 facet normal 0 0 0
  outer loop
  vertex -0.025129998 -0.0015270001 0.050250005
  vertex -0.033009 0.011986 0.043234002
  vertex -0.040872995 -0.007247 0.037333
  endloop
 endfacet

 facet normal 0 0 0
  outer loop
  vertex -0.025429999 0.041243002 0.0037990001
  vertex 0.053264998 0.079908997 0.00010200001
  vertex -0.031287 0.037503004 -0.014800001
  endloop
 endfacet

 facet normal 0 0 0
  outer loop
  vertex 0.13196 -0.050900001 0.007218
  vertex 0.131212 -0.0077300002 0.0099919997
  vertex 0.125677 -0.051192004 0.023244999
  endloop
 endfacet

 facet normal 0 0 0
  outer loop
  vertex 0.13196 -0.050900001 0.007218
  vertex 0.125677 -0.051192004 0.023244999
  vertex 0.13230899 -0.051199004 -0.00047400003
  endloop
 endfacet

 facet normal 0 0 0
  outer loop
  vertex 0.043097001 -0.017576002 0.054983001
  vertex 0.047829997 0.012134001 0.054322999
  vertex 0.037916999 0.019863002 0.055675
  endloop
 endfacet

 facet normal 0 0 0
  outer loop
  vertex 0.043097001 -0.017576002 0.054983001
  vertex 0.037916999 0.019863002 0.055675
  vertex 0.020645998 -0.023619 0.056396
  endloop
 endfacet

 facet normal 0 0 0
  outer loop
  vertex 0.043097001 -0.017576002 0.054983001
  vertex 0.020645998 -0.023619 0.056396
  vertex 0.087027989 -0.051176999 0.044297002
  endloop
 endfacet

 facet normal 0 0 0
  outer loop
  vertex 0.043097001 -0.017576002 0.054983001
  vertex 0.087027989 -0.051176999 0.044297002
  vertex 0.10936499 -0.051194999 0.039420001
  endloop
 endfacet

 facet normal 0 0 0
  outer loop
  vertex 0.043097001 -0.017576002 0.054983001
  vertex 0.10936499 -0.051194999 0.039420001
  vertex 0.047829997 0.012134001 0.054322999
  endloop
 endfacet

 facet normal 0 0 0
  outer loop
  vertex 0.076375999 0.071276002 0.036524002
  vertex 0.068723992 0.07621 0.030498
  vertex 0.001805 0.024967 0.055447005
  endloop
 endfacet

 facet normal 0 0 0
  outer loop
  vertex 0.076375999 0.071276002 0.036524002
  vertex 0.001805 0.024967 0.055447005
  vertex 0.090980992 0.071027011 0.036318999
  endloop
 endfacet

 facet normal 0 0 0
  outer loop
  vertex 0.075352997 0.078916997 0.026307
  vertex 0.089705996 0.07705301 0.025916001
  vertex 0.071181998 0.081059001 0.01166
  endloop
 endfacet

 facet normal 0 0 0
  outer loop
  vertex 0.075352997 0.078916997 0.026307
  vertex 0.062190998 0.078234002 0.022453003
  vertex 0.068723992 0.07621 0.030498
  endloop
 endfacet

 facet normal 0 0 0
  outer loop
  vertex 0.115123 0.017291 -0.034538001
  vertex 0.12272 0.025126999 -0.026782
  vertex 0.120428 -0.051176999 -0.030244
  endloop
 endfacet

 facet normal 0 0 0
  outer loop
  vertex 0.115123 0.017291 -0.034538001
  vertex 0.120428 -0.051176999 -0.030244
  vertex 0.102775 -0.051187001 -0.041820001
  endloop
 endfacet

 facet normal 0 0 0
  outer loop
  vertex 0.115123 0.017291 -0.034538001
  vertex 0.102775 -0.051187001 -0.041820001
  vertex 0.105497 0.031037999 -0.039176002
  endloop
 endfacet

 facet normal 0 0 0
  outer loop
  vertex -0.016213998 -0.034672003 0.041861005
  vertex -0.0065720002 -0.044117 0.032931
  vertex 0.087027989 -0.051176999 0.044297002
  endloop
 endfacet

 facet normal 0 0 0
  outer loop
  vertex -0.016213998 -0.034672003 0.041861005
  vertex 0.087027989 -0.051176999 0.044297002
  vertex -0.0052359998 -0.024111999 0.054450002
  endloop
 endfacet

 facet normal 0 0 0
  outer loop
  vertex -0.016213998 -0.034672003 0.041861005
  vertex -0.0052359998 -0.024111999 0.054450002
  vertex -0.017434997 -0.017780002 0.052196998
  endloop
 endfacet

 facet normal 0 0 0
  outer loop
  vertex -0.016213998 -0.034672003 0.041861005
  vertex -0.017434997 -0.017780002 0.052196998
  vertex -0.031488001 -0.023644 0.039709002
  endloop
 endfacet

 facet normal 0 0 0
  outer loop
  vertex -0.016213998 -0.034672003 0.041861005
  vertex -0.031488001 -0.023644 0.039709002
  vertex -0.023545999 -0.038272005 0.032985002
  endloop
 endfacet

 facet normal 0 0 0
  outer loop
  vertex -0.032242998 0.033550002 0.030015999
  vertex -0.037905995 0.028948 0.020793002
  vertex -0.043700997 0.018033 0.028665001
  endloop
 endfacet

 facet normal 0 0 0
  outer loop
  vertex -0.032242998 0.033550002 0.030015999
  vertex -0.043700997 0.018033 0.028665001
  vertex -0.031070998 0.024459001 0.039339002
  endloop
 endfacet

 facet normal 0 0 0
  outer loop
  vertex -0.032242998 0.033550002 0.030015999
  vertex -0.031070998 0.024459001 0.039339002
  vertex -0.026340999 0.036818001 0.031998001
  endloop
 endfacet

 facet normal 0 0 0
  outer loop
  vertex 0.111079 0.048916001 -0.033993002
  vertex 0.10262699 0.068852998 -0.032857999
  vertex 0.11378299 0.064158998 -0.026076002
  endloop
 endfacet

 facet normal 0 0 0
  outer loop
  vertex 0.111079 0.048916001 -0.033993002
  vertex 0.11378299 0.064158998 -0.026076002
  vertex 0.117792 0.051810998 -0.0276
  endloop
 endfacet

 facet normal 0 0 0
  outer loop
  vertex 0.111079 0.048916001 -0.033993002
  vertex 0.117792 0.051810998 -0.0276
  vertex 0.12272 0.025126999 -0.026782
  endloop
 endfacet

 facet normal 0 0 0
  outer loop
  vertex 0.111079 0.048916001 -0.033993002
  vertex 0.12272 0.025126999 -0.026782
  vertex 0.115123 0.017291 -0.034538001
  endloop
 endfacet

 facet normal 0 0 0
  outer loop
  vertex 0.111079 0.048916001 -0.033993002
  vertex 0.115123 0.017291 -0.034538001
  vertex 0.105497 0.031037999 -0.039176002
  endloop
 endfacet

 facet normal 0 0 0
  outer loop
  vertex 0.11065499 0.019754 0.037397999
  vertex 0.11755499 0.036554001 0.030909002
  vertex 0.10609899 0.046076 0.037090998
  endloop
 endfacet

 facet normal 0 0 0
  outer loop
  vertex 0.11065499 0.019754 0.037397999
  vertex 0.10609899 0.046076 0.037090998
  vertex 0.09787 0.018824002 0.042571999
  endloop
 endfacet

 facet normal 0 0 0
  outer loop
  vertex 0.11065499 0.019754 0.037397999
  vertex 0.09787 0.018824002 0.042571999
  vertex 0.10936499 -0.051194999 0.039420001
  endloop
 endfacet

 facet normal 0 0 0
  outer loop
  vertex 0.109449 0.065364003 0.030169999
  vertex 0.10074899 0.066207998 0.035198003
  vertex 0.10609899 0.046076 0.037090998
  endloop
 endfacet

 facet normal 0 0 0
  outer loop
  vertex 0.109449 0.065364003 0.030169999
  vertex 0.10609899 0.046076 0.037090998
  vertex 0.11755499 0.036554001 0.030909002
  endloop
 endfacet

 facet normal 0 0 0
  outer loop
  vertex 0.109449 0.065364003 0.030169999
  vertex 0.11755499 0.036554001 0.030909002
  vertex 0.119613 0.049988002 0.025947001
  endloop
 endfacet

 facet normal 0 0 0
  outer loop
  vertex -0.044808 0.019319002 0.0038000003
  vertex -0.043700997 0.018033 0.028665001
  vertex -0.037905995 0.028948 0.020793002
  endloop
 endfacet

 facet normal 0 0 0
  outer loop
  vertex -0.044808 0.019319002 0.0038000003
  vertex -0.037905995 0.028948 0.020793002
  vertex -0.031287 0.037503004 -0.014800001
  endloop
 endfacet

 facet normal 0 0 0
  outer loop
  vertex -0.044808 0.019319002 0.0038000003
  vertex -0.031287 0.037503004 -0.014800001
  vertex -0.046822 0.012491 -0.014800001
  endloop
 endfacet

 facet normal 0 0 0
  outer loop
  vertex -0.044808 0.019319002 0.0038000003
  vertex -0.046822 0.012491 -0.014800001
  vertex -0.047549997 0.001929 0.028294001
  endloop
 endfacet

 facet normal 0 0 0
  outer loop
  vertex -0.044808 0.019319002 0.0038000003
  vertex -0.047549997 0.001929 0.028294001
  vertex -0.043700997 0.018033 0.028665001
  endloop
 endfacet

 facet normal 0 0 0
  outer loop
  vertex 0.082556002 0.073132001 -0.035845
  vertex 0.092697993 0.070203997 -0.036386002
  vertex 0.086388998 0.049511001 -0.040874004
  endloop
 endfacet

 facet normal 0 0 0
  outer loop
  vertex 0.082556002 0.073132001 -0.035845
  vertex 0.087076001 0.077789009 -0.025915002
  vertex 0.092697993 0.070203997 -0.036386002
  endloop
 endfacet

 facet normal 0 0 0
  outer loop
  vertex 0.125378 0.040385999 -0.019083999
  vertex 0.12773401 0.051403999 -0.0066559999
  vertex 0.130335 0.020509001 -0.011013
  endloop
 endfacet

 facet normal 0 0 0
  outer loop
  vertex 0.125378 0.040385999 -0.019083999
  vertex 0.130335 0.020509001 -0.011013
  vertex 0.12272 0.025126999 -0.026782
  endloop
 endfacet

 facet normal 0 0 0
  outer loop
  vertex 0.125378 0.040385999 -0.019083999
  vertex 0.12272 0.025126999 -0.026782
  vertex 0.117792 0.051810998 -0.0276
  endloop
 endfacet

 facet normal 0 0 0
  outer loop
  vertex -0.036061 -0.032857001 0.0038000003
  vertex -0.038993999 -0.028524 -0.014800001
  vertex -0.022260997 -0.042877998 -0.014800001
  endloop
 endfacet

 facet normal 0 0 0
  outer loop
  vertex -0.036061 -0.032857001 0.0038000003
  vertex -0.022260997 -0.042877998 -0.014800001
  vertex -0.026300998 -0.039832 0.021243
  endloop
 endfacet

 facet normal 0 0 0
  outer loop
  vertex -0.036061 -0.032857001 0.0038000003
  vertex -0.026300998 -0.039832 0.021243
  vertex -0.033057999 -0.033032 0.029927
  endloop
 endfacet

 facet normal 0 0 0
  outer loop
  vertex 0.096202992 0.022127001 -0.042787999
  vertex 0.086075999 0.010664 -0.04397
  vertex 0.086388998 0.049511001 -0.040874004
  endloop
 endfacet

 facet normal 0 0 0
  outer loop
  vertex 0.096202992 0.022127001 -0.042787999
  vertex 0.105497 0.031037999 -0.039176002
  vertex 0.102775 -0.051187001 -0.041820001
  endloop
 endfacet

 facet normal 0 0 0
  outer loop
  vertex 0.096202992 0.022127001 -0.042787999
  vertex 0.102775 -0.051187001 -0.041820001
  vertex 0.083501004 -0.051192004 -0.044242002
  endloop
 endfacet

 facet normal 0 0 0
  outer loop
  vertex 0.096202992 0.022127001 -0.042787999
  vertex 0.083501004 -0.051192004 -0.044242002
  vertex 0.086075999 0.010664 -0.04397
  endloop
 endfacet

 facet normal 0 0 0
  outer loop
  vertex -0.016585 0.044428002 0.021725999
  vertex 0.053264998 0.079908997 0.00010200001
  vertex -0.025429999 0.041243002 0.0037990001
  endloop
 endfacet

 facet normal 0 0 0
  outer loop
  vertex -0.016585 0.044428002 0.021725999
  vertex 0.054919999 0.078674003 0.013983
  vertex 0.053264998 0.079908997 0.00010200001
  endloop
 endfacet

 facet normal 0 0 0
  outer loop
  vertex 0.120722 0.013595 0.029638002
  vertex 0.10936499 -0.051194999 0.039420001
  vertex 0.125677 -0.051192004 0.023244999
  endloop
 endfacet

 facet normal 0 0 0
  outer loop
  vertex 0.120722 0.013595 0.029638002
  vertex 0.125677 -0.051192004 0.023244999
  vertex 0.125654 0.031189002 0.020895001
  endloop
 endfacet

 facet normal 0 0 0
  outer loop
  vertex 0.120722 0.013595 0.029638002
  vertex 0.125654 0.031189002 0.020895001
  vertex 0.11755499 0.036554001 0.030909002
  endloop
 endfacet

 facet normal 0 0 0
  outer loop
  vertex 0.120722 0.013595 0.029638002
  vertex 0.11755499 0.036554001 0.030909002
  vertex 0.11065499 0.019754 0.037397999
  endloop
 endfacet

 facet normal 0 0 0
  outer loop
  vertex 0.120722 0.013595 0.029638002
  vertex 0.11065499 0.019754 0.037397999
  vertex 0.10936499 -0.051194999 0.039420001
  endloop
 endfacet

 facet normal 0 0 0
  outer loop
  vertex 0.11699599 0.065737002 0.019724
  vertex 0.11808499 0.067630999 0.013054
  vertex 0.11035499 0.069049999 0.025603002
  endloop
 endfacet

 facet normal 0 0 0
  outer loop
  vertex 0.11699599 0.065737002 0.019724
  vertex 0.11035499 0.069049999 0.025603002
  vertex 0.109449 0.065364003 0.030169999
  endloop
 endfacet

 facet normal 0 0 0
  outer loop
  vertex 0.11699599 0.065737002 0.019724
  vertex 0.109449 0.065364003 0.030169999
  vertex 0.119613 0.049988002 0.025947001
  endloop
 endfacet

 facet normal 0 0 0
  outer loop
  vertex 0.11699599 0.065737002 0.019724
  vertex 0.119613 0.049988002 0.025947001
  vertex 0.125247 0.055241 0.013096
  endloop
 endfacet

 facet normal 0 0 0
  outer loop
  vertex 0.132276 -0.0075409999 -0.00032400002
  vertex 0.129823 0.038743004 0.0061790003
  vertex 0.131212 -0.0077300002 0.0099919997
  endloop
 endfacet

 facet normal 0 0 0
  outer loop
  vertex 0.132276 -0.0075409999 -0.00032400002
  vertex 0.131212 -0.0077300002 0.0099919997
  vertex 0.13196 -0.050900001 0.007218
  endloop
 endfacet

 facet normal 0 0 0
  outer loop
  vertex 0.132276 -0.0075409999 -0.00032400002
  vertex 0.13196 -0.050900001 0.007218
  vertex 0.13230899 -0.051199004 -0.00047400003
  endloop
 endfacet

 facet normal 0 0 0
  outer loop
  vertex 0.132276 -0.0075409999 -0.00032400002
  vertex 0.13230899 -0.051199004 -0.00047400003
  vertex 0.130335 0.020509001 -0.011013
  endloop
 endfacet

 facet normal 0 0 0
  outer loop
  vertex 0.12993 -0.046257 -0.012841001
  vertex 0.13230899 -0.051199004 -0.00047400003
  vertex 0.12522601 -0.050680004 -0.024634002
  endloop
 endfacet

 facet normal 0 0 0
  outer loop
  vertex 0.12993 -0.046257 -0.012841001
  vertex 0.12522601 -0.050680004 -0.024634002
  vertex 0.130335 0.020509001 -0.011013
  endloop
 endfacet

 facet normal 0 0 0
  outer loop
  vertex 0.12993 -0.046257 -0.012841001
  vertex 0.130335 0.020509001 -0.011013
  vertex 0.13230899 -0.051199004 -0.00047400003
  endloop
 endfacet

 facet normal 0 0 0
  outer loop
  vertex -4.1999996e-05 -0.048741002 0.0037000002
  vertex 0.043017995 -0.051199004 0.00070500007
  vertex 0.052524995 -0.051199004 0.026381999
  endloop
 endfacet

 facet normal 0 0 0
  outer loop
  vertex -4.1999996e-05 -0.048741002 0.0037000002
  vertex 0.052524995 -0.051199004 0.026381999
  vertex -0.011721 -0.046151999 0.021443002
  endloop
 endfacet

 facet normal 0 0 0
  outer loop
  vertex -4.1999996e-05 -0.048741002 0.0037000002
  vertex -0.011721 -0.046151999 0.021443002
  vertex -0.0037279997 -0.047978003 -0.014800001
  endloop
 endfacet

 facet normal 0 0 0
  outer loop
  vertex 0.11989499 0.066091001 -0.010928001
  vertex 0.12654698 0.057068005 -0.00030499999
  vertex 0.12063799 0.063790001 -0.014995001
  endloop
 endfacet

 facet normal 0 0 0
  outer loop
  vertex 0.099108994 0.062371999 -0.036756001
  vertex 0.092697993 0.070203997 -0.036386002
  vertex 0.10262699 0.068852998 -0.032857999
  endloop
 endfacet

 facet normal 0 0 0
  outer loop
  vertex 0.099108994 0.062371999 -0.036756001
  vertex 0.10262699 0.068852998 -0.032857999
  vertex 0.111079 0.048916001 -0.033993002
  endloop
 endfacet

 facet normal 0 0 0
  outer loop
  vertex 0.099108994 0.062371999 -0.036756001
  vertex 0.111079 0.048916001 -0.033993002
  vertex 0.105497 0.031037999 -0.039176002
  endloop
 endfacet

 facet normal 0 0 0
  outer loop
  vertex 0.099108994 0.062371999 -0.036756001
  vertex 0.105497 0.031037999 -0.039176002
  vertex 0.096202992 0.022127001 -0.042787999
  endloop
 endfacet

 facet normal 0 0 0
  outer loop
  vertex 0.099108994 0.062371999 -0.036756001
  vertex 0.096202992 0.022127001 -0.042787999
  vertex 0.086388998 0.049511001 -0.040874004
  endloop
 endfacet

 facet normal 0 0 0
  outer loop
  vertex 0.099108994 0.062371999 -0.036756001
  vertex 0.086388998 0.049511001 -0.040874004
  vertex 0.092697993 0.070203997 -0.036386002
  endloop
 endfacet

 facet normal 0 0 0
  outer loop
  vertex 0.122579 0.058508005 -0.016604001
  vertex 0.12063799 0.063790001 -0.014995001
  vertex 0.12773401 0.051403999 -0.0066559999
  endloop
 endfacet

 facet normal 0 0 0
  outer loop
  vertex 0.122579 0.058508005 -0.016604001
  vertex 0.12773401 0.051403999 -0.0066559999
  vertex 0.125378 0.040385999 -0.019083999
  endloop
 endfacet

 facet normal 0 0 0
  outer loop
  vertex 0.122579 0.058508005 -0.016604001
  vertex 0.125378 0.040385999 -0.019083999
  vertex 0.117792 0.051810998 -0.0276
  endloop
 endfacet

 facet normal 0 0 0
  outer loop
  vertex 0.122579 0.058508005 -0.016604001
  vertex 0.117792 0.051810998 -0.0276
  vertex 0.11378299 0.064158998 -0.026076002
  endloop
 endfacet

 facet normal 0 0 0
  outer loop
  vertex 0.122579 0.058508005 -0.016604001
  vertex 0.11378299 0.064158998 -0.026076002
  vertex 0.12063799 0.063790001 -0.014995001
  endloop
 endfacet

 facet normal 0 0 0
  outer loop
  vertex -0.040796999 0.015052 0.034630001
  vertex -0.047549997 0.001929 0.028294001
  vertex -0.040872995 -0.007247 0.037333
  endloop
 endfacet

 facet normal 0 0 0
  outer loop
  vertex -0.040796999 0.015052 0.034630001
  vertex -0.040872995 -0.007247 0.037333
  vertex -0.033009 0.011986 0.043234002
  endloop
 endfacet

 facet normal 0 0 0
  outer loop
  vertex -0.040796999 0.015052 0.034630001
  vertex -0.033009 0.011986 0.043234002
  vertex -0.031070998 0.024459001 0.039339002
  endloop
 endfacet

 facet normal 0 0 0
  outer loop
  vertex -0.040796999 0.015052 0.034630001
  vertex -0.031070998 0.024459001 0.039339002
  vertex -0.043700997 0.018033 0.028665001
  endloop
 endfacet

 facet normal 0 0 0
  outer loop
  vertex -0.040796999 0.015052 0.034630001
  vertex -0.043700997 0.018033 0.028665001
  vertex -0.047549997 0.001929 0.028294001
  endloop
 endfacet

 facet normal 0 0 0
  outer loop
  vertex 0.102587 0.072678998 -0.026448
  vertex 0.10262699 0.068852998 -0.032857999
  vertex 0.092697993 0.070203997 -0.036386002
  endloop
 endfacet

 facet normal 0 0 0
  outer loop
  vertex 0.102587 0.072678998 -0.026448
  vertex 0.092697993 0.070203997 -0.036386002
  vertex 0.087076001 0.077789009 -0.025915002
  endloop
 endfacet

 facet normal 0 0 0
  outer loop
  vertex 0.102587 0.072678998 -0.026448
  vertex 0.087076001 0.077789009 -0.025915002
  vertex 0.110796 0.072474003 -0.016169
  endloop
 endfacet

 facet normal 0 0 0
  outer loop
  vertex 0.057316996 0.078723997 -0.016641
  vertex 0.058828 0.080830999 -0.0080630006
  vertex 0.064534999 0.080580004 -0.016623
  endloop
 endfacet

 facet normal 0 0 0
  outer loop
  vertex 0.057316996 0.078723997 -0.016641
  vertex 0.064534999 0.080580004 -0.016623
  vertex 0.062494997 0.077393003 -0.025123002
  endloop
 endfacet

 facet normal 0 0 0
  outer loop
  vertex 0.057316996 0.078723997 -0.016641
  vertex 0.062494997 0.077393003 -0.025123002
  vertex -0.031287 0.037503004 -0.014800001
  endloop
 endfacet

 facet normal 0 0 0
  outer loop
  vertex 0.057316996 0.078723997 -0.016641
  vertex -0.031287 0.037503004 -0.014800001
  vertex 0.053264998 0.079908997 0.00010200001
  endloop
 endfacet

 facet normal 0 0 0
  outer loop
  vertex 0.057316996 0.078723997 -0.016641
  vertex 0.053264998 0.079908997 0.00010200001
  vertex 0.058828 0.080830999 -0.0080630006
  endloop
 endfacet

 facet normal 0 0 0
  outer loop
  vertex -0.032577999 -0.012664001 0.043400001
  vertex -0.031488001 -0.023644 0.039709002
  vertex -0.017434997 -0.017780002 0.052196998
  endloop
 endfacet

 facet normal 0 0 0
  outer loop
  vertex -0.032577999 -0.012664001 0.043400001
  vertex -0.017434997 -0.017780002 0.052196998
  vertex -0.025129998 -0.0015270001 0.050250005
  endloop
 endfacet

 facet normal 0 0 0
  outer loop
  vertex -0.032577999 -0.012664001 0.043400001
  vertex -0.025129998 -0.0015270001 0.050250005
  vertex -0.040872995 -0.007247 0.037333
  endloop
 endfacet

 facet normal 0 0 0
  outer loop
  vertex -0.032577999 -0.012664001 0.043400001
  vertex -0.040872995 -0.007247 0.037333
  vertex -0.031488001 -0.023644 0.039709002
  endloop
 endfacet

 facet normal 0 0 0
  outer loop
  vertex -0.020816 0.040564001 0.031305
  vertex 0.062190998 0.078234002 0.022453003
  vertex 0.054919999 0.078674003 0.013983
  endloop
 endfacet

 facet normal 0 0 0
  outer loop
  vertex -0.020816 0.040564001 0.031305
  vertex 0.054919999 0.078674003 0.013983
  vertex -0.016585 0.044428002 0.021725999
  endloop
 endfacet

 facet normal 0 0 0
  outer loop
  vertex -0.020816 0.040564001 0.031305
  vertex -0.032242998 0.033550002 0.030015999
  vertex -0.026340999 0.036818001 0.031998001
  endloop
 endfacet

 facet normal 0 0 0
  outer loop
  vertex -0.020816 0.040564001 0.031305
  vertex -0.026340999 0.036818001 0.031998001
  vertex -0.018211998 0.032660998 0.042360999
  endloop
 endfacet

 facet normal 0 0 0
  outer loop
  vertex -0.020816 0.040564001 0.031305
  vertex -0.018211998 0.032660998 0.042360999
  vertex 0.068723992 0.07621 0.030498
  endloop
 endfacet

 facet normal 0 0 0
  outer loop
  vertex -0.020816 0.040564001 0.031305
  vertex 0.068723992 0.07621 0.030498
  vertex 0.062190998 0.078234002 0.022453003
  endloop
 endfacet

 facet normal 0 0 0
  outer loop
  vertex 0.123997 0.061659005 0.0054429998
  vertex 0.12654698 0.057068005 -0.00030499999
  vertex 0.11989499 0.066091001 -0.010928001
  endloop
 endfacet

 facet normal 0 0 0
  outer loop
  vertex 0.123997 0.061659005 0.0054429998
  vertex 0.11989499 0.066091001 -0.010928001
  vertex 0.11808499 0.067630999 0.013054
  endloop
 endfacet

 facet normal 0 0 0
  outer loop
  vertex 0.123997 0.061659005 0.0054429998
  vertex 0.125247 0.055241 0.013096
  vertex 0.12654698 0.057068005 -0.00030499999
  endloop
 endfacet

 facet normal 0 0 0
  outer loop
  vertex 0.067002997 -0.051208999 0.0392
  vertex -0.011721 -0.046151999 0.021443002
  vertex 0.052524995 -0.051199004 0.026381999
  endloop
 endfacet

 facet normal 0 0 0
  outer loop
  vertex 0.067002997 -0.051208999 0.0392
  vertex 0.052524995 -0.051199004 0.026381999
  vertex 0.043017995 -0.051199004 0.00070500007
  endloop
 endfacet

 facet normal 0 0 0
  outer loop
  vertex 0.067002997 -0.051208999 0.0392
  vertex 0.13230899 -0.051199004 -0.00047400003
  vertex 0.10936499 -0.051194999 0.039420001
  endloop
 endfacet

 facet normal 0 0 0
  outer loop
  vertex 0.067002997 -0.051208999 0.0392
  vertex 0.10936499 -0.051194999 0.039420001
  vertex 0.087027989 -0.051176999 0.044297002
  endloop
 endfacet

 facet normal 0 0 0
  outer loop
  vertex 0.067002997 -0.051208999 0.0392
  vertex 0.087027989 -0.051176999 0.044297002
  vertex -0.0065720002 -0.044117 0.032931
  endloop
 endfacet

 facet normal 0 0 0
  outer loop
  vertex 0.067002997 -0.051208999 0.0392
  vertex -0.0065720002 -0.044117 0.032931
  vertex -0.011721 -0.046151999 0.021443002
  endloop
 endfacet

 facet normal 0 0 0
  outer loop
  vertex 0.094795004 0.074326999 0.029386003
  vertex 0.11035499 0.069049999 0.025603002
  vertex 0.10558499 0.075040005 0.012318001
  endloop
 endfacet

 facet normal 0 0 0
  outer loop
  vertex 0.094795004 0.074326999 0.029386003
  vertex 0.10558499 0.075040005 0.012318001
  vertex 0.089705996 0.07705301 0.025916001
  endloop
 endfacet

 facet normal 0 0 0
  outer loop
  vertex -0.028139999 0.03833 0.021543
  vertex -0.032242998 0.033550002 0.030015999
  vertex -0.020816 0.040564001 0.031305
  endloop
 endfacet

 facet normal 0 0 0
  outer loop
  vertex -0.028139999 0.03833 0.021543
  vertex -0.020816 0.040564001 0.031305
  vertex -0.016585 0.044428002 0.021725999
  endloop
 endfacet

 facet normal 0 0 0
  outer loop
  vertex -0.028139999 0.03833 0.021543
  vertex -0.016585 0.044428002 0.021725999
  vertex -0.025429999 0.041243002 0.0037990001
  endloop
 endfacet

 facet normal 0 0 0
  outer loop
  vertex -0.028139999 0.03833 0.021543
  vertex -0.025429999 0.041243002 0.0037990001
  vertex -0.031287 0.037503004 -0.014800001
  endloop
 endfacet

 facet normal 0 0 0
  outer loop
  vertex -0.028139999 0.03833 0.021543
  vertex -0.031287 0.037503004 -0.014800001
  vertex -0.037905995 0.028948 0.020793002
  endloop
 endfacet

 facet normal 0 0 0
  outer loop
  vertex -0.028139999 0.03833 0.021543
  vertex -0.037905995 0.028948 0.020793002
  vertex -0.032242998 0.033550002 0.030015999
  endloop
 endfacet

 facet normal 0 0 0
  outer loop
  vertex -0.019866999 -0.041055001 0.031442005
  vertex -0.011721 -0.046151999 0.021443002
  vertex -0.0065720002 -0.044117 0.032931
  endloop
 endfacet

 facet normal 0 0 0
  outer loop
  vertex -0.019866999 -0.041055001 0.031442005
  vertex -0.0065720002 -0.044117 0.032931
  vertex -0.016213998 -0.034672003 0.041861005
  endloop
 endfacet

 facet normal 0 0 0
  outer loop
  vertex -0.019866999 -0.041055001 0.031442005
  vertex -0.016213998 -0.034672003 0.041861005
  vertex -0.023545999 -0.038272005 0.032985002
  endloop
 endfacet

 facet normal 0 0 0
  outer loop
  vertex -0.019866999 -0.041055001 0.031442005
  vertex -0.023545999 -0.038272005 0.032985002
  vertex -0.026300998 -0.039832 0.021243
  endloop
 endfacet

 facet normal 0 0 0
  outer loop
  vertex -0.019866999 -0.041055001 0.031442005
  vertex -0.026300998 -0.039832 0.021243
  vertex -0.011721 -0.046151999 0.021443002
  endloop
 endfacet

 facet normal 0 0 0
  outer loop
  vertex 0.074171998 0.075915001 -0.031351
  vertex 0.087076001 0.077789009 -0.025915002
  vertex 0.082556002 0.073132001 -0.035845
  endloop
 endfacet

 facet normal 0 0 0
  outer loop
  vertex 0.074171998 0.075915001 -0.031351
  vertex 0.082556002 0.073132001 -0.035845
  vertex 0.072701 0.073786996 -0.033425
  endloop
 endfacet

 facet normal 0 0 0
  outer loop
  vertex 0.074171998 0.075915001 -0.031351
  vertex 0.072701 0.073786996 -0.033425
  vertex 0.062494997 0.077393003 -0.025123002
  endloop
 endfacet

 facet normal 0 0 0
  outer loop
  vertex 0.074171998 0.075915001 -0.031351
  vertex 0.062494997 0.077393003 -0.025123002
  vertex 0.064534999 0.080580004 -0.016623
  endloop
 endfacet

 facet normal 0 0 0
  outer loop
  vertex 0.074171998 0.075915001 -0.031351
  vertex 0.064534999 0.080580004 -0.016623
  vertex 0.087076001 0.077789009 -0.025915002
  endloop
 endfacet

 facet normal 0 0 0
  outer loop
  vertex 0.080872998 0.074585997 0.033548001
  vertex 0.090980992 0.071027011 0.036318999
  vertex 0.094795004 0.074326999 0.029386003
  endloop
 endfacet

 facet normal 0 0 0
  outer loop
  vertex 0.080872998 0.074585997 0.033548001
  vertex 0.094795004 0.074326999 0.029386003
  vertex 0.089705996 0.07705301 0.025916001
  endloop
 endfacet

 facet normal 0 0 0
  outer loop
  vertex 0.080872998 0.074585997 0.033548001
  vertex 0.089705996 0.07705301 0.025916001
  vertex 0.075352997 0.078916997 0.026307
  endloop
 endfacet

 facet normal 0 0 0
  outer loop
  vertex 0.080872998 0.074585997 0.033548001
  vertex 0.075352997 0.078916997 0.026307
  vertex 0.068723992 0.07621 0.030498
  endloop
 endfacet

 facet normal 0 0 0
  outer loop
  vertex 0.080872998 0.074585997 0.033548001
  vertex 0.068723992 0.07621 0.030498
  vertex 0.076375999 0.071276002 0.036524002
  endloop
 endfacet

 facet normal 0 0 0
  outer loop
  vertex 0.080872998 0.074585997 0.033548001
  vertex 0.076375999 0.071276002 0.036524002
  vertex 0.090980992 0.071027011 0.036318999
  endloop
 endfacet

 facet normal 0 0 0
  outer loop
  vertex -0.037737001 -0.029044 0.021515001
  vertex -0.036061 -0.032857001 0.0038000003
  vertex -0.033057999 -0.033032 0.029927
  endloop
 endfacet

 facet normal 0 0 0
  outer loop
  vertex -0.037737001 -0.029044 0.021515001
  vertex -0.033057999 -0.033032 0.029927
  vertex -0.044590995 -0.015976001 0.028567001
  endloop
 endfacet

 facet normal 0 0 0
  outer loop
  vertex 0.071964003 0.058169998 -0.036871001
  vertex 0.072701 0.073786996 -0.033425
  vertex 0.082556002 0.073132001 -0.035845
  endloop
 endfacet

 facet normal 0 0 0
  outer loop
  vertex 0.071964003 0.058169998 -0.036871001
  vertex 0.082556002 0.073132001 -0.035845
  vertex 0.086388998 0.049511001 -0.040874004
  endloop
 endfacet

 facet normal 0 0 0
  outer loop
  vertex 0.071964003 0.058169998 -0.036871001
  vertex 0.086388998 0.049511001 -0.040874004
  vertex 0.074774995 0.020891001 -0.041469004
  endloop
 endfacet

 facet normal 0 0 0
  outer loop
  vertex 0.071964003 0.058169998 -0.036871001
  vertex 0.074774995 0.020891001 -0.041469004
  vertex -0.046822 0.012491 -0.014800001
  endloop
 endfacet

 facet normal 0 0 0
  outer loop
  vertex 0.071964003 0.058169998 -0.036871001
  vertex -0.046822 0.012491 -0.014800001
  vertex -0.031287 0.037503004 -0.014800001
  endloop
 endfacet

 facet normal 0 0 0
  outer loop
  vertex 0.071964003 0.058169998 -0.036871001
  vertex -0.031287 0.037503004 -0.014800001
  vertex 0.072701 0.073786996 -0.033425
  endloop
 endfacet

 facet normal 0 0 0
  outer loop
  vertex 0.076480001 0.080167003 -0.017647
  vertex 0.087076001 0.077789009 -0.025915002
  vertex 0.064534999 0.080580004 -0.016623
  endloop
 endfacet

 facet normal 0 0 0
  outer loop
  vertex 0.076480001 0.080167003 -0.017647
  vertex 0.071181998 0.081059001 0.01166
  vertex 0.10558499 0.075040005 0.012318001
  endloop
 endfacet

 facet normal 0 0 0
  outer loop
  vertex 0.076480001 0.080167003 -0.017647
  vertex 0.10558499 0.075040005 0.012318001
  vertex 0.087076001 0.077789009 -0.025915002
  endloop
 endfacet

 facet normal 0 0 0
  outer loop
  vertex 0.11281499 0.068479002 -0.022258
  vertex 0.110796 0.072474003 -0.016169
  vertex 0.11989499 0.066091001 -0.010928001
  endloop
 endfacet

 facet normal 0 0 0
  outer loop
  vertex 0.11281499 0.068479002 -0.022258
  vertex 0.11989499 0.066091001 -0.010928001
  vertex 0.12063799 0.063790001 -0.014995001
  endloop
 endfacet

 facet normal 0 0 0
  outer loop
  vertex 0.11281499 0.068479002 -0.022258
  vertex 0.12063799 0.063790001 -0.014995001
  vertex 0.11378299 0.064158998 -0.026076002
  endloop
 endfacet

 facet normal 0 0 0
  outer loop
  vertex 0.11281499 0.068479002 -0.022258
  vertex 0.11378299 0.064158998 -0.026076002
  vertex 0.10262699 0.068852998 -0.032857999
  endloop
 endfacet

 facet normal 0 0 0
  outer loop
  vertex 0.11281499 0.068479002 -0.022258
  vertex 0.10262699 0.068852998 -0.032857999
  vertex 0.102587 0.072678998 -0.026448
  endloop
 endfacet

 facet normal 0 0 0
  outer loop
  vertex 0.11281499 0.068479002 -0.022258
  vertex 0.102587 0.072678998 -0.026448
  vertex 0.110796 0.072474003 -0.016169
  endloop
 endfacet

 facet normal 0 0 0
  outer loop
  vertex 0.12179999 0.062981002 0.013187001
  vertex 0.125247 0.055241 0.013096
  vertex 0.123997 0.061659005 0.0054429998
  endloop
 endfacet

 facet normal 0 0 0
  outer loop
  vertex 0.12179999 0.062981002 0.013187001
  vertex 0.123997 0.061659005 0.0054429998
  vertex 0.11808499 0.067630999 0.013054
  endloop
 endfacet

 facet normal 0 0 0
  outer loop
  vertex 0.12179999 0.062981002 0.013187001
  vertex 0.11808499 0.067630999 0.013054
  vertex 0.11699599 0.065737002 0.019724
  endloop
 endfacet

 facet normal 0 0 0
  outer loop
  vertex 0.12179999 0.062981002 0.013187001
  vertex 0.11699599 0.065737002 0.019724
  vertex 0.125247 0.055241 0.013096
  endloop
 endfacet

 facet normal 0 0 0
  outer loop
  vertex 0.091986991 0.048948001 0.040601004
  vertex 0.037916999 0.019863002 0.055675
  vertex 0.09787 0.018824002 0.042571999
  endloop
 endfacet

 facet normal 0 0 0
  outer loop
  vertex 0.091986991 0.048948001 0.040601004
  vertex 0.09787 0.018824002 0.042571999
  vertex 0.10609899 0.046076 0.037090998
  endloop
 endfacet

 facet normal 0 0 0
  outer loop
  vertex 0.091986991 0.048948001 0.040601004
  vertex 0.10609899 0.046076 0.037090998
  vertex 0.10074899 0.066207998 0.035198003
  endloop
 endfacet

 facet normal 0 0 0
  outer loop
  vertex 0.091986991 0.048948001 0.040601004
  vertex 0.10074899 0.066207998 0.035198003
  vertex 0.090980992 0.071027011 0.036318999
  endloop
 endfacet

 facet normal 0 0 0
  outer loop
  vertex 0.091986991 0.048948001 0.040601004
  vertex 0.090980992 0.071027011 0.036318999
  vertex 0.037916999 0.019863002 0.055675
  endloop
 endfacet

 facet normal 0 0 0
  outer loop
  vertex 0.059304997 0.08061 0.0092979996
  vertex 0.053264998 0.079908997 0.00010200001
  vertex 0.054919999 0.078674003 0.013983
  endloop
 endfacet

 facet normal 0 0 0
  outer loop
  vertex 0.059304997 0.08061 0.0092979996
  vertex 0.054919999 0.078674003 0.013983
  vertex 0.062190998 0.078234002 0.022453003
  endloop
 endfacet

 facet normal 0 0 0
  outer loop
  vertex 0.059304997 0.08061 0.0092979996
  vertex 0.062190998 0.078234002 0.022453003
  vertex 0.075352997 0.078916997 0.026307
  endloop
 endfacet

 facet normal 0 0 0
  outer loop
  vertex 0.059304997 0.08061 0.0092979996
  vertex 0.075352997 0.078916997 0.026307
  vertex 0.071181998 0.081059001 0.01166
  endloop
 endfacet

 facet normal 0 0 0
  outer loop
  vertex 0.059304997 0.08061 0.0092979996
  vertex 0.058828 0.080830999 -0.0080630006
  vertex 0.053264998 0.079908997 0.00010200001
  endloop
 endfacet

 facet normal 0 0 0
  outer loop
  vertex 0.114108 0.071177997 0.0016540001
  vertex 0.110796 0.072474003 -0.016169
  vertex 0.10558499 0.075040005 0.012318001
  endloop
 endfacet

 facet normal 0 0 0
  outer loop
  vertex 0.114108 0.071177997 0.0016540001
  vertex 0.10558499 0.075040005 0.012318001
  vertex 0.11808499 0.067630999 0.013054
  endloop
 endfacet

 facet normal 0 0 0
  outer loop
  vertex 0.114108 0.071177997 0.0016540001
  vertex 0.11808499 0.067630999 0.013054
  vertex 0.11989499 0.066091001 -0.010928001
  endloop
 endfacet

 facet normal 0 0 0
  outer loop
  vertex 0.114108 0.071177997 0.0016540001
  vertex 0.11989499 0.066091001 -0.010928001
  vertex 0.110796 0.072474003 -0.016169
  endloop
 endfacet

 facet normal 0 0 0
  outer loop
  vertex -0.041094996 -0.025404003 0.0037000002
  vertex -0.038993999 -0.028524 -0.014800001
  vertex -0.036061 -0.032857001 0.0038000003
  endloop
 endfacet

 facet normal 0 0 0
  outer loop
  vertex -0.041094996 -0.025404003 0.0037000002
  vertex -0.036061 -0.032857001 0.0038000003
  vertex -0.037737001 -0.029044 0.021515001
  endloop
 endfacet

 facet normal 0 0 0
  outer loop
  vertex -0.041094996 -0.025404003 0.0037000002
  vertex -0.037737001 -0.029044 0.021515001
  vertex -0.044590995 -0.015976001 0.028567001
  endloop
 endfacet

 facet normal 0 0 0
  outer loop
  vertex -0.041094996 -0.025404003 0.0037000002
  vertex -0.044590995 -0.015976001 0.028567001
  vertex -0.047169 -0.0098409997 -0.014800001
  endloop
 endfacet

 facet normal 0 0 0
  outer loop
  vertex -0.041094996 -0.025404003 0.0037000002
  vertex -0.047169 -0.0098409997 -0.014800001
  vertex -0.038993999 -0.028524 -0.014800001
  endloop
 endfacet

 facet normal 0 0 0
  outer loop
  vertex -0.047578998 -0.0082320003 0.0038000003
  vertex -0.044590995 -0.015976001 0.028567001
  vertex -0.047549997 0.001929 0.028294001
  endloop
 endfacet

 facet normal 0 0 0
  outer loop
  vertex -0.047578998 -0.0082320003 0.0038000003
  vertex -0.047549997 0.001929 0.028294001
  vertex -0.047921997 0.001071 -0.0052999998
  endloop
 endfacet

 facet normal 0 0 0
  outer loop
  vertex -0.047578998 -0.0082320003 0.0038000003
  vertex -0.047921997 0.001071 -0.0052999998
  vertex -0.047169 -0.0098409997 -0.014800001
  endloop
 endfacet

 facet normal 0 0 0
  outer loop
  vertex -0.047578998 -0.0082320003 0.0038000003
  vertex -0.047169 -0.0098409997 -0.014800001
  vertex -0.044590995 -0.015976001 0.028567001
  endloop
 endfacet

 facet normal 0 0 0
  outer loop
  vertex 0.13021098 0.038362999 -0.00037699999
  vertex 0.130335 0.020509001 -0.011013
  vertex 0.12773401 0.051403999 -0.0066559999
  endloop
 endfacet

 facet normal 0 0 0
  outer loop
  vertex 0.13021098 0.038362999 -0.00037699999
  vertex 0.12773401 0.051403999 -0.0066559999
  vertex 0.12654698 0.057068005 -0.00030499999
  endloop
 endfacet

 facet normal 0 0 0
  outer loop
  vertex 0.13021098 0.038362999 -0.00037699999
  vertex 0.12654698 0.057068005 -0.00030499999
  vertex 0.129823 0.038743004 0.0061790003
  endloop
 endfacet

 facet normal 0 0 0
  outer loop
  vertex 0.13021098 0.038362999 -0.00037699999
  vertex 0.129823 0.038743004 0.0061790003
  vertex 0.132276 -0.0075409999 -0.00032400002
  endloop
 endfacet

 facet normal 0 0 0
  outer loop
  vertex 0.13021098 0.038362999 -0.00037699999
  vertex 0.132276 -0.0075409999 -0.00032400002
  vertex 0.130335 0.020509001 -0.011013
  endloop
 endfacet

 facet normal 0 0 0
  outer loop
  vertex 0.099183992 0.070160009 0.033122003
  vertex 0.090980992 0.071027011 0.036318999
  vertex 0.10074899 0.066207998 0.035198003
  endloop
 endfacet

 facet normal 0 0 0
  outer loop
  vertex 0.099183992 0.070160009 0.033122003
  vertex 0.10074899 0.066207998 0.035198003
  vertex 0.109449 0.065364003 0.030169999
  endloop
 endfacet

 facet normal 0 0 0
  outer loop
  vertex 0.099183992 0.070160009 0.033122003
  vertex 0.109449 0.065364003 0.030169999
  vertex 0.11035499 0.069049999 0.025603002
  endloop
 endfacet

 facet normal 0 0 0
  outer loop
  vertex 0.099183992 0.070160009 0.033122003
  vertex 0.11035499 0.069049999 0.025603002
  vertex 0.094795004 0.074326999 0.029386003
  endloop
 endfacet

 facet normal 0 0 0
  outer loop
  vertex 0.099183992 0.070160009 0.033122003
  vertex 0.094795004 0.074326999 0.029386003
  vertex 0.090980992 0.071027011 0.036318999
  endloop
 endfacet

 facet normal 0 0 0
  outer loop
  vertex 0.051048998 -0.051197998 -0.024367003
  vertex 0.067002997 -0.051208999 0.0392
  vertex 0.043017995 -0.051199004 0.00070500007
  endloop
 endfacet

 facet normal 0 0 0
  outer loop
  vertex 0.051048998 -0.051197998 -0.024367003
  vertex 0.043017995 -0.051199004 0.00070500007
  vertex -4.1999996e-05 -0.048741002 0.0037000002
  endloop
 endfacet

 facet normal 0 0 0
  outer loop
  vertex 0.051048998 -0.051197998 -0.024367003
  vertex -4.1999996e-05 -0.048741002 0.0037000002
  vertex -0.0037279997 -0.047978003 -0.014800001
  endloop
 endfacet

 facet normal 0 0 0
  outer loop
  vertex 0.051048998 -0.051197998 -0.024367003
  vertex -0.0037279997 -0.047978003 -0.014800001
  vertex 0.083501004 -0.051192004 -0.044242002
  endloop
 endfacet

 facet normal 0 0 0
  outer loop
  vertex 0.067524999 0.081625007 -0.00060999999
  vertex 0.071181998 0.081059001 0.01166
  vertex 0.076480001 0.080167003 -0.017647
  endloop
 endfacet

 facet normal 0 0 0
  outer loop
  vertex 0.067524999 0.081625007 -0.00060999999
  vertex 0.076480001 0.080167003 -0.017647
  vertex 0.064534999 0.080580004 -0.016623
  endloop
 endfacet

 facet normal 0 0 0
  outer loop
  vertex 0.067524999 0.081625007 -0.00060999999
  vertex 0.064534999 0.080580004 -0.016623
  vertex 0.058828 0.080830999 -0.0080630006
  endloop
 endfacet

 facet normal 0 0 0
  outer loop
  vertex 0.067524999 0.081625007 -0.00060999999
  vertex 0.058828 0.080830999 -0.0080630006
  vertex 0.059304997 0.08061 0.0092979996
  endloop
 endfacet

 facet normal 0 0 0
  outer loop
  vertex 0.067524999 0.081625007 -0.00060999999
  vertex 0.059304997 0.08061 0.0092979996
  vertex 0.071181998 0.081059001 0.01166
  endloop
 endfacet

endsolidAssimpScene
