solid AssimpScene
 facet normal 0 0 0
  outer loop
  vertex -0.0117632 -0.053896099 -0.25900099
  vertex -0.049720202 -0.00335146 -0.26455399
  vertex -0.049701799 0.0034723298 -0.26454401
  endloop
 endfacet

 facet normal 0 0 0
  outer loop
  vertex -0.0117632 -0.053896099 -0.25900099
  vertex -0.049701799 0.0034723298 -0.26454401
  vertex 0.055083405 -0.0023208901 -0.25900501
  endloop
 endfacet

 facet normal 0 0 0
  outer loop
  vertex -0.0117632 -0.053896099 -0.25900099
  vertex 0.055083405 -0.0023208901 -0.25900501
  vertex 0.0543174 -0.010114 -0.258986
  endloop
 endfacet

 facet normal 0 0 0
  outer loop
  vertex -0.0117632 -0.053896099 -0.25900099
  vertex 0.0543174 -0.010114 -0.258986
  vertex 0.048748299 -0.0257148 -0.259002
  endloop
 endfacet

 facet normal 0 0 0
  outer loop
  vertex -0.0117632 -0.053896099 -0.25900099
  vertex 0.048748299 -0.0257148 -0.259002
  vertex 0.042926099 -0.0344745 -0.259
  endloop
 endfacet

 facet normal 0 0 0
  outer loop
  vertex -0.0117632 -0.053896099 -0.25900099
  vertex 0.042926099 -0.0344745 -0.259
  vertex 0.034012299 -0.0434612 -0.25899899
  endloop
 endfacet

 facet normal 0 0 0
  outer loop
  vertex -0.0117632 -0.053896099 -0.25900099
  vertex 0.034012299 -0.0434612 -0.25899899
  vertex 0.022528101 -0.050276801 -0.25899699
  endloop
 endfacet

 facet normal 0 0 0
  outer loop
  vertex -0.0117632 -0.053896099 -0.25900099
  vertex 0.022528101 -0.050276801 -0.25899699
  vertex 0.0112114 -0.053977504 -0.25900599
  endloop
 endfacet

 facet normal 0 0 0
  outer loop
  vertex -0.0117632 -0.053896099 -0.25900099
  vertex 0.0112114 -0.053977504 -0.25900599
  vertex 0.00313473 -0.0551279 -0.258948
  endloop
 endfacet

 facet normal 0 0 0
  outer loop
  vertex 0.049513899 0.104438 -0.00803525
  vertex 0.052579999 0.017421899 -0.259
  vertex 0.043473698 0.034015998 -0.25899801
  endloop
 endfacet

 facet normal 0 0 0
  outer loop
  vertex 0.049513899 0.104438 -0.00803525
  vertex 0.043473698 0.034015998 -0.25899801
  vertex 0.0271491 0.088218398 -0.175367
  endloop
 endfacet

 facet normal 0 0 0
  outer loop
  vertex -0.0117632 -0.053896099 -0.25900099
  vertex 0.00313473 -0.0551279 -0.258948
  vertex -0.0015008 -0.054086104 -0.234891
  endloop
 endfacet

 facet normal 0 0 0
  outer loop
  vertex -0.0222302 0.084040299 -0.1947
  vertex -0.026016001 0.048977301 -0.25899601
  vertex -0.043129701 0.034598399 -0.25899401
  endloop
 endfacet

 facet normal 0 0 0
  outer loop
  vertex -0.0222302 0.084040299 -0.1947
  vertex -0.043129701 0.034598399 -0.25899401
  vertex -0.027599897 0.088409297 -0.17306601
  endloop
 endfacet

 facet normal 0 0 0
  outer loop
  vertex 0.0084573701 0.09785521 0.051579703
  vertex -0.0046490198 0.097801991 0.052168299
  vertex -0.00265461 0.015804799 0.047983605
  endloop
 endfacet

 facet normal 0 0 0
  outer loop
  vertex 0.0084573701 0.09785521 0.051579703
  vertex -0.00265461 0.015804799 0.047983605
  vertex 0.014791 0.015773799 0.045936
  endloop
 endfacet

 facet normal 0 0 0
  outer loop
  vertex 0.040147401 0.0158034 0.026311602
  vertex 0.031288002 0.0158058 0.0365844
  vertex 0.0174026 -0.050181098 -0.220985
  endloop
 endfacet

 facet normal 0 0 0
  outer loop
  vertex -0.0490085 0.10188099 0.014702301
  vertex -0.050405599 0.10394001 0.00026232001
  vertex -0.047662299 0.0158612 0.0057837199
  endloop
 endfacet

 facet normal 0 0 0
  outer loop
  vertex 0.0114866 0.054236099 -0.25899601
  vertex 0.016970299 0.082863599 -0.20084901
  vertex 0.023166001 0.084956601 -0.191089
  endloop
 endfacet

 facet normal 0 0 0
  outer loop
  vertex 0.0114866 0.054236099 -0.25899601
  vertex 0.023166001 0.084956601 -0.191089
  vertex 0.0309746 0.045755301 -0.25900099
  endloop
 endfacet

 facet normal 0 0 0
  outer loop
  vertex -0.026016001 0.048977301 -0.25899601
  vertex -0.0222302 0.084040299 -0.1947
  vertex -0.0113925 0.084302701 -0.199691
  endloop
 endfacet

 facet normal 0 0 0
  outer loop
  vertex -0.026016001 0.048977301 -0.25899601
  vertex -0.0113925 0.084302701 -0.199691
  vertex -0.0079703396 0.054581299 -0.25900301
  endloop
 endfacet

 facet normal 0 0 0
  outer loop
  vertex -0.0078601502 -0.0514125 -0.21616602
  vertex -0.029236898 0.015796401 0.038074799
  vertex -0.0389992 0.015812401 0.028228899
  endloop
 endfacet

 facet normal 0 0 0
  outer loop
  vertex -0.0078601502 -0.0514125 -0.21616602
  vertex -0.0389992 0.015812401 0.028228899
  vertex -0.0234528 -0.047982696 -0.22138202
  endloop
 endfacet

 facet normal 0 0 0
  outer loop
  vertex -0.0068068299 0.129518 0.0113243
  vertex -0.0164345 0.12526201 0.025050601
  vertex -0.00297856 0.125747 0.0289296
  endloop
 endfacet

 facet normal 0 0 0
  outer loop
  vertex -0.032902699 0.122164 0.000226109
  vertex -0.0165431 0.127324 -0.0078956997
  vertex -0.027599897 0.088409297 -0.17306601
  endloop
 endfacet

 facet normal 0 0 0
  outer loop
  vertex -0.032902699 0.122164 0.000226109
  vertex -0.027599897 0.088409297 -0.17306601
  vertex -0.0410612 0.114696 -0.0040350799
  endloop
 endfacet

 facet normal 0 0 0
  outer loop
  vertex -0.017632199 0.0158056 0.044785801
  vertex -0.0253971 0.0985604 0.045449998
  vertex -0.029236898 0.015796401 0.038074799
  endloop
 endfacet

 facet normal 0 0 0
  outer loop
  vertex -0.017632199 0.0158056 0.044785801
  vertex -0.029236898 0.015796401 0.038074799
  vertex -0.0078601502 -0.0514125 -0.21616602
  endloop
 endfacet

 facet normal 0 0 0
  outer loop
  vertex -0.017632199 0.0158056 0.044785801
  vertex -0.0078601502 -0.0514125 -0.21616602
  vertex 0.0034346201 -0.0515255 -0.21430001
  endloop
 endfacet

 facet normal 0 0 0
  outer loop
  vertex -0.017632199 0.0158056 0.044785801
  vertex 0.0034346201 -0.0515255 -0.21430001
  vertex -0.00265461 0.015804799 0.047983605
  endloop
 endfacet

 facet normal 0 0 0
  outer loop
  vertex 0.037409101 0.099821202 0.035842001
  vertex 0.030515699 0.098952197 0.042053401
  vertex 0.031288002 0.0158058 0.0365844
  endloop
 endfacet

 facet normal 0 0 0
  outer loop
  vertex 0.037409101 0.099821202 0.035842001
  vertex 0.031288002 0.0158058 0.0365844
  vertex 0.040147401 0.0158034 0.026311602
  endloop
 endfacet

 facet normal 0 0 0
  outer loop
  vertex -0.055016499 -0.0043879501 -0.258986
  vertex -0.049720202 -0.00335146 -0.26455399
  vertex -0.052037101 -0.0180928 -0.25901601
  endloop
 endfacet

 facet normal 0 0 0
  outer loop
  vertex -0.055016499 -0.0043879501 -0.258986
  vertex -0.047662299 0.0158612 0.0057837199
  vertex -0.050405599 0.10394001 0.00026232001
  endloop
 endfacet

 facet normal 0 0 0
  outer loop
  vertex -0.055016499 -0.0043879501 -0.258986
  vertex -0.050405599 0.10394001 0.00026232001
  vertex -0.053971902 0.0115474 -0.25900701
  endloop
 endfacet

 facet normal 0 0 0
  outer loop
  vertex -0.025512701 -0.048914 -0.25901699
  vertex -0.036885999 -0.040847801 -0.259013
  vertex -0.049720202 -0.00335146 -0.26455399
  endloop
 endfacet

 facet normal 0 0 0
  outer loop
  vertex -0.025512701 -0.048914 -0.25901699
  vertex -0.049720202 -0.00335146 -0.26455399
  vertex -0.0117632 -0.053896099 -0.25900099
  endloop
 endfacet

 facet normal 0 0 0
  outer loop
  vertex 0.0451441 -0.0316053 -0.235642
  vertex 0.036991499 -0.0408355 -0.23167101
  vertex 0.042926099 -0.0344745 -0.259
  endloop
 endfacet

 facet normal 0 0 0
  outer loop
  vertex 0.0451441 -0.0316053 -0.235642
  vertex 0.042926099 -0.0344745 -0.259
  vertex 0.048748299 -0.0257148 -0.259002
  endloop
 endfacet

 facet normal 0 0 0
  outer loop
  vertex 0.0451441 -0.0316053 -0.235642
  vertex 0.048748299 -0.0257148 -0.259002
  vertex 0.052146502 -0.017477199 -0.243011
  endloop
 endfacet

 facet normal 0 0 0
  outer loop
  vertex 0.0451441 -0.0316053 -0.235642
  vertex 0.052146502 -0.017477199 -0.243011
  vertex 0.0476676 0.015861399 0.00572593
  endloop
 endfacet

 facet normal 0 0 0
  outer loop
  vertex 0.0451441 -0.0316053 -0.235642
  vertex 0.0476676 0.015861399 0.00572593
  vertex 0.036991499 -0.0408355 -0.23167101
  endloop
 endfacet

 facet normal 0 0 0
  outer loop
  vertex -0.0158787 0.111456 0.0401963
  vertex -0.000100997 0.11759799 0.038153298
  vertex -0.00297856 0.125747 0.0289296
  endloop
 endfacet

 facet normal 0 0 0
  outer loop
  vertex -0.0158787 0.111456 0.0401963
  vertex -0.00297856 0.125747 0.0289296
  vertex -0.0164345 0.12526201 0.025050601
  endloop
 endfacet

 facet normal 0 0 0
  outer loop
  vertex -0.046491899 -0.029709801 -0.259049
  vertex -0.052037101 -0.0180928 -0.25901601
  vertex -0.049720202 -0.00335146 -0.26455399
  endloop
 endfacet

 facet normal 0 0 0
  outer loop
  vertex -0.046491899 -0.029709801 -0.259049
  vertex -0.049720202 -0.00335146 -0.26455399
  vertex -0.036885999 -0.040847801 -0.259013
  endloop
 endfacet

 facet normal 0 0 0
  outer loop
  vertex -0.046491899 -0.029709801 -0.259049
  vertex -0.036885999 -0.040847801 -0.259013
  vertex -0.042351101 -0.035316698 -0.23411101
  endloop
 endfacet

 facet normal 0 0 0
  outer loop
  vertex 0.0103223 0.125617 0.027241001
  vertex -0.00297856 0.125747 0.0289296
  vertex -0.000100997 0.11759799 0.038153298
  endloop
 endfacet

 facet normal 0 0 0
  outer loop
  vertex 0.0103223 0.125617 0.027241001
  vertex -0.000100997 0.11759799 0.038153298
  vertex 0.015182101 0.116651 0.035516798
  endloop
 endfacet

 facet normal 0 0 0
  outer loop
  vertex 0.0103223 0.125617 0.027241001
  vertex 0.015182101 0.116651 0.035516798
  vertex 0.021609001 0.124624 0.021486001
  endloop
 endfacet

 facet normal 0 0 0
  outer loop
  vertex -0.032164499 -0.044843599 -0.237578
  vertex -0.036885999 -0.040847801 -0.259013
  vertex -0.025512701 -0.048914 -0.25901699
  endloop
 endfacet

 facet normal 0 0 0
  outer loop
  vertex -0.032164499 -0.044843599 -0.237578
  vertex -0.042351101 -0.035316698 -0.23411101
  vertex -0.036885999 -0.040847801 -0.259013
  endloop
 endfacet

 facet normal 0 0 0
  outer loop
  vertex 0.034012299 -0.0434612 -0.25899899
  vertex 0.042926099 -0.0344745 -0.259
  vertex 0.036991499 -0.0408355 -0.23167101
  endloop
 endfacet

 facet normal 0 0 0
  outer loop
  vertex 0.0034346201 -0.0515255 -0.21430001
  vertex 0.014791 0.015773799 0.045936
  vertex -0.00265461 0.015804799 0.047983605
  endloop
 endfacet

 facet normal 0 0 0
  outer loop
  vertex 0.0034346201 -0.0515255 -0.21430001
  vertex -0.0078601502 -0.0514125 -0.21616602
  vertex -0.0015008 -0.054086104 -0.234891
  endloop
 endfacet

 facet normal 0 0 0
  outer loop
  vertex 0.0034346201 -0.0515255 -0.21430001
  vertex 0.0174026 -0.050181098 -0.220985
  vertex 0.031288002 0.0158058 0.0365844
  endloop
 endfacet

 facet normal 0 0 0
  outer loop
  vertex 0.0034346201 -0.0515255 -0.21430001
  vertex 0.031288002 0.0158058 0.0365844
  vertex 0.014791 0.015773799 0.045936
  endloop
 endfacet

 facet normal 0 0 0
  outer loop
  vertex 0.0201633 0.098248497 0.048191901
  vertex 0.0084573701 0.09785521 0.051579703
  vertex 0.014791 0.015773799 0.045936
  endloop
 endfacet

 facet normal 0 0 0
  outer loop
  vertex 0.014791 0.015773799 0.045936
  vertex 0.031288002 0.0158058 0.0365844
  vertex 0.030515699 0.098952197 0.042053401
  endloop
 endfacet

 facet normal 0 0 0
  outer loop
  vertex 0.014791 0.015773799 0.045936
  vertex 0.030515699 0.098952197 0.042053401
  vertex 0.0201633 0.098248497 0.048191901
  endloop
 endfacet

 facet normal 0 0 0
  outer loop
  vertex -0.049871199 -0.023523299 -0.241469
  vertex -0.052037101 -0.0180928 -0.25901601
  vertex -0.046491899 -0.029709801 -0.259049
  endloop
 endfacet

 facet normal 0 0 0
  outer loop
  vertex -0.049871199 -0.023523299 -0.241469
  vertex -0.046491899 -0.029709801 -0.259049
  vertex -0.042351101 -0.035316698 -0.23411101
  endloop
 endfacet

 facet normal 0 0 0
  outer loop
  vertex -0.049871199 -0.023523299 -0.241469
  vertex -0.042351101 -0.035316698 -0.23411101
  vertex -0.047662299 0.0158612 0.0057837199
  endloop
 endfacet

 facet normal 0 0 0
  outer loop
  vertex 0.050526101 0.103338 0.0030460001
  vertex 0.0476676 0.015861399 0.00572593
  vertex 0.055083405 -0.0023208901 -0.25900501
  endloop
 endfacet

 facet normal 0 0 0
  outer loop
  vertex 0.050526101 0.103338 0.0030460001
  vertex 0.055083405 -0.0023208901 -0.25900501
  vertex 0.052579999 0.017421899 -0.259
  endloop
 endfacet

 facet normal 0 0 0
  outer loop
  vertex 0.050526101 0.103338 0.0030460001
  vertex 0.052579999 0.017421899 -0.259
  vertex 0.049513899 0.104438 -0.00803525
  endloop
 endfacet

 facet normal 0 0 0
  outer loop
  vertex 0.050526101 0.103338 0.0030460001
  vertex 0.048581298 0.10181 0.015875001
  vertex 0.0476676 0.015861399 0.00572593
  endloop
 endfacet

 facet normal 0 0 0
  outer loop
  vertex 0.0267557 -0.048162401 -0.23747702
  vertex 0.022528101 -0.050276801 -0.25899699
  vertex 0.034012299 -0.0434612 -0.25899899
  endloop
 endfacet

 facet normal 0 0 0
  outer loop
  vertex 0.0267557 -0.048162401 -0.23747702
  vertex 0.034012299 -0.0434612 -0.25899899
  vertex 0.036991499 -0.0408355 -0.23167101
  endloop
 endfacet

 facet normal 0 0 0
  outer loop
  vertex -0.045252401 0.0158049 0.016001999
  vertex -0.0490085 0.10188099 0.014702301
  vertex -0.047662299 0.0158612 0.0057837199
  endloop
 endfacet

 facet normal 0 0 0
  outer loop
  vertex -0.045252401 0.0158049 0.016001999
  vertex -0.0234528 -0.047982696 -0.22138202
  vertex -0.0389992 0.015812401 0.028228899
  endloop
 endfacet

 facet normal 0 0 0
  outer loop
  vertex 0.0182858 0.12737399 -0.0052542598
  vertex 0.033069201 0.121645 -0.0029426701
  vertex 0.0271491 0.088218398 -0.175367
  endloop
 endfacet

 facet normal 0 0 0
  outer loop
  vertex -0.049701799 0.0034723298 -0.26454401
  vertex -0.049720202 -0.00335146 -0.26455399
  vertex -0.055016499 -0.0043879501 -0.258986
  endloop
 endfacet

 facet normal 0 0 0
  outer loop
  vertex -0.049701799 0.0034723298 -0.26454401
  vertex -0.055016499 -0.0043879501 -0.258986
  vertex -0.053971902 0.0115474 -0.25900701
  endloop
 endfacet

 facet normal 0 0 0
  outer loop
  vertex -0.049701799 0.0034723298 -0.26454401
  vertex -0.043129701 0.034598399 -0.25899401
  vertex -0.026016001 0.048977301 -0.25899601
  endloop
 endfacet

 facet normal 0 0 0
  outer loop
  vertex -0.049701799 0.0034723298 -0.26454401
  vertex -0.026016001 0.048977301 -0.25899601
  vertex -0.0079703396 0.054581299 -0.25900301
  endloop
 endfacet

 facet normal 0 0 0
  outer loop
  vertex -0.049701799 0.0034723298 -0.26454401
  vertex -0.0079703396 0.054581299 -0.25900301
  vertex 0.0114866 0.054236099 -0.25899601
  endloop
 endfacet

 facet normal 0 0 0
  outer loop
  vertex -0.049701799 0.0034723298 -0.26454401
  vertex 0.0114866 0.054236099 -0.25899601
  vertex 0.0309746 0.045755301 -0.25900099
  endloop
 endfacet

 facet normal 0 0 0
  outer loop
  vertex -0.049701799 0.0034723298 -0.26454401
  vertex 0.0309746 0.045755301 -0.25900099
  vertex 0.043473698 0.034015998 -0.25899801
  endloop
 endfacet

 facet normal 0 0 0
  outer loop
  vertex -0.049701799 0.0034723298 -0.26454401
  vertex 0.043473698 0.034015998 -0.25899801
  vertex 0.052579999 0.017421899 -0.259
  endloop
 endfacet

 facet normal 0 0 0
  outer loop
  vertex -0.049701799 0.0034723298 -0.26454401
  vertex 0.052579999 0.017421899 -0.259
  vertex 0.055083405 -0.0023208901 -0.25900501
  endloop
 endfacet

 facet normal 0 0 0
  outer loop
  vertex 0.0082377102 0.128888 0.0147072
  vertex -0.0068068299 0.129518 0.0113243
  vertex -0.00297856 0.125747 0.0289296
  endloop
 endfacet

 facet normal 0 0 0
  outer loop
  vertex 0.0082377102 0.128888 0.0147072
  vertex -0.00297856 0.125747 0.0289296
  vertex 0.0103223 0.125617 0.027241001
  endloop
 endfacet

 facet normal 0 0 0
  outer loop
  vertex 0.0082377102 0.128888 0.0147072
  vertex 0.0101799 0.12939601 -0.00072145899
  vertex -0.0068068299 0.129518 0.0113243
  endloop
 endfacet

 facet normal 0 0 0
  outer loop
  vertex 0.018215699 0.127911 0.0081893597
  vertex 0.0101799 0.12939601 -0.00072145899
  vertex 0.0082377102 0.128888 0.0147072
  endloop
 endfacet

 facet normal 0 0 0
  outer loop
  vertex 0.018215699 0.127911 0.0081893597
  vertex 0.0082377102 0.128888 0.0147072
  vertex 0.0103223 0.125617 0.027241001
  endloop
 endfacet

 facet normal 0 0 0
  outer loop
  vertex 0.018215699 0.127911 0.0081893597
  vertex 0.0103223 0.125617 0.027241001
  vertex 0.021609001 0.124624 0.021486001
  endloop
 endfacet

 facet normal 0 0 0
  outer loop
  vertex 0.018215699 0.127911 0.0081893597
  vertex 0.031426299 0.122907 0.0069086598
  vertex 0.033069201 0.121645 -0.0029426701
  endloop
 endfacet

 facet normal 0 0 0
  outer loop
  vertex 0.018215699 0.127911 0.0081893597
  vertex 0.033069201 0.121645 -0.0029426701
  vertex 0.0182858 0.12737399 -0.0052542598
  endloop
 endfacet

 facet normal 0 0 0
  outer loop
  vertex 0.018215699 0.127911 0.0081893597
  vertex 0.0182858 0.12737399 -0.0052542598
  vertex 0.0101799 0.12939601 -0.00072145899
  endloop
 endfacet

 facet normal 0 0 0
  outer loop
  vertex -0.0063396902 0.12911201 -0.0067725498
  vertex -0.0068068299 0.129518 0.0113243
  vertex 0.0101799 0.12939601 -0.00072145899
  endloop
 endfacet

 facet normal 0 0 0
  outer loop
  vertex 0.0543174 -0.010114 -0.258986
  vertex 0.052146502 -0.017477199 -0.243011
  vertex 0.048748299 -0.0257148 -0.259002
  endloop
 endfacet

 facet normal 0 0 0
  outer loop
  vertex 0.0543174 -0.010114 -0.258986
  vertex 0.055083405 -0.0023208901 -0.25900501
  vertex 0.0476676 0.015861399 0.00572593
  endloop
 endfacet

 facet normal 0 0 0
  outer loop
  vertex 0.0543174 -0.010114 -0.258986
  vertex 0.0476676 0.015861399 0.00572593
  vertex 0.052146502 -0.017477199 -0.243011
  endloop
 endfacet

 facet normal 0 0 0
  outer loop
  vertex -0.0202999 0.089922003 -0.17715
  vertex 0.000366808 0.089817703 -0.185536
  vertex -0.0113925 0.084302701 -0.199691
  endloop
 endfacet

 facet normal 0 0 0
  outer loop
  vertex -0.0202999 0.089922003 -0.17715
  vertex -0.0113925 0.084302701 -0.199691
  vertex -0.0222302 0.084040299 -0.1947
  endloop
 endfacet

 facet normal 0 0 0
  outer loop
  vertex -0.0202999 0.089922003 -0.17715
  vertex -0.0222302 0.084040299 -0.1947
  vertex -0.027599897 0.088409297 -0.17306601
  endloop
 endfacet

 facet normal 0 0 0
  outer loop
  vertex -0.0202999 0.089922003 -0.17715
  vertex -0.027599897 0.088409297 -0.17306601
  vertex -0.0165431 0.127324 -0.0078956997
  endloop
 endfacet

 facet normal 0 0 0
  outer loop
  vertex -0.0202999 0.089922003 -0.17715
  vertex -0.0165431 0.127324 -0.0078956997
  vertex -0.0063396902 0.12911201 -0.0067725498
  endloop
 endfacet

 facet normal 0 0 0
  outer loop
  vertex -0.0202999 0.089922003 -0.17715
  vertex -0.0063396902 0.12911201 -0.0067725498
  vertex 0.000366808 0.089817703 -0.185536
  endloop
 endfacet

 facet normal 0 0 0
  outer loop
  vertex 0.045217801 0.0158122 0.0161791
  vertex 0.0476676 0.015861399 0.00572593
  vertex 0.048581298 0.10181 0.015875001
  endloop
 endfacet

 facet normal 0 0 0
  outer loop
  vertex -0.0502983 0.0223771 -0.259002
  vertex -0.043129701 0.034598399 -0.25899401
  vertex -0.049701799 0.0034723298 -0.26454401
  endloop
 endfacet

 facet normal 0 0 0
  outer loop
  vertex -0.0502983 0.0223771 -0.259002
  vertex -0.049701799 0.0034723298 -0.26454401
  vertex -0.053971902 0.0115474 -0.25900701
  endloop
 endfacet

 facet normal 0 0 0
  outer loop
  vertex 0.0146662 0.089405201 -0.183272
  vertex 0.0086459098 0.12841401 -0.0094439304
  vertex 0.0182858 0.12737399 -0.0052542598
  endloop
 endfacet

 facet normal 0 0 0
  outer loop
  vertex 0.0146662 0.089405201 -0.183272
  vertex 0.0182858 0.12737399 -0.0052542598
  vertex 0.0271491 0.088218398 -0.175367
  endloop
 endfacet

 facet normal 0 0 0
  outer loop
  vertex 0.045245599 0.10101799 0.0243984
  vertex 0.038672902 0.107987 0.0252563
  vertex 0.037409101 0.099821202 0.035842001
  endloop
 endfacet

 facet normal 0 0 0
  outer loop
  vertex 0.045245599 0.10101799 0.0243984
  vertex 0.037409101 0.099821202 0.035842001
  vertex 0.040147401 0.0158034 0.026311602
  endloop
 endfacet

 facet normal 0 0 0
  outer loop
  vertex 0.045245599 0.10101799 0.0243984
  vertex 0.040147401 0.0158034 0.026311602
  vertex 0.045217801 0.0158122 0.0161791
  endloop
 endfacet

 facet normal 0 0 0
  outer loop
  vertex 0.045245599 0.10101799 0.0243984
  vertex 0.045217801 0.0158122 0.0161791
  vertex 0.048581298 0.10181 0.015875001
  endloop
 endfacet

 facet normal 0 0 0
  outer loop
  vertex 0.031089302 -0.044128299 -0.22347702
  vertex 0.036991499 -0.0408355 -0.23167101
  vertex 0.0476676 0.015861399 0.00572593
  endloop
 endfacet

 facet normal 0 0 0
  outer loop
  vertex 0.031089302 -0.044128299 -0.22347702
  vertex 0.0476676 0.015861399 0.00572593
  vertex 0.045217801 0.0158122 0.0161791
  endloop
 endfacet

 facet normal 0 0 0
  outer loop
  vertex 0.031089302 -0.044128299 -0.22347702
  vertex 0.045217801 0.0158122 0.0161791
  vertex 0.040147401 0.0158034 0.026311602
  endloop
 endfacet

 facet normal 0 0 0
  outer loop
  vertex 0.031089302 -0.044128299 -0.22347702
  vertex 0.040147401 0.0158034 0.026311602
  vertex 0.0174026 -0.050181098 -0.220985
  endloop
 endfacet

 facet normal 0 0 0
  outer loop
  vertex 0.031089302 -0.044128299 -0.22347702
  vertex 0.0174026 -0.050181098 -0.220985
  vertex 0.0267557 -0.048162401 -0.23747702
  endloop
 endfacet

 facet normal 0 0 0
  outer loop
  vertex 0.031089302 -0.044128299 -0.22347702
  vertex 0.0267557 -0.048162401 -0.23747702
  vertex 0.036991499 -0.0408355 -0.23167101
  endloop
 endfacet

 facet normal 0 0 0
  outer loop
  vertex 0.0128038 -0.053441804 -0.24400599
  vertex 0.0112114 -0.053977504 -0.25900599
  vertex 0.022528101 -0.050276801 -0.25899699
  endloop
 endfacet

 facet normal 0 0 0
  outer loop
  vertex 0.0128038 -0.053441804 -0.24400599
  vertex 0.022528101 -0.050276801 -0.25899699
  vertex 0.0267557 -0.048162401 -0.23747702
  endloop
 endfacet

 facet normal 0 0 0
  outer loop
  vertex 0.0128038 -0.053441804 -0.24400599
  vertex 0.0267557 -0.048162401 -0.23747702
  vertex 0.0174026 -0.050181098 -0.220985
  endloop
 endfacet

 facet normal 0 0 0
  outer loop
  vertex 0.0128038 -0.053441804 -0.24400599
  vertex 0.0174026 -0.050181098 -0.220985
  vertex 0.0034346201 -0.0515255 -0.21430001
  endloop
 endfacet

 facet normal 0 0 0
  outer loop
  vertex 0.0128038 -0.053441804 -0.24400599
  vertex 0.0034346201 -0.0515255 -0.21430001
  vertex -0.0015008 -0.054086104 -0.234891
  endloop
 endfacet

 facet normal 0 0 0
  outer loop
  vertex 0.0128038 -0.053441804 -0.24400599
  vertex -0.0015008 -0.054086104 -0.234891
  vertex 0.00313473 -0.0551279 -0.258948
  endloop
 endfacet

 facet normal 0 0 0
  outer loop
  vertex -0.020944299 0.12718201 0.0046854401
  vertex -0.028201399 0.123798 0.0136459
  vertex -0.0164345 0.12526201 0.025050601
  endloop
 endfacet

 facet normal 0 0 0
  outer loop
  vertex -0.020944299 0.12718201 0.0046854401
  vertex -0.0164345 0.12526201 0.025050601
  vertex -0.0068068299 0.129518 0.0113243
  endloop
 endfacet

 facet normal 0 0 0
  outer loop
  vertex -0.020944299 0.12718201 0.0046854401
  vertex -0.0068068299 0.129518 0.0113243
  vertex -0.0063396902 0.12911201 -0.0067725498
  endloop
 endfacet

 facet normal 0 0 0
  outer loop
  vertex -0.020944299 0.12718201 0.0046854401
  vertex -0.0063396902 0.12911201 -0.0067725498
  vertex -0.0165431 0.127324 -0.0078956997
  endloop
 endfacet

 facet normal 0 0 0
  outer loop
  vertex -0.020944299 0.12718201 0.0046854401
  vertex -0.0165431 0.127324 -0.0078956997
  vertex -0.032902699 0.122164 0.000226109
  endloop
 endfacet

 facet normal 0 0 0
  outer loop
  vertex -0.020944299 0.12718201 0.0046854401
  vertex -0.032902699 0.122164 0.000226109
  vertex -0.028201399 0.123798 0.0136459
  endloop
 endfacet

 facet normal 0 0 0
  outer loop
  vertex -0.041417599 0.1135 0.0075943205
  vertex -0.050405599 0.10394001 0.00026232001
  vertex -0.0490085 0.10188099 0.014702301
  endloop
 endfacet

 facet normal 0 0 0
  outer loop
  vertex -0.041417599 0.1135 0.0075943205
  vertex -0.034761 0.11653 0.017193099
  vertex -0.028201399 0.123798 0.0136459
  endloop
 endfacet

 facet normal 0 0 0
  outer loop
  vertex -0.041417599 0.1135 0.0075943205
  vertex -0.028201399 0.123798 0.0136459
  vertex -0.032902699 0.122164 0.000226109
  endloop
 endfacet

 facet normal 0 0 0
  outer loop
  vertex -0.041417599 0.1135 0.0075943205
  vertex -0.032902699 0.122164 0.000226109
  vertex -0.0410612 0.114696 -0.0040350799
  endloop
 endfacet

 facet normal 0 0 0
  outer loop
  vertex -0.041417599 0.1135 0.0075943205
  vertex -0.0410612 0.114696 -0.0040350799
  vertex -0.050405599 0.10394001 0.00026232001
  endloop
 endfacet

 facet normal 0 0 0
  outer loop
  vertex 0.023166001 0.084956601 -0.191089
  vertex 0.0271491 0.088218398 -0.175367
  vertex 0.043473698 0.034015998 -0.25899801
  endloop
 endfacet

 facet normal 0 0 0
  outer loop
  vertex 0.023166001 0.084956601 -0.191089
  vertex 0.043473698 0.034015998 -0.25899801
  vertex 0.0309746 0.045755301 -0.25900099
  endloop
 endfacet

 facet normal 0 0 0
  outer loop
  vertex 0.023166001 0.084956601 -0.191089
  vertex 0.016970299 0.082863599 -0.20084901
  vertex 0.0146662 0.089405201 -0.183272
  endloop
 endfacet

 facet normal 0 0 0
  outer loop
  vertex 0.023166001 0.084956601 -0.191089
  vertex 0.0146662 0.089405201 -0.183272
  vertex 0.0271491 0.088218398 -0.175367
  endloop
 endfacet

 facet normal 0 0 0
  outer loop
  vertex 0.041120298 0.11205601 0.0135454
  vertex 0.048581298 0.10181 0.015875001
  vertex 0.050526101 0.103338 0.0030460001
  endloop
 endfacet

 facet normal 0 0 0
  outer loop
  vertex 0.038672902 0.107987 0.0252563
  vertex 0.045245599 0.10101799 0.0243984
  vertex 0.048581298 0.10181 0.015875001
  endloop
 endfacet

 facet normal 0 0 0
  outer loop
  vertex 0.038672902 0.107987 0.0252563
  vertex 0.048581298 0.10181 0.015875001
  vertex 0.041120298 0.11205601 0.0135454
  endloop
 endfacet

 facet normal 0 0 0
  outer loop
  vertex -0.018435201 -0.0512724 -0.23253301
  vertex -0.0117632 -0.053896099 -0.25900099
  vertex -0.0015008 -0.054086104 -0.234891
  endloop
 endfacet

 facet normal 0 0 0
  outer loop
  vertex -0.018435201 -0.0512724 -0.23253301
  vertex -0.0015008 -0.054086104 -0.234891
  vertex -0.0078601502 -0.0514125 -0.21616602
  endloop
 endfacet

 facet normal 0 0 0
  outer loop
  vertex -0.018435201 -0.0512724 -0.23253301
  vertex -0.0078601502 -0.0514125 -0.21616602
  vertex -0.0234528 -0.047982696 -0.22138202
  endloop
 endfacet

 facet normal 0 0 0
  outer loop
  vertex -0.018435201 -0.0512724 -0.23253301
  vertex -0.032164499 -0.044843599 -0.237578
  vertex -0.025512701 -0.048914 -0.25901699
  endloop
 endfacet

 facet normal 0 0 0
  outer loop
  vertex -0.018435201 -0.0512724 -0.23253301
  vertex -0.025512701 -0.048914 -0.25901699
  vertex -0.0117632 -0.053896099 -0.25900099
  endloop
 endfacet

 facet normal 0 0 0
  outer loop
  vertex 0.0026026999 0.105303 0.0479468
  vertex -0.0046490198 0.097801991 0.052168299
  vertex 0.0084573701 0.09785521 0.051579703
  endloop
 endfacet

 facet normal 0 0 0
  outer loop
  vertex 0.029628603 0.112933 0.029616799
  vertex 0.037409101 0.099821202 0.035842001
  vertex 0.038672902 0.107987 0.0252563
  endloop
 endfacet

 facet normal 0 0 0
  outer loop
  vertex 0.021609001 0.124624 0.021486001
  vertex 0.015182101 0.116651 0.035516798
  vertex 0.026981 0.106874 0.038055498
  endloop
 endfacet

 facet normal 0 0 0
  outer loop
  vertex 0.021609001 0.124624 0.021486001
  vertex 0.026981 0.106874 0.038055498
  vertex 0.029628603 0.112933 0.029616799
  endloop
 endfacet

 facet normal 0 0 0
  outer loop
  vertex -0.031337898 -0.0446826 -0.22724999
  vertex -0.0234528 -0.047982696 -0.22138202
  vertex -0.045252401 0.0158049 0.016001999
  endloop
 endfacet

 facet normal 0 0 0
  outer loop
  vertex -0.031337898 -0.0446826 -0.22724999
  vertex -0.045252401 0.0158049 0.016001999
  vertex -0.047662299 0.0158612 0.0057837199
  endloop
 endfacet

 facet normal 0 0 0
  outer loop
  vertex -0.031337898 -0.0446826 -0.22724999
  vertex -0.047662299 0.0158612 0.0057837199
  vertex -0.042351101 -0.035316698 -0.23411101
  endloop
 endfacet

 facet normal 0 0 0
  outer loop
  vertex -0.031337898 -0.0446826 -0.22724999
  vertex -0.042351101 -0.035316698 -0.23411101
  vertex -0.032164499 -0.044843599 -0.237578
  endloop
 endfacet

 facet normal 0 0 0
  outer loop
  vertex -0.032164499 -0.044843599 -0.237578
  vertex -0.018435201 -0.0512724 -0.23253301
  vertex -0.0234528 -0.047982696 -0.22138202
  endloop
 endfacet

 facet normal 0 0 0
  outer loop
  vertex -0.032164499 -0.044843599 -0.237578
  vertex -0.0234528 -0.047982696 -0.22138202
  vertex -0.031337898 -0.0446826 -0.22724999
  endloop
 endfacet

 facet normal 0 0 0
  outer loop
  vertex -0.034141101 0.099325098 0.039097399
  vertex -0.029236898 0.015796401 0.038074799
  vertex -0.0253971 0.0985604 0.045449998
  endloop
 endfacet

 facet normal 0 0 0
  outer loop
  vertex -0.034141101 0.099325098 0.039097399
  vertex -0.027125999 0.10532399 0.039382201
  vertex -0.0308965 0.110555 0.0311087
  endloop
 endfacet

 facet normal 0 0 0
  outer loop
  vertex -0.034141101 0.099325098 0.039097399
  vertex -0.0308965 0.110555 0.0311087
  vertex -0.040353298 0.10017699 0.032255299
  endloop
 endfacet

 facet normal 0 0 0
  outer loop
  vertex -0.034141101 0.099325098 0.039097399
  vertex -0.040353298 0.10017699 0.032255299
  vertex -0.0389992 0.015812401 0.028228899
  endloop
 endfacet

 facet normal 0 0 0
  outer loop
  vertex -0.034141101 0.099325098 0.039097399
  vertex -0.0389992 0.015812401 0.028228899
  vertex -0.029236898 0.015796401 0.038074799
  endloop
 endfacet

 facet normal 0 0 0
  outer loop
  vertex -0.027599897 0.088409297 -0.17306601
  vertex -0.043129701 0.034598399 -0.25899401
  vertex -0.0502983 0.0223771 -0.259002
  endloop
 endfacet

 facet normal 0 0 0
  outer loop
  vertex -0.027599897 0.088409297 -0.17306601
  vertex -0.0502983 0.0223771 -0.259002
  vertex -0.049491301 0.104632 -0.0079734102
  endloop
 endfacet

 facet normal 0 0 0
  outer loop
  vertex -0.049491301 0.104632 -0.0079734102
  vertex -0.0502983 0.0223771 -0.259002
  vertex -0.053971902 0.0115474 -0.25900701
  endloop
 endfacet

 facet normal 0 0 0
  outer loop
  vertex -0.049491301 0.104632 -0.0079734102
  vertex -0.053971902 0.0115474 -0.25900701
  vertex -0.050405599 0.10394001 0.00026232001
  endloop
 endfacet

 facet normal 0 0 0
  outer loop
  vertex -0.049491301 0.104632 -0.0079734102
  vertex -0.050405599 0.10394001 0.00026232001
  vertex -0.0410612 0.114696 -0.0040350799
  endloop
 endfacet

 facet normal 0 0 0
  outer loop
  vertex -0.049491301 0.104632 -0.0079734102
  vertex -0.0410612 0.114696 -0.0040350799
  vertex -0.027599897 0.088409297 -0.17306601
  endloop
 endfacet

 facet normal 0 0 0
  outer loop
  vertex -0.00070697698 0.085374899 -0.19882999
  vertex 0.016970299 0.082863599 -0.20084901
  vertex 0.0114866 0.054236099 -0.25899601
  endloop
 endfacet

 facet normal 0 0 0
  outer loop
  vertex -0.00070697698 0.085374899 -0.19882999
  vertex 0.0114866 0.054236099 -0.25899601
  vertex -0.0079703396 0.054581299 -0.25900301
  endloop
 endfacet

 facet normal 0 0 0
  outer loop
  vertex -0.00070697698 0.085374899 -0.19882999
  vertex -0.0079703396 0.054581299 -0.25900301
  vertex -0.0113925 0.084302701 -0.199691
  endloop
 endfacet

 facet normal 0 0 0
  outer loop
  vertex -0.00070697698 0.085374899 -0.19882999
  vertex -0.0113925 0.084302701 -0.199691
  vertex 0.000366808 0.089817703 -0.185536
  endloop
 endfacet

 facet normal 0 0 0
  outer loop
  vertex -0.00070697698 0.085374899 -0.19882999
  vertex 0.000366808 0.089817703 -0.185536
  vertex 0.0146662 0.089405201 -0.183272
  endloop
 endfacet

 facet normal 0 0 0
  outer loop
  vertex -0.00070697698 0.085374899 -0.19882999
  vertex 0.0146662 0.089405201 -0.183272
  vertex 0.016970299 0.082863599 -0.20084901
  endloop
 endfacet

 facet normal 0 0 0
  outer loop
  vertex -0.0198253 0.098533198 0.0482747
  vertex -0.0253971 0.0985604 0.045449998
  vertex -0.017632199 0.0158056 0.044785801
  endloop
 endfacet

 facet normal 0 0 0
  outer loop
  vertex -0.0198253 0.098533198 0.0482747
  vertex -0.017632199 0.0158056 0.044785801
  vertex -0.00265461 0.015804799 0.047983605
  endloop
 endfacet

 facet normal 0 0 0
  outer loop
  vertex -0.0198253 0.098533198 0.0482747
  vertex -0.00265461 0.015804799 0.047983605
  vertex -0.0046490198 0.097801991 0.052168299
  endloop
 endfacet

 facet normal 0 0 0
  outer loop
  vertex 0.042523298 0.112999 -0.0062559904
  vertex 0.049513899 0.104438 -0.00803525
  vertex 0.0271491 0.088218398 -0.175367
  endloop
 endfacet

 facet normal 0 0 0
  outer loop
  vertex 0.042523298 0.112999 -0.0062559904
  vertex 0.0271491 0.088218398 -0.175367
  vertex 0.033069201 0.121645 -0.0029426701
  endloop
 endfacet

 facet normal 0 0 0
  outer loop
  vertex -0.0080015501 0.106305 0.046502199
  vertex -0.0046490198 0.097801991 0.052168299
  vertex 0.0026026999 0.105303 0.0479468
  endloop
 endfacet

 facet normal 0 0 0
  outer loop
  vertex -0.0080015501 0.106305 0.046502199
  vertex 0.0026026999 0.105303 0.0479468
  vertex -0.000100997 0.11759799 0.038153298
  endloop
 endfacet

 facet normal 0 0 0
  outer loop
  vertex -0.0080015501 0.106305 0.046502199
  vertex -0.000100997 0.11759799 0.038153298
  vertex -0.0158787 0.111456 0.0401963
  endloop
 endfacet

 facet normal 0 0 0
  outer loop
  vertex -0.0080015501 0.106305 0.046502199
  vertex -0.0158787 0.111456 0.0401963
  vertex -0.0198253 0.098533198 0.0482747
  endloop
 endfacet

 facet normal 0 0 0
  outer loop
  vertex -0.0080015501 0.106305 0.046502199
  vertex -0.0198253 0.098533198 0.0482747
  vertex -0.0046490198 0.097801991 0.052168299
  endloop
 endfacet

 facet normal 0 0 0
  outer loop
  vertex 0.015182101 0.116651 0.035516798
  vertex -0.000100997 0.11759799 0.038153298
  vertex 0.0026026999 0.105303 0.0479468
  endloop
 endfacet

 facet normal 0 0 0
  outer loop
  vertex 0.015182101 0.116651 0.035516798
  vertex 0.0026026999 0.105303 0.0479468
  vertex 0.01317 0.105957 0.045491103
  endloop
 endfacet

 facet normal 0 0 0
  outer loop
  vertex 0.01317 0.105957 0.045491103
  vertex 0.0026026999 0.105303 0.0479468
  vertex 0.0084573701 0.09785521 0.051579703
  endloop
 endfacet

 facet normal 0 0 0
  outer loop
  vertex 0.01317 0.105957 0.045491103
  vertex 0.0084573701 0.09785521 0.051579703
  vertex 0.0201633 0.098248497 0.048191901
  endloop
 endfacet

 facet normal 0 0 0
  outer loop
  vertex 0.0112114 -0.053977504 -0.25900599
  vertex 0.0128038 -0.053441804 -0.24400599
  vertex 0.00313473 -0.0551279 -0.258948
  endloop
 endfacet

 facet normal 0 0 0
  outer loop
  vertex -0.053212699 -0.013910799 -0.245524
  vertex -0.047662299 0.0158612 0.0057837199
  vertex -0.055016499 -0.0043879501 -0.258986
  endloop
 endfacet

 facet normal 0 0 0
  outer loop
  vertex -0.053212699 -0.013910799 -0.245524
  vertex -0.055016499 -0.0043879501 -0.258986
  vertex -0.052037101 -0.0180928 -0.25901601
  endloop
 endfacet

 facet normal 0 0 0
  outer loop
  vertex -0.053212699 -0.013910799 -0.245524
  vertex -0.052037101 -0.0180928 -0.25901601
  vertex -0.049871199 -0.023523299 -0.241469
  endloop
 endfacet

 facet normal 0 0 0
  outer loop
  vertex -0.053212699 -0.013910799 -0.245524
  vertex -0.049871199 -0.023523299 -0.241469
  vertex -0.047662299 0.0158612 0.0057837199
  endloop
 endfacet

 facet normal 0 0 0
  outer loop
  vertex -0.045413502 0.101011 0.023883102
  vertex -0.0490085 0.10188099 0.014702301
  vertex -0.045252401 0.0158049 0.016001999
  endloop
 endfacet

 facet normal 0 0 0
  outer loop
  vertex -0.045413502 0.101011 0.023883102
  vertex -0.045252401 0.0158049 0.016001999
  vertex -0.0389992 0.015812401 0.028228899
  endloop
 endfacet

 facet normal 0 0 0
  outer loop
  vertex -0.045413502 0.101011 0.023883102
  vertex -0.0389992 0.015812401 0.028228899
  vertex -0.040353298 0.10017699 0.032255299
  endloop
 endfacet

 facet normal 0 0 0
  outer loop
  vertex -0.045413502 0.101011 0.023883102
  vertex -0.040353298 0.10017699 0.032255299
  vertex -0.0308965 0.110555 0.0311087
  endloop
 endfacet

 facet normal 0 0 0
  outer loop
  vertex -0.045413502 0.101011 0.023883102
  vertex -0.0308965 0.110555 0.0311087
  vertex -0.028435402 0.11837099 0.0235507
  endloop
 endfacet

 facet normal 0 0 0
  outer loop
  vertex -0.045413502 0.101011 0.023883102
  vertex -0.028435402 0.11837099 0.0235507
  vertex -0.034761 0.11653 0.017193099
  endloop
 endfacet

 facet normal 0 0 0
  outer loop
  vertex -0.045413502 0.101011 0.023883102
  vertex -0.034761 0.11653 0.017193099
  vertex -0.041417599 0.1135 0.0075943205
  endloop
 endfacet

 facet normal 0 0 0
  outer loop
  vertex -0.045413502 0.101011 0.023883102
  vertex -0.041417599 0.1135 0.0075943205
  vertex -0.0490085 0.10188099 0.014702301
  endloop
 endfacet

 facet normal 0 0 0
  outer loop
  vertex 0.0086459098 0.12841401 -0.0094439304
  vertex 0.000366808 0.089817703 -0.185536
  vertex -0.0063396902 0.12911201 -0.0067725498
  endloop
 endfacet

 facet normal 0 0 0
  outer loop
  vertex 0.0086459098 0.12841401 -0.0094439304
  vertex -0.0063396902 0.12911201 -0.0067725498
  vertex 0.0101799 0.12939601 -0.00072145899
  endloop
 endfacet

 facet normal 0 0 0
  outer loop
  vertex 0.0086459098 0.12841401 -0.0094439304
  vertex 0.0101799 0.12939601 -0.00072145899
  vertex 0.0182858 0.12737399 -0.0052542598
  endloop
 endfacet

 facet normal 0 0 0
  outer loop
  vertex 0.0086459098 0.12841401 -0.0094439304
  vertex 0.0146662 0.089405201 -0.183272
  vertex 0.000366808 0.089817703 -0.185536
  endloop
 endfacet

 facet normal 0 0 0
  outer loop
  vertex -0.028435402 0.11837099 0.0235507
  vertex -0.028201399 0.123798 0.0136459
  vertex -0.034761 0.11653 0.017193099
  endloop
 endfacet

 facet normal 0 0 0
  outer loop
  vertex -0.028435402 0.11837099 0.0235507
  vertex -0.0308965 0.110555 0.0311087
  vertex -0.0164345 0.12526201 0.025050601
  endloop
 endfacet

 facet normal 0 0 0
  outer loop
  vertex -0.028435402 0.11837099 0.0235507
  vertex -0.0164345 0.12526201 0.025050601
  vertex -0.028201399 0.123798 0.0136459
  endloop
 endfacet

 facet normal 0 0 0
  outer loop
  vertex 0.0325105 0.11744399 0.0194622
  vertex 0.038672902 0.107987 0.0252563
  vertex 0.041120298 0.11205601 0.0135454
  endloop
 endfacet

 facet normal 0 0 0
  outer loop
  vertex 0.029628603 0.112933 0.029616799
  vertex 0.038672902 0.107987 0.0252563
  vertex 0.0325105 0.11744399 0.0194622
  endloop
 endfacet

 facet normal 0 0 0
  outer loop
  vertex 0.029628603 0.112933 0.029616799
  vertex 0.0325105 0.11744399 0.0194622
  vertex 0.0265211 0.124106 0.015798399
  endloop
 endfacet

 facet normal 0 0 0
  outer loop
  vertex 0.029628603 0.112933 0.029616799
  vertex 0.0265211 0.124106 0.015798399
  vertex 0.021609001 0.124624 0.021486001
  endloop
 endfacet

 facet normal 0 0 0
  outer loop
  vertex 0.040191501 0.11528501 0.0039490801
  vertex 0.041120298 0.11205601 0.0135454
  vertex 0.050526101 0.103338 0.0030460001
  endloop
 endfacet

 facet normal 0 0 0
  outer loop
  vertex 0.040191501 0.11528501 0.0039490801
  vertex 0.050526101 0.103338 0.0030460001
  vertex 0.049513899 0.104438 -0.00803525
  endloop
 endfacet

 facet normal 0 0 0
  outer loop
  vertex 0.040191501 0.11528501 0.0039490801
  vertex 0.049513899 0.104438 -0.00803525
  vertex 0.042523298 0.112999 -0.0062559904
  endloop
 endfacet

 facet normal 0 0 0
  outer loop
  vertex 0.042523298 0.112999 -0.0062559904
  vertex 0.033069201 0.121645 -0.0029426701
  vertex 0.031426299 0.122907 0.0069086598
  endloop
 endfacet

 facet normal 0 0 0
  outer loop
  vertex 0.042523298 0.112999 -0.0062559904
  vertex 0.031426299 0.122907 0.0069086598
  vertex 0.040191501 0.11528501 0.0039490801
  endloop
 endfacet

 facet normal 0 0 0
  outer loop
  vertex 0.040191501 0.11528501 0.0039490801
  vertex 0.031426299 0.122907 0.0069086598
  vertex 0.041120298 0.11205601 0.0135454
  endloop
 endfacet

 facet normal 0 0 0
  outer loop
  vertex 0.0265211 0.124106 0.015798399
  vertex 0.0325105 0.11744399 0.0194622
  vertex 0.041120298 0.11205601 0.0135454
  endloop
 endfacet

 facet normal 0 0 0
  outer loop
  vertex 0.0265211 0.124106 0.015798399
  vertex 0.041120298 0.11205601 0.0135454
  vertex 0.031426299 0.122907 0.0069086598
  endloop
 endfacet

 facet normal 0 0 0
  outer loop
  vertex 0.0265211 0.124106 0.015798399
  vertex 0.031426299 0.122907 0.0069086598
  vertex 0.018215699 0.127911 0.0081893597
  endloop
 endfacet

 facet normal 0 0 0
  outer loop
  vertex 0.0265211 0.124106 0.015798399
  vertex 0.018215699 0.127911 0.0081893597
  vertex 0.021609001 0.124624 0.021486001
  endloop
 endfacet

 facet normal 0 0 0
  outer loop
  vertex 0.026981 0.106874 0.038055498
  vertex 0.030515699 0.098952197 0.042053401
  vertex 0.037409101 0.099821202 0.035842001
  endloop
 endfacet

 facet normal 0 0 0
  outer loop
  vertex 0.026981 0.106874 0.038055498
  vertex 0.037409101 0.099821202 0.035842001
  vertex 0.029628603 0.112933 0.029616799
  endloop
 endfacet

 facet normal 0 0 0
  outer loop
  vertex 0.015182101 0.116651 0.035516798
  vertex 0.01317 0.105957 0.045491103
  vertex 0.0201633 0.098248497 0.048191901
  endloop
 endfacet

 facet normal 0 0 0
  outer loop
  vertex 0.015182101 0.116651 0.035516798
  vertex 0.0201633 0.098248497 0.048191901
  vertex 0.026981 0.106874 0.038055498
  endloop
 endfacet

 facet normal 0 0 0
  outer loop
  vertex 0.026981 0.106874 0.038055498
  vertex 0.0201633 0.098248497 0.048191901
  vertex 0.030515699 0.098952197 0.042053401
  endloop
 endfacet

 facet normal 0 0 0
  outer loop
  vertex -0.027125999 0.10532399 0.039382201
  vertex -0.034141101 0.099325098 0.039097399
  vertex -0.0253971 0.0985604 0.045449998
  endloop
 endfacet

 facet normal 0 0 0
  outer loop
  vertex -0.027125999 0.10532399 0.039382201
  vertex -0.0253971 0.0985604 0.045449998
  vertex -0.0198253 0.098533198 0.0482747
  endloop
 endfacet

 facet normal 0 0 0
  outer loop
  vertex -0.027125999 0.10532399 0.039382201
  vertex -0.0198253 0.098533198 0.0482747
  vertex -0.0158787 0.111456 0.0401963
  endloop
 endfacet

 facet normal 0 0 0
  outer loop
  vertex -0.0158787 0.111456 0.0401963
  vertex -0.0164345 0.12526201 0.025050601
  vertex -0.0308965 0.110555 0.0311087
  endloop
 endfacet

 facet normal 0 0 0
  outer loop
  vertex -0.0158787 0.111456 0.0401963
  vertex -0.0308965 0.110555 0.0311087
  vertex -0.027125999 0.10532399 0.039382201
  endloop
 endfacet

endsolidAssimpScene
