solid AssimpScene
 facet normal 0 0 0
  outer loop
  vertex 0.0549176 -0.0078348601 -0.12099801
  vertex 0.046301004 -0.030187 -0.12099901
  vertex 0.0188416 -0.051789101 -0.121005
  endloop
 endfacet

 facet normal 0 0 0
  outer loop
  vertex 0.0549176 -0.0078348601 -0.12099801
  vertex 0.0188416 -0.051789101 -0.121005
  vertex 0.054400802 0.0089683589 -0.12100001
  endloop
 endfacet

 facet normal 0 0 0
  outer loop
  vertex 0.052253999 0.090089299 0.036272001
  vertex -0.038600899 0.012568999 -0.029564699
  vertex 0.051102601 0.067234002 0.042012502
  endloop
 endfacet

 facet normal 0 0 0
  outer loop
  vertex 0.00950641 0.054967795 -0.12099801
  vertex 0.098648302 0.10106999 -0.033043101
  vertex 0.0351182 0.043009996 -0.12099801
  endloop
 endfacet

 facet normal 0 0 0
  outer loop
  vertex 0.113908 0.091545291 -0.034438703
  vertex 0.0351182 0.043009996 -0.12099801
  vertex 0.098648302 0.10106999 -0.033043101
  endloop
 endfacet

 facet normal 0 0 0
  outer loop
  vertex -0.037086699 0.041023295 -0.121018
  vertex -0.016675303 0.052757796 -0.121001
  vertex 0.00950641 0.054967795 -0.12099801
  endloop
 endfacet

 facet normal 0 0 0
  outer loop
  vertex -0.037086699 0.041023295 -0.121018
  vertex 0.00950641 0.054967795 -0.12099801
  vertex 0.0351182 0.043009996 -0.12099801
  endloop
 endfacet

 facet normal 0 0 0
  outer loop
  vertex -0.037086699 0.041023295 -0.121018
  vertex 0.054400802 0.0089683589 -0.12100001
  vertex 0.0188416 -0.051789101 -0.121005
  endloop
 endfacet

 facet normal 0 0 0
  outer loop
  vertex -0.037086699 0.041023295 -0.121018
  vertex -0.054645803 -0.0076057799 -0.12099601
  vertex -0.049615301 0.024666898 -0.12099301
  endloop
 endfacet

 facet normal 0 0 0
  outer loop
  vertex 0.124558 0.065813802 -0.031581301
  vertex 0.129196 0.00077645993 -0.0296128
  vertex 0.054400802 0.0089683589 -0.12100001
  endloop
 endfacet

 facet normal 0 0 0
  outer loop
  vertex -0.036817905 0.027215298 -0.040391605
  vertex 0.0471173 0.10086999 0.0104199
  vertex -0.037785299 0.033266898 -0.0634652
  endloop
 endfacet

 facet normal 0 0 0
  outer loop
  vertex 0.11444 0.10100399 -0.0191103
  vertex 0.099071302 0.108666 -0.0057355203
  vertex 0.119397 0.100939 0.00043751299
  endloop
 endfacet

 facet normal 0 0 0
  outer loop
  vertex 0.11444 0.10100399 -0.0191103
  vertex 0.119397 0.100939 0.00043751299
  vertex 0.128178 0.093017302 -0.0046627098
  endloop
 endfacet

 facet normal 0 0 0
  outer loop
  vertex 0.11444 0.10100399 -0.0191103
  vertex 0.128178 0.093017302 -0.0046627098
  vertex 0.124788 0.0913032 -0.0198981
  endloop
 endfacet

 facet normal 0 0 0
  outer loop
  vertex 0.11444 0.10100399 -0.0191103
  vertex 0.124788 0.0913032 -0.0198981
  vertex 0.113908 0.091545291 -0.034438703
  endloop
 endfacet

 facet normal 0 0 0
  outer loop
  vertex 0.11444 0.10100399 -0.0191103
  vertex 0.113908 0.091545291 -0.034438703
  vertex 0.098648302 0.10106999 -0.033043101
  endloop
 endfacet

 facet normal 0 0 0
  outer loop
  vertex 0.0549176 -0.0078348601 -0.12099801
  vertex 0.054400802 0.0089683589 -0.12100001
  vertex 0.129196 0.00077645993 -0.0296128
  endloop
 endfacet

 facet normal 0 0 0
  outer loop
  vertex 0.0549176 -0.0078348601 -0.12099801
  vertex 0.129196 0.00077645993 -0.0296128
  vertex 0.046301004 -0.030187 -0.12099901
  endloop
 endfacet

 facet normal 0 0 0
  outer loop
  vertex 0.032958999 -0.044374902 -0.12099901
  vertex 0.046301004 -0.030187 -0.12099901
  vertex 0.129196 0.00077645993 -0.0296128
  endloop
 endfacet

 facet normal 0 0 0
  outer loop
  vertex 0.032958999 -0.044374902 -0.12099901
  vertex 0.13756099 0.00059133698 -0.0051987399
  vertex 0.0188416 -0.051789101 -0.121005
  endloop
 endfacet

 facet normal 0 0 0
  outer loop
  vertex 0.032958999 -0.044374902 -0.12099901
  vertex 0.0188416 -0.051789101 -0.121005
  vertex 0.046301004 -0.030187 -0.12099901
  endloop
 endfacet

 facet normal 0 0 0
  outer loop
  vertex -0.025691902 -0.048999496 -0.12099801
  vertex -0.0378698 -0.040342297 -0.120938
  vertex -0.046753503 -0.0295402 -0.120958
  endloop
 endfacet

 facet normal 0 0 0
  outer loop
  vertex 0.090021007 0.100948 0.036132801
  vertex 0.104702 0.093488798 0.039999101
  vertex 0.106871 0.10100399 0.027908603
  endloop
 endfacet

 facet normal 0 0 0
  outer loop
  vertex 0.090021007 0.100948 0.036132801
  vertex 0.106871 0.10100399 0.027908603
  vertex 0.091195501 0.109398 0.0126026
  endloop
 endfacet

 facet normal 0 0 0
  outer loop
  vertex 0.090021007 0.100948 0.036132801
  vertex 0.070087202 0.10103499 0.0350396
  vertex 0.075848602 0.0923713 0.045553401
  endloop
 endfacet

 facet normal 0 0 0
  outer loop
  vertex 0.0050816499 -0.044914395 -0.038338702
  vertex 0.082189202 0.00056765601 0.055156402
  vertex -0.0060608899 -0.043347497 -0.034716405
  endloop
 endfacet

 facet normal 0 0 0
  outer loop
  vertex 0.041278299 0.089486003 0.022893403
  vertex 0.0471173 0.10086999 0.0104199
  vertex -0.036817905 0.027215298 -0.040391605
  endloop
 endfacet

 facet normal 0 0 0
  outer loop
  vertex 0.041278299 0.089486003 0.022893403
  vertex -0.038600899 0.012568999 -0.029564699
  vertex 0.052253999 0.090089299 0.036272001
  endloop
 endfacet

 facet normal 0 0 0
  outer loop
  vertex 0.090231307 0.092297897 0.045706704
  vertex 0.104702 0.093488798 0.039999101
  vertex 0.090021007 0.100948 0.036132801
  endloop
 endfacet

 facet normal 0 0 0
  outer loop
  vertex 0.090231307 0.092297897 0.045706704
  vertex 0.090021007 0.100948 0.036132801
  vertex 0.075848602 0.0923713 0.045553401
  endloop
 endfacet

 facet normal 0 0 0
  outer loop
  vertex -0.054615404 0.0089147389 -0.12097101
  vertex -0.049615301 0.024666898 -0.12099301
  vertex -0.054645803 -0.0076057799 -0.12099601
  endloop
 endfacet

 facet normal 0 0 0
  outer loop
  vertex 0.045445599 0.10087099 -0.00246525
  vertex -0.016675303 0.052757796 -0.121001
  vertex -0.037086699 0.041023295 -0.121018
  endloop
 endfacet

 facet normal 0 0 0
  outer loop
  vertex 0.078020401 0.10103099 -0.0368324
  vertex 0.098648302 0.10106999 -0.033043101
  vertex 0.00950641 0.054967795 -0.12099801
  endloop
 endfacet

 facet normal 0 0 0
  outer loop
  vertex 0.078020401 0.10103099 -0.0368324
  vertex 0.00950641 0.054967795 -0.12099801
  vertex -0.016675303 0.052757796 -0.121001
  endloop
 endfacet

 facet normal 0 0 0
  outer loop
  vertex 0.078020401 0.10103099 -0.0368324
  vertex -0.016675303 0.052757796 -0.121001
  vertex 0.074742399 0.109198 -0.013768001
  endloop
 endfacet

 facet normal 0 0 0
  outer loop
  vertex 0.125852 0.065915391 0.030017203
  vertex 0.13237801 0.00060845999 0.023833102
  vertex 0.133242 0.066199303 0.014384
  endloop
 endfacet

 facet normal 0 0 0
  outer loop
  vertex 0.133141 0.066125199 -0.0142478
  vertex 0.13517401 0.065814994 -0.0012634801
  vertex 0.13756099 0.00059133698 -0.0051987399
  endloop
 endfacet

 facet normal 0 0 0
  outer loop
  vertex 0.053134099 0.10090899 0.0224573
  vertex 0.0471173 0.10086999 0.0104199
  vertex 0.041278299 0.089486003 0.022893403
  endloop
 endfacet

 facet normal 0 0 0
  outer loop
  vertex 0.053134099 0.10090899 0.0224573
  vertex 0.041278299 0.089486003 0.022893403
  vertex 0.052253999 0.090089299 0.036272001
  endloop
 endfacet

 facet normal 0 0 0
  outer loop
  vertex 0.053134099 0.10090899 0.0224573
  vertex 0.052253999 0.090089299 0.036272001
  vertex 0.070087202 0.10103499 0.0350396
  endloop
 endfacet

 facet normal 0 0 0
  outer loop
  vertex 0.106453 0.065610498 0.0468808
  vertex 0.112032 0.00060096401 0.046705
  vertex 0.11596101 0.066544302 0.0405958
  endloop
 endfacet

 facet normal 0 0 0
  outer loop
  vertex 0.049881205 0.023786601 -0.12100001
  vertex 0.0351182 0.043009996 -0.12099801
  vertex 0.113908 0.091545291 -0.034438703
  endloop
 endfacet

 facet normal 0 0 0
  outer loop
  vertex 0.049881205 0.023786601 -0.12100001
  vertex 0.054400802 0.0089683589 -0.12100001
  vertex -0.037086699 0.041023295 -0.121018
  endloop
 endfacet

 facet normal 0 0 0
  outer loop
  vertex 0.049881205 0.023786601 -0.12100001
  vertex -0.037086699 0.041023295 -0.121018
  vertex 0.0351182 0.043009996 -0.12099801
  endloop
 endfacet

 facet normal 0 0 0
  outer loop
  vertex 0.11605401 0.086165696 0.034788199
  vertex 0.11596101 0.066544302 0.0405958
  vertex 0.125852 0.065915391 0.030017203
  endloop
 endfacet

 facet normal 0 0 0
  outer loop
  vertex 0.13688901 0.00054418499 0.0102117
  vertex 0.13756099 0.00059133698 -0.0051987399
  vertex 0.13517401 0.065814994 -0.0012634801
  endloop
 endfacet

 facet normal 0 0 0
  outer loop
  vertex 0.13688901 0.00054418499 0.0102117
  vertex 0.13517401 0.065814994 -0.0012634801
  vertex 0.133242 0.066199303 0.014384
  endloop
 endfacet

 facet normal 0 0 0
  outer loop
  vertex 0.13688901 0.00054418499 0.0102117
  vertex 0.133242 0.066199303 0.014384
  vertex 0.13237801 0.00060845999 0.023833102
  endloop
 endfacet

 facet normal 0 0 0
  outer loop
  vertex 0.13688901 0.00054418499 0.0102117
  vertex 0.13237801 0.00060845999 0.023833102
  vertex 0.0111526 -0.050958697 -0.075627208
  endloop
 endfacet

 facet normal 0 0 0
  outer loop
  vertex 0.13688901 0.00054418499 0.0102117
  vertex 0.0188416 -0.051789101 -0.121005
  vertex 0.13756099 0.00059133698 -0.0051987399
  endloop
 endfacet

 facet normal 0 0 0
  outer loop
  vertex -0.039317302 -0.00421665 -0.028116301
  vertex -0.044412501 -0.0087076891 -0.038501799
  vertex -0.040567402 -0.0190017 -0.036828499
  endloop
 endfacet

 facet normal 0 0 0
  outer loop
  vertex -0.039317302 -0.00421665 -0.028116301
  vertex -0.040567402 -0.0190017 -0.036828499
  vertex -0.034843501 -0.0139181 -0.026153401
  endloop
 endfacet

 facet normal 0 0 0
  outer loop
  vertex 0.091922998 0.00061116496 0.0545111
  vertex 0.085436203 0.065979503 0.0526127
  vertex 0.082189202 0.00056765601 0.055156402
  endloop
 endfacet

 facet normal 0 0 0
  outer loop
  vertex 0.091922998 0.00061116496 0.0545111
  vertex 0.082189202 0.00056765601 0.055156402
  vertex 0.0050816499 -0.044914395 -0.038338702
  endloop
 endfacet

 facet normal 0 0 0
  outer loop
  vertex 0.13038802 0.086852401 0.0052916501
  vertex 0.133242 0.066199303 0.014384
  vertex 0.13517401 0.065814994 -0.0012634801
  endloop
 endfacet

 facet normal 0 0 0
  outer loop
  vertex 0.063672297 0.090569295 0.043158103
  vertex 0.052253999 0.090089299 0.036272001
  vertex 0.051102601 0.067234002 0.042012502
  endloop
 endfacet

 facet normal 0 0 0
  outer loop
  vertex 0.063672297 0.090569295 0.043158103
  vertex 0.075848602 0.0923713 0.045553401
  vertex 0.070087202 0.10103499 0.0350396
  endloop
 endfacet

 facet normal 0 0 0
  outer loop
  vertex 0.063672297 0.090569295 0.043158103
  vertex 0.070087202 0.10103499 0.0350396
  vertex 0.052253999 0.090089299 0.036272001
  endloop
 endfacet

 facet normal 0 0 0
  outer loop
  vertex 0.120542 0.00054633297 0.040057998
  vertex 0.125852 0.065915391 0.030017203
  vertex 0.11596101 0.066544302 0.0405958
  endloop
 endfacet

 facet normal 0 0 0
  outer loop
  vertex 0.120542 0.00054633297 0.040057998
  vertex 0.11596101 0.066544302 0.0405958
  vertex 0.112032 0.00060096401 0.046705
  endloop
 endfacet

 facet normal 0 0 0
  outer loop
  vertex 0.120542 0.00054633297 0.040057998
  vertex 0.112032 0.00060096401 0.046705
  vertex 0.0050816499 -0.044914395 -0.038338702
  endloop
 endfacet

 facet normal 0 0 0
  outer loop
  vertex 0.063815907 0.108261 0.00070359104
  vertex 0.045445599 0.10087099 -0.00246525
  vertex 0.0471173 0.10086999 0.0104199
  endloop
 endfacet

 facet normal 0 0 0
  outer loop
  vertex -0.044975605 0.025028801 -0.070570499
  vertex -0.036817905 0.027215298 -0.040391605
  vertex -0.037785299 0.033266898 -0.0634652
  endloop
 endfacet

 facet normal 0 0 0
  outer loop
  vertex 0.082949206 0.111203 -0.00159605
  vertex 0.074742399 0.109198 -0.013768001
  vertex 0.063815907 0.108261 0.00070359104
  endloop
 endfacet

 facet normal 0 0 0
  outer loop
  vertex 0.082949206 0.111203 -0.00159605
  vertex 0.063815907 0.108261 0.00070359104
  vertex 0.0761002 0.110146 0.0094572296
  endloop
 endfacet

 facet normal 0 0 0
  outer loop
  vertex 0.082949206 0.111203 -0.00159605
  vertex 0.0761002 0.110146 0.0094572296
  vertex 0.091195501 0.109398 0.0126026
  endloop
 endfacet

 facet normal 0 0 0
  outer loop
  vertex 0.082949206 0.111203 -0.00159605
  vertex 0.091195501 0.109398 0.0126026
  vertex 0.099071302 0.108666 -0.0057355203
  endloop
 endfacet

 facet normal 0 0 0
  outer loop
  vertex -0.015855599 -0.038380101 -0.030971102
  vertex 0.059278905 0.00060568302 0.050109904
  vertex -0.028469302 -0.029574899 -0.030170502
  endloop
 endfacet

 facet normal 0 0 0
  outer loop
  vertex -0.015855599 -0.038380101 -0.030971102
  vertex -0.028469302 -0.029574899 -0.030170502
  vertex -0.025242902 -0.037023298 -0.036986198
  endloop
 endfacet

 facet normal 0 0 0
  outer loop
  vertex -0.015855599 -0.038380101 -0.030971102
  vertex -0.0060608899 -0.043347497 -0.034716405
  vertex 0.059278905 0.00060568302 0.050109904
  endloop
 endfacet

 facet normal 0 0 0
  outer loop
  vertex -0.043295905 0.0127464 -0.038093202
  vertex -0.0484019 0.0114506 -0.0598289
  vertex -0.046153605 0.0028087497 -0.041640699
  endloop
 endfacet

 facet normal 0 0 0
  outer loop
  vertex 0.0057352707 -0.054917198 -0.12099801
  vertex -0.0041422402 -0.052751895 -0.0821236
  vertex -0.0071300501 -0.0546677 -0.12099501
  endloop
 endfacet

 facet normal 0 0 0
  outer loop
  vertex 0.0057352707 -0.054917198 -0.12099801
  vertex -0.0071300501 -0.0546677 -0.12099501
  vertex -0.025691902 -0.048999496 -0.12099801
  endloop
 endfacet

 facet normal 0 0 0
  outer loop
  vertex 0.0057352707 -0.054917198 -0.12099801
  vertex -0.025691902 -0.048999496 -0.12099801
  vertex 0.0188416 -0.051789101 -0.121005
  endloop
 endfacet

 facet normal 0 0 0
  outer loop
  vertex -0.054422099 0.0020104498 -0.099662006
  vertex -0.054615404 0.0089147389 -0.12097101
  vertex -0.054645803 -0.0076057799 -0.12099601
  endloop
 endfacet

 facet normal 0 0 0
  outer loop
  vertex -0.054422099 0.0020104498 -0.099662006
  vertex -0.054645803 -0.0076057799 -0.12099601
  vertex -0.050969999 -0.011642499 -0.076610804
  endloop
 endfacet

 facet normal 0 0 0
  outer loop
  vertex -0.033717599 -0.030905098 -0.039762799
  vertex -0.025242902 -0.037023298 -0.036986198
  vertex -0.028469302 -0.029574899 -0.030170502
  endloop
 endfacet

 facet normal 0 0 0
  outer loop
  vertex -0.033717599 -0.030905098 -0.039762799
  vertex -0.040567402 -0.0190017 -0.036828499
  vertex -0.0413705 -0.026752301 -0.0569502
  endloop
 endfacet

 facet normal 0 0 0
  outer loop
  vertex -0.033717599 -0.030905098 -0.039762799
  vertex -0.0413705 -0.026752301 -0.0569502
  vertex -0.036776599 -0.038713995 -0.086750507
  endloop
 endfacet

 facet normal 0 0 0
  outer loop
  vertex -0.051132802 0.0166096 -0.089953601
  vertex -0.049615301 0.024666898 -0.12099301
  vertex -0.054615404 0.0089147389 -0.12097101
  endloop
 endfacet

 facet normal 0 0 0
  outer loop
  vertex -0.051132802 0.0166096 -0.089953601
  vertex -0.054615404 0.0089147389 -0.12097101
  vertex -0.054422099 0.0020104498 -0.099662006
  endloop
 endfacet

 facet normal 0 0 0
  outer loop
  vertex -0.051132802 0.0166096 -0.089953601
  vertex -0.0484019 0.0114506 -0.0598289
  vertex -0.044975605 0.025028801 -0.070570499
  endloop
 endfacet

 facet normal 0 0 0
  outer loop
  vertex -0.051132802 0.0166096 -0.089953601
  vertex -0.044975605 0.025028801 -0.070570499
  vertex -0.049615301 0.024666898 -0.12099301
  endloop
 endfacet

 facet normal 0 0 0
  outer loop
  vertex 0.092583798 0.10821299 -0.015935
  vertex 0.074742399 0.109198 -0.013768001
  vertex 0.082949206 0.111203 -0.00159605
  endloop
 endfacet

 facet normal 0 0 0
  outer loop
  vertex 0.092583798 0.10821299 -0.015935
  vertex 0.082949206 0.111203 -0.00159605
  vertex 0.099071302 0.108666 -0.0057355203
  endloop
 endfacet

 facet normal 0 0 0
  outer loop
  vertex 0.092583798 0.10821299 -0.015935
  vertex 0.099071302 0.108666 -0.0057355203
  vertex 0.11444 0.10100399 -0.0191103
  endloop
 endfacet

 facet normal 0 0 0
  outer loop
  vertex 0.092583798 0.10821299 -0.015935
  vertex 0.11444 0.10100399 -0.0191103
  vertex 0.098648302 0.10106999 -0.033043101
  endloop
 endfacet

 facet normal 0 0 0
  outer loop
  vertex 0.092583798 0.10821299 -0.015935
  vertex 0.098648302 0.10106999 -0.033043101
  vertex 0.078020401 0.10103099 -0.0368324
  endloop
 endfacet

 facet normal 0 0 0
  outer loop
  vertex 0.092583798 0.10821299 -0.015935
  vertex 0.078020401 0.10103099 -0.0368324
  vertex 0.074742399 0.109198 -0.013768001
  endloop
 endfacet

 facet normal 0 0 0
  outer loop
  vertex 0.116384 0.10093299 0.014278501
  vertex 0.106871 0.10100399 0.027908603
  vertex 0.122662 0.093747303 0.0214215
  endloop
 endfacet

 facet normal 0 0 0
  outer loop
  vertex -0.052008301 -0.016770398 -0.10234801
  vertex -0.050969999 -0.011642499 -0.076610804
  vertex -0.054645803 -0.0076057799 -0.12099601
  endloop
 endfacet

 facet normal 0 0 0
  outer loop
  vertex 0.12681401 0.092757598 0.0127863
  vertex 0.133242 0.066199303 0.014384
  vertex 0.13038802 0.086852401 0.0052916501
  endloop
 endfacet

 facet normal 0 0 0
  outer loop
  vertex 0.12681401 0.092757598 0.0127863
  vertex 0.13038802 0.086852401 0.0052916501
  vertex 0.128178 0.093017302 -0.0046627098
  endloop
 endfacet

 facet normal 0 0 0
  outer loop
  vertex 0.12681401 0.092757598 0.0127863
  vertex 0.128178 0.093017302 -0.0046627098
  vertex 0.119397 0.100939 0.00043751299
  endloop
 endfacet

 facet normal 0 0 0
  outer loop
  vertex 0.12681401 0.092757598 0.0127863
  vertex 0.119397 0.100939 0.00043751299
  vertex 0.116384 0.10093299 0.014278501
  endloop
 endfacet

 facet normal 0 0 0
  outer loop
  vertex 0.12681401 0.092757598 0.0127863
  vertex 0.116384 0.10093299 0.014278501
  vertex 0.122662 0.093747303 0.0214215
  endloop
 endfacet

 facet normal 0 0 0
  outer loop
  vertex 0.13497999 0.00058195402 -0.017309301
  vertex 0.133141 0.066125199 -0.0142478
  vertex 0.13756099 0.00059133698 -0.0051987399
  endloop
 endfacet

 facet normal 0 0 0
  outer loop
  vertex 0.13497999 0.00058195402 -0.017309301
  vertex 0.13756099 0.00059133698 -0.0051987399
  vertex 0.032958999 -0.044374902 -0.12099901
  endloop
 endfacet

 facet normal 0 0 0
  outer loop
  vertex 0.13497999 0.00058195402 -0.017309301
  vertex 0.032958999 -0.044374902 -0.12099901
  vertex 0.129196 0.00077645993 -0.0296128
  endloop
 endfacet

 facet normal 0 0 0
  outer loop
  vertex 0.11454701 0.093809098 0.032140303
  vertex 0.104702 0.093488798 0.039999101
  vertex 0.11605401 0.086165696 0.034788199
  endloop
 endfacet

 facet normal 0 0 0
  outer loop
  vertex 0.11454701 0.093809098 0.032140303
  vertex 0.122662 0.093747303 0.0214215
  vertex 0.106871 0.10100399 0.027908603
  endloop
 endfacet

 facet normal 0 0 0
  outer loop
  vertex 0.11454701 0.093809098 0.032140303
  vertex 0.106871 0.10100399 0.027908603
  vertex 0.104702 0.093488798 0.039999101
  endloop
 endfacet

 facet normal 0 0 0
  outer loop
  vertex -0.040366404 0.035095301 -0.0866694
  vertex -0.037086699 0.041023295 -0.121018
  vertex -0.049615301 0.024666898 -0.12099301
  endloop
 endfacet

 facet normal 0 0 0
  outer loop
  vertex -0.040366404 0.035095301 -0.0866694
  vertex -0.049615301 0.024666898 -0.12099301
  vertex -0.044975605 0.025028801 -0.070570499
  endloop
 endfacet

 facet normal 0 0 0
  outer loop
  vertex -0.040366404 0.035095301 -0.0866694
  vertex -0.044975605 0.025028801 -0.070570499
  vertex -0.037785299 0.033266898 -0.0634652
  endloop
 endfacet

 facet normal 0 0 0
  outer loop
  vertex -0.040366404 0.035095301 -0.0866694
  vertex -0.037785299 0.033266898 -0.0634652
  vertex 0.0471173 0.10086999 0.0104199
  endloop
 endfacet

 facet normal 0 0 0
  outer loop
  vertex -0.040366404 0.035095301 -0.0866694
  vertex 0.0471173 0.10086999 0.0104199
  vertex 0.045445599 0.10087099 -0.00246525
  endloop
 endfacet

 facet normal 0 0 0
  outer loop
  vertex -0.040366404 0.035095301 -0.0866694
  vertex 0.045445599 0.10087099 -0.00246525
  vertex -0.037086699 0.041023295 -0.121018
  endloop
 endfacet

 facet normal 0 0 0
  outer loop
  vertex 0.051192202 0.00088455592 0.045464203
  vertex -0.039317302 -0.00421665 -0.028116301
  vertex -0.034843501 -0.0139181 -0.026153401
  endloop
 endfacet

 facet normal 0 0 0
  outer loop
  vertex 0.051192202 0.00088455592 0.045464203
  vertex -0.028469302 -0.029574899 -0.030170502
  vertex 0.059278905 0.00060568302 0.050109904
  endloop
 endfacet

 facet normal 0 0 0
  outer loop
  vertex 0.063755497 0.10692399 -0.0125485
  vertex -0.016675303 0.052757796 -0.121001
  vertex 0.045445599 0.10087099 -0.00246525
  endloop
 endfacet

 facet normal 0 0 0
  outer loop
  vertex 0.063755497 0.10692399 -0.0125485
  vertex 0.045445599 0.10087099 -0.00246525
  vertex 0.063815907 0.108261 0.00070359104
  endloop
 endfacet

 facet normal 0 0 0
  outer loop
  vertex 0.063755497 0.10692399 -0.0125485
  vertex 0.063815907 0.108261 0.00070359104
  vertex 0.074742399 0.109198 -0.013768001
  endloop
 endfacet

 facet normal 0 0 0
  outer loop
  vertex 0.063755497 0.10692399 -0.0125485
  vertex 0.074742399 0.109198 -0.013768001
  vertex -0.016675303 0.052757796 -0.121001
  endloop
 endfacet

 facet normal 0 0 0
  outer loop
  vertex -0.045138102 -0.029589498 -0.092390299
  vertex -0.046753503 -0.0295402 -0.120958
  vertex -0.0378698 -0.040342297 -0.120938
  endloop
 endfacet

 facet normal 0 0 0
  outer loop
  vertex -0.045138102 -0.029589498 -0.092390299
  vertex -0.0378698 -0.040342297 -0.120938
  vertex -0.036776599 -0.038713995 -0.086750507
  endloop
 endfacet

 facet normal 0 0 0
  outer loop
  vertex -0.045138102 -0.029589498 -0.092390299
  vertex -0.036776599 -0.038713995 -0.086750507
  vertex -0.0413705 -0.026752301 -0.0569502
  endloop
 endfacet

 facet normal 0 0 0
  outer loop
  vertex -0.045138102 -0.029589498 -0.092390299
  vertex -0.052008301 -0.016770398 -0.10234801
  vertex -0.046753503 -0.0295402 -0.120958
  endloop
 endfacet

 facet normal 0 0 0
  outer loop
  vertex 0.071485199 0.00056804001 0.054191504
  vertex 0.082189202 0.00056765601 0.055156402
  vertex 0.085436203 0.065979503 0.0526127
  endloop
 endfacet

 facet normal 0 0 0
  outer loop
  vertex 0.071485199 0.00056804001 0.054191504
  vertex 0.085436203 0.065979503 0.0526127
  vertex 0.069430701 0.065545999 0.051013205
  endloop
 endfacet

 facet normal 0 0 0
  outer loop
  vertex 0.071485199 0.00056804001 0.054191504
  vertex 0.069430701 0.065545999 0.051013205
  vertex 0.059278905 0.00060568302 0.050109904
  endloop
 endfacet

 facet normal 0 0 0
  outer loop
  vertex 0.071485199 0.00056804001 0.054191504
  vertex 0.059278905 0.00060568302 0.050109904
  vertex -0.0060608899 -0.043347497 -0.034716405
  endloop
 endfacet

 facet normal 0 0 0
  outer loop
  vertex 0.071485199 0.00056804001 0.054191504
  vertex -0.0060608899 -0.043347497 -0.034716405
  vertex 0.082189202 0.00056765601 0.055156402
  endloop
 endfacet

 facet normal 0 0 0
  outer loop
  vertex -0.021153299 -0.048748899 -0.084459201
  vertex -0.0041422402 -0.052751895 -0.0821236
  vertex -0.0155338 -0.047013797 -0.058545303
  endloop
 endfacet

 facet normal 0 0 0
  outer loop
  vertex -0.021153299 -0.048748899 -0.084459201
  vertex -0.0155338 -0.047013797 -0.058545303
  vertex -0.027532799 -0.044025697 -0.074281797
  endloop
 endfacet

 facet normal 0 0 0
  outer loop
  vertex -0.013153701 -0.043028999 -0.037657302
  vertex -0.0060608899 -0.043347497 -0.034716405
  vertex -0.015855599 -0.038380101 -0.030971102
  endloop
 endfacet

 facet normal 0 0 0
  outer loop
  vertex -0.013153701 -0.043028999 -0.037657302
  vertex -0.015855599 -0.038380101 -0.030971102
  vertex -0.025242902 -0.037023298 -0.036986198
  endloop
 endfacet

 facet normal 0 0 0
  outer loop
  vertex -0.013153701 -0.043028999 -0.037657302
  vertex -0.025242902 -0.037023298 -0.036986198
  vertex -0.0155338 -0.047013797 -0.058545303
  endloop
 endfacet

 facet normal 0 0 0
  outer loop
  vertex -0.043273799 0.00142168 -0.033617299
  vertex -0.038600899 0.012568999 -0.029564699
  vertex -0.043295905 0.0127464 -0.038093202
  endloop
 endfacet

 facet normal 0 0 0
  outer loop
  vertex -0.043273799 0.00142168 -0.033617299
  vertex -0.043295905 0.0127464 -0.038093202
  vertex -0.046153605 0.0028087497 -0.041640699
  endloop
 endfacet

 facet normal 0 0 0
  outer loop
  vertex -0.043273799 0.00142168 -0.033617299
  vertex -0.046153605 0.0028087497 -0.041640699
  vertex -0.044412501 -0.0087076891 -0.038501799
  endloop
 endfacet

 facet normal 0 0 0
  outer loop
  vertex -0.043273799 0.00142168 -0.033617299
  vertex -0.044412501 -0.0087076891 -0.038501799
  vertex -0.039317302 -0.00421665 -0.028116301
  endloop
 endfacet

 facet normal 0 0 0
  outer loop
  vertex 0.121106 0.084974296 -0.029833801
  vertex 0.124558 0.065813802 -0.031581301
  vertex 0.054400802 0.0089683589 -0.12100001
  endloop
 endfacet

 facet normal 0 0 0
  outer loop
  vertex 0.121106 0.084974296 -0.029833801
  vertex 0.054400802 0.0089683589 -0.12100001
  vertex 0.049881205 0.023786601 -0.12100001
  endloop
 endfacet

 facet normal 0 0 0
  outer loop
  vertex 0.121106 0.084974296 -0.029833801
  vertex 0.049881205 0.023786601 -0.12100001
  vertex 0.113908 0.091545291 -0.034438703
  endloop
 endfacet

 facet normal 0 0 0
  outer loop
  vertex 0.121106 0.084974296 -0.029833801
  vertex 0.113908 0.091545291 -0.034438703
  vertex 0.124788 0.0913032 -0.0198981
  endloop
 endfacet

 facet normal 0 0 0
  outer loop
  vertex -0.051531799 0.00095311302 -0.070878305
  vertex -0.046153605 0.0028087497 -0.041640699
  vertex -0.0484019 0.0114506 -0.0598289
  endloop
 endfacet

 facet normal 0 0 0
  outer loop
  vertex -0.051531799 0.00095311302 -0.070878305
  vertex -0.0484019 0.0114506 -0.0598289
  vertex -0.051132802 0.0166096 -0.089953601
  endloop
 endfacet

 facet normal 0 0 0
  outer loop
  vertex -0.051531799 0.00095311302 -0.070878305
  vertex -0.051132802 0.0166096 -0.089953601
  vertex -0.054422099 0.0020104498 -0.099662006
  endloop
 endfacet

 facet normal 0 0 0
  outer loop
  vertex -0.051531799 0.00095311302 -0.070878305
  vertex -0.054422099 0.0020104498 -0.099662006
  vertex -0.050969999 -0.011642499 -0.076610804
  endloop
 endfacet

 facet normal 0 0 0
  outer loop
  vertex -0.051531799 0.00095311302 -0.070878305
  vertex -0.050969999 -0.011642499 -0.076610804
  vertex -0.044412501 -0.0087076891 -0.038501799
  endloop
 endfacet

 facet normal 0 0 0
  outer loop
  vertex -0.051531799 0.00095311302 -0.070878305
  vertex -0.044412501 -0.0087076891 -0.038501799
  vertex -0.046153605 0.0028087497 -0.041640699
  endloop
 endfacet

 facet normal 0 0 0
  outer loop
  vertex -0.0038837399 -0.049675196 -0.0600692
  vertex -0.0060608899 -0.043347497 -0.034716405
  vertex -0.013153701 -0.043028999 -0.037657302
  endloop
 endfacet

 facet normal 0 0 0
  outer loop
  vertex -0.0038837399 -0.049675196 -0.0600692
  vertex -0.013153701 -0.043028999 -0.037657302
  vertex -0.0155338 -0.047013797 -0.058545303
  endloop
 endfacet

 facet normal 0 0 0
  outer loop
  vertex -0.0038837399 -0.049675196 -0.0600692
  vertex -0.0155338 -0.047013797 -0.058545303
  vertex -0.0041422402 -0.052751895 -0.0821236
  endloop
 endfacet

 facet normal 0 0 0
  outer loop
  vertex -0.0038837399 -0.049675196 -0.0600692
  vertex -0.0041422402 -0.052751895 -0.0821236
  vertex 0.0111526 -0.050958697 -0.075627208
  endloop
 endfacet

 facet normal 0 0 0
  outer loop
  vertex -0.0038837399 -0.049675196 -0.0600692
  vertex 0.0111526 -0.050958697 -0.075627208
  vertex 0.0050816499 -0.044914395 -0.038338702
  endloop
 endfacet

 facet normal 0 0 0
  outer loop
  vertex -0.0038837399 -0.049675196 -0.0600692
  vertex 0.0050816499 -0.044914395 -0.038338702
  vertex -0.0060608899 -0.043347497 -0.034716405
  endloop
 endfacet

 facet normal 0 0 0
  outer loop
  vertex -0.051607303 -0.0193948 -0.12100001
  vertex -0.046753503 -0.0295402 -0.120958
  vertex -0.052008301 -0.016770398 -0.10234801
  endloop
 endfacet

 facet normal 0 0 0
  outer loop
  vertex -0.051607303 -0.0193948 -0.12100001
  vertex -0.052008301 -0.016770398 -0.10234801
  vertex -0.054645803 -0.0076057799 -0.12099601
  endloop
 endfacet

 facet normal 0 0 0
  outer loop
  vertex -0.051607303 -0.0193948 -0.12100001
  vertex -0.054645803 -0.0076057799 -0.12099601
  vertex -0.037086699 0.041023295 -0.121018
  endloop
 endfacet

 facet normal 0 0 0
  outer loop
  vertex -0.051607303 -0.0193948 -0.12100001
  vertex -0.037086699 0.041023295 -0.121018
  vertex 0.0188416 -0.051789101 -0.121005
  endloop
 endfacet

 facet normal 0 0 0
  outer loop
  vertex -0.051607303 -0.0193948 -0.12100001
  vertex 0.0188416 -0.051789101 -0.121005
  vertex -0.025691902 -0.048999496 -0.12099801
  endloop
 endfacet

 facet normal 0 0 0
  outer loop
  vertex -0.051607303 -0.0193948 -0.12100001
  vertex -0.025691902 -0.048999496 -0.12099801
  vertex -0.046753503 -0.0295402 -0.120958
  endloop
 endfacet

 facet normal 0 0 0
  outer loop
  vertex 0.077776797 0.085805193 0.048396803
  vertex 0.075848602 0.0923713 0.045553401
  vertex 0.063672297 0.090569295 0.043158103
  endloop
 endfacet

 facet normal 0 0 0
  outer loop
  vertex 0.077776797 0.085805193 0.048396803
  vertex 0.063672297 0.090569295 0.043158103
  vertex 0.069430701 0.065545999 0.051013205
  endloop
 endfacet

 facet normal 0 0 0
  outer loop
  vertex 0.077776797 0.085805193 0.048396803
  vertex 0.069430701 0.065545999 0.051013205
  vertex 0.085436203 0.065979503 0.0526127
  endloop
 endfacet

 facet normal 0 0 0
  outer loop
  vertex 0.077776797 0.085805193 0.048396803
  vertex 0.085436203 0.065979503 0.0526127
  vertex 0.090231307 0.092297897 0.045706704
  endloop
 endfacet

 facet normal 0 0 0
  outer loop
  vertex 0.077776797 0.085805193 0.048396803
  vertex 0.090231307 0.092297897 0.045706704
  vertex 0.075848602 0.0923713 0.045553401
  endloop
 endfacet

 facet normal 0 0 0
  outer loop
  vertex 0.104194 0.086448692 0.043301001
  vertex 0.106453 0.065610498 0.0468808
  vertex 0.11596101 0.066544302 0.0405958
  endloop
 endfacet

 facet normal 0 0 0
  outer loop
  vertex 0.104194 0.086448692 0.043301001
  vertex 0.11596101 0.066544302 0.0405958
  vertex 0.11605401 0.086165696 0.034788199
  endloop
 endfacet

 facet normal 0 0 0
  outer loop
  vertex 0.104194 0.086448692 0.043301001
  vertex 0.11605401 0.086165696 0.034788199
  vertex 0.104702 0.093488798 0.039999101
  endloop
 endfacet

 facet normal 0 0 0
  outer loop
  vertex 0.104194 0.086448692 0.043301001
  vertex 0.104702 0.093488798 0.039999101
  vertex 0.090231307 0.092297897 0.045706704
  endloop
 endfacet

 facet normal 0 0 0
  outer loop
  vertex -0.039756201 0.020914499 -0.037129499
  vertex -0.036817905 0.027215298 -0.040391605
  vertex -0.044975605 0.025028801 -0.070570499
  endloop
 endfacet

 facet normal 0 0 0
  outer loop
  vertex -0.039756201 0.020914499 -0.037129499
  vertex -0.044975605 0.025028801 -0.070570499
  vertex -0.0484019 0.0114506 -0.0598289
  endloop
 endfacet

 facet normal 0 0 0
  outer loop
  vertex -0.039756201 0.020914499 -0.037129499
  vertex -0.0484019 0.0114506 -0.0598289
  vertex -0.043295905 0.0127464 -0.038093202
  endloop
 endfacet

 facet normal 0 0 0
  outer loop
  vertex -0.039756201 0.020914499 -0.037129499
  vertex -0.043295905 0.0127464 -0.038093202
  vertex -0.038600899 0.012568999 -0.029564699
  endloop
 endfacet

 facet normal 0 0 0
  outer loop
  vertex -0.039756201 0.020914499 -0.037129499
  vertex -0.038600899 0.012568999 -0.029564699
  vertex 0.041278299 0.089486003 0.022893403
  endloop
 endfacet

 facet normal 0 0 0
  outer loop
  vertex -0.039756201 0.020914499 -0.037129499
  vertex 0.041278299 0.089486003 0.022893403
  vertex -0.036817905 0.027215298 -0.040391605
  endloop
 endfacet

 facet normal 0 0 0
  outer loop
  vertex 0.097132705 0.066308789 0.050464302
  vertex 0.106453 0.065610498 0.0468808
  vertex 0.104194 0.086448692 0.043301001
  endloop
 endfacet

 facet normal 0 0 0
  outer loop
  vertex 0.097132705 0.066308789 0.050464302
  vertex 0.104194 0.086448692 0.043301001
  vertex 0.090231307 0.092297897 0.045706704
  endloop
 endfacet

 facet normal 0 0 0
  outer loop
  vertex 0.097132705 0.066308789 0.050464302
  vertex 0.090231307 0.092297897 0.045706704
  vertex 0.085436203 0.065979503 0.0526127
  endloop
 endfacet

 facet normal 0 0 0
  outer loop
  vertex 0.097132705 0.066308789 0.050464302
  vertex 0.085436203 0.065979503 0.0526127
  vertex 0.091922998 0.00061116496 0.0545111
  endloop
 endfacet

 facet normal 0 0 0
  outer loop
  vertex 0.10158801 0.10771299 0.0066541405
  vertex 0.091195501 0.109398 0.0126026
  vertex 0.106871 0.10100399 0.027908603
  endloop
 endfacet

 facet normal 0 0 0
  outer loop
  vertex 0.10158801 0.10771299 0.0066541405
  vertex 0.106871 0.10100399 0.027908603
  vertex 0.116384 0.10093299 0.014278501
  endloop
 endfacet

 facet normal 0 0 0
  outer loop
  vertex 0.10158801 0.10771299 0.0066541405
  vertex 0.116384 0.10093299 0.014278501
  vertex 0.119397 0.100939 0.00043751299
  endloop
 endfacet

 facet normal 0 0 0
  outer loop
  vertex 0.10158801 0.10771299 0.0066541405
  vertex 0.119397 0.100939 0.00043751299
  vertex 0.099071302 0.108666 -0.0057355203
  endloop
 endfacet

 facet normal 0 0 0
  outer loop
  vertex 0.10158801 0.10771299 0.0066541405
  vertex 0.099071302 0.108666 -0.0057355203
  vertex 0.091195501 0.109398 0.0126026
  endloop
 endfacet

 facet normal 0 0 0
  outer loop
  vertex 0.130133 0.086717695 -0.00825564
  vertex 0.128178 0.093017302 -0.0046627098
  vertex 0.13038802 0.086852401 0.0052916501
  endloop
 endfacet

 facet normal 0 0 0
  outer loop
  vertex 0.130133 0.086717695 -0.00825564
  vertex 0.13038802 0.086852401 0.0052916501
  vertex 0.13517401 0.065814994 -0.0012634801
  endloop
 endfacet

 facet normal 0 0 0
  outer loop
  vertex 0.130133 0.086717695 -0.00825564
  vertex 0.13517401 0.065814994 -0.0012634801
  vertex 0.133141 0.066125199 -0.0142478
  endloop
 endfacet

 facet normal 0 0 0
  outer loop
  vertex 0.130133 0.086717695 -0.00825564
  vertex 0.133141 0.066125199 -0.0142478
  vertex 0.124788 0.0913032 -0.0198981
  endloop
 endfacet

 facet normal 0 0 0
  outer loop
  vertex 0.130133 0.086717695 -0.00825564
  vertex 0.124788 0.0913032 -0.0198981
  vertex 0.128178 0.093017302 -0.0046627098
  endloop
 endfacet

 facet normal 0 0 0
  outer loop
  vertex 0.124245 0.086628199 0.024383999
  vertex 0.122662 0.093747303 0.0214215
  vertex 0.11454701 0.093809098 0.032140303
  endloop
 endfacet

 facet normal 0 0 0
  outer loop
  vertex 0.124245 0.086628199 0.024383999
  vertex 0.11454701 0.093809098 0.032140303
  vertex 0.11605401 0.086165696 0.034788199
  endloop
 endfacet

 facet normal 0 0 0
  outer loop
  vertex 0.124245 0.086628199 0.024383999
  vertex 0.11605401 0.086165696 0.034788199
  vertex 0.125852 0.065915391 0.030017203
  endloop
 endfacet

 facet normal 0 0 0
  outer loop
  vertex 0.124245 0.086628199 0.024383999
  vertex 0.125852 0.065915391 0.030017203
  vertex 0.133242 0.066199303 0.014384
  endloop
 endfacet

 facet normal 0 0 0
  outer loop
  vertex 0.124245 0.086628199 0.024383999
  vertex 0.133242 0.066199303 0.014384
  vertex 0.12681401 0.092757598 0.0127863
  endloop
 endfacet

 facet normal 0 0 0
  outer loop
  vertex 0.124245 0.086628199 0.024383999
  vertex 0.12681401 0.092757598 0.0127863
  vertex 0.122662 0.093747303 0.0214215
  endloop
 endfacet

 facet normal 0 0 0
  outer loop
  vertex 0.059347603 0.066194803 0.047189102
  vertex 0.059278905 0.00060568302 0.050109904
  vertex 0.069430701 0.065545999 0.051013205
  endloop
 endfacet

 facet normal 0 0 0
  outer loop
  vertex 0.059347603 0.066194803 0.047189102
  vertex 0.069430701 0.065545999 0.051013205
  vertex 0.063672297 0.090569295 0.043158103
  endloop
 endfacet

 facet normal 0 0 0
  outer loop
  vertex 0.059347603 0.066194803 0.047189102
  vertex 0.063672297 0.090569295 0.043158103
  vertex 0.051102601 0.067234002 0.042012502
  endloop
 endfacet

 facet normal 0 0 0
  outer loop
  vertex 0.059347603 0.066194803 0.047189102
  vertex 0.051102601 0.067234002 0.042012502
  vertex 0.051192202 0.00088455592 0.045464203
  endloop
 endfacet

 facet normal 0 0 0
  outer loop
  vertex 0.059347603 0.066194803 0.047189102
  vertex 0.051192202 0.00088455592 0.045464203
  vertex 0.059278905 0.00060568302 0.050109904
  endloop
 endfacet

 facet normal 0 0 0
  outer loop
  vertex -0.018800899 -0.051550895 -0.10790101
  vertex -0.0071300501 -0.0546677 -0.12099501
  vertex -0.0041422402 -0.052751895 -0.0821236
  endloop
 endfacet

 facet normal 0 0 0
  outer loop
  vertex -0.018800899 -0.051550895 -0.10790101
  vertex -0.0041422402 -0.052751895 -0.0821236
  vertex -0.021153299 -0.048748899 -0.084459201
  endloop
 endfacet

 facet normal 0 0 0
  outer loop
  vertex -0.018800899 -0.051550895 -0.10790101
  vertex -0.025691902 -0.048999496 -0.12099801
  vertex -0.0071300501 -0.0546677 -0.12099501
  endloop
 endfacet

 facet normal 0 0 0
  outer loop
  vertex 0.10246701 0.00056442898 0.051468905
  vertex 0.106453 0.065610498 0.0468808
  vertex 0.097132705 0.066308789 0.050464302
  endloop
 endfacet

 facet normal 0 0 0
  outer loop
  vertex 0.10246701 0.00056442898 0.051468905
  vertex 0.097132705 0.066308789 0.050464302
  vertex 0.091922998 0.00061116496 0.0545111
  endloop
 endfacet

 facet normal 0 0 0
  outer loop
  vertex 0.10246701 0.00056442898 0.051468905
  vertex 0.091922998 0.00061116496 0.0545111
  vertex 0.0050816499 -0.044914395 -0.038338702
  endloop
 endfacet

 facet normal 0 0 0
  outer loop
  vertex 0.10246701 0.00056442898 0.051468905
  vertex 0.0050816499 -0.044914395 -0.038338702
  vertex 0.112032 0.00060096401 0.046705
  endloop
 endfacet

 facet normal 0 0 0
  outer loop
  vertex 0.10246701 0.00056442898 0.051468905
  vertex 0.112032 0.00060096401 0.046705
  vertex 0.106453 0.065610498 0.0468808
  endloop
 endfacet

 facet normal 0 0 0
  outer loop
  vertex 0.085342504 0.108684 0.017137
  vertex 0.091195501 0.109398 0.0126026
  vertex 0.0761002 0.110146 0.0094572296
  endloop
 endfacet

 facet normal 0 0 0
  outer loop
  vertex 0.085342504 0.108684 0.017137
  vertex 0.0761002 0.110146 0.0094572296
  vertex 0.070087202 0.10103499 0.0350396
  endloop
 endfacet

 facet normal 0 0 0
  outer loop
  vertex 0.085342504 0.108684 0.017137
  vertex 0.070087202 0.10103499 0.0350396
  vertex 0.090021007 0.100948 0.036132801
  endloop
 endfacet

 facet normal 0 0 0
  outer loop
  vertex 0.085342504 0.108684 0.017137
  vertex 0.090021007 0.100948 0.036132801
  vertex 0.091195501 0.109398 0.0126026
  endloop
 endfacet

 facet normal 0 0 0
  outer loop
  vertex -0.0360201 -0.022938199 -0.032648701
  vertex -0.034843501 -0.0139181 -0.026153401
  vertex -0.040567402 -0.0190017 -0.036828499
  endloop
 endfacet

 facet normal 0 0 0
  outer loop
  vertex -0.0360201 -0.022938199 -0.032648701
  vertex -0.040567402 -0.0190017 -0.036828499
  vertex -0.033717599 -0.030905098 -0.039762799
  endloop
 endfacet

 facet normal 0 0 0
  outer loop
  vertex -0.0360201 -0.022938199 -0.032648701
  vertex -0.033717599 -0.030905098 -0.039762799
  vertex -0.028469302 -0.029574899 -0.030170502
  endloop
 endfacet

 facet normal 0 0 0
  outer loop
  vertex 0.130017 0.065350696 -0.0227708
  vertex 0.124558 0.065813802 -0.031581301
  vertex 0.121106 0.084974296 -0.029833801
  endloop
 endfacet

 facet normal 0 0 0
  outer loop
  vertex 0.130017 0.065350696 -0.0227708
  vertex 0.121106 0.084974296 -0.029833801
  vertex 0.124788 0.0913032 -0.0198981
  endloop
 endfacet

 facet normal 0 0 0
  outer loop
  vertex 0.130017 0.065350696 -0.0227708
  vertex 0.124788 0.0913032 -0.0198981
  vertex 0.133141 0.066125199 -0.0142478
  endloop
 endfacet

 facet normal 0 0 0
  outer loop
  vertex 0.130017 0.065350696 -0.0227708
  vertex 0.133141 0.066125199 -0.0142478
  vertex 0.13497999 0.00058195402 -0.017309301
  endloop
 endfacet

 facet normal 0 0 0
  outer loop
  vertex 0.130017 0.065350696 -0.0227708
  vertex 0.13497999 0.00058195402 -0.017309301
  vertex 0.129196 0.00077645993 -0.0296128
  endloop
 endfacet

 facet normal 0 0 0
  outer loop
  vertex 0.130017 0.065350696 -0.0227708
  vertex 0.129196 0.00077645993 -0.0296128
  vertex 0.124558 0.065813802 -0.031581301
  endloop
 endfacet

 facet normal 0 0 0
  outer loop
  vertex -0.0454068 -0.0182906 -0.0554967
  vertex -0.0413705 -0.026752301 -0.0569502
  vertex -0.040567402 -0.0190017 -0.036828499
  endloop
 endfacet

 facet normal 0 0 0
  outer loop
  vertex -0.0454068 -0.0182906 -0.0554967
  vertex -0.040567402 -0.0190017 -0.036828499
  vertex -0.044412501 -0.0087076891 -0.038501799
  endloop
 endfacet

 facet normal 0 0 0
  outer loop
  vertex -0.0454068 -0.0182906 -0.0554967
  vertex -0.044412501 -0.0087076891 -0.038501799
  vertex -0.050969999 -0.011642499 -0.076610804
  endloop
 endfacet

 facet normal 0 0 0
  outer loop
  vertex 0.0138294 -0.052765898 -0.10119101
  vertex 0.0111526 -0.050958697 -0.075627208
  vertex -0.0041422402 -0.052751895 -0.0821236
  endloop
 endfacet

 facet normal 0 0 0
  outer loop
  vertex 0.0138294 -0.052765898 -0.10119101
  vertex -0.0041422402 -0.052751895 -0.0821236
  vertex 0.0057352707 -0.054917198 -0.12099801
  endloop
 endfacet

 facet normal 0 0 0
  outer loop
  vertex 0.0138294 -0.052765898 -0.10119101
  vertex 0.0057352707 -0.054917198 -0.12099801
  vertex 0.0188416 -0.051789101 -0.121005
  endloop
 endfacet

 facet normal 0 0 0
  outer loop
  vertex 0.0138294 -0.052765898 -0.10119101
  vertex 0.0188416 -0.051789101 -0.121005
  vertex 0.13688901 0.00054418499 0.0102117
  endloop
 endfacet

 facet normal 0 0 0
  outer loop
  vertex 0.0138294 -0.052765898 -0.10119101
  vertex 0.13688901 0.00054418499 0.0102117
  vertex 0.0111526 -0.050958697 -0.075627208
  endloop
 endfacet

 facet normal 0 0 0
  outer loop
  vertex -0.037862599 0.0027258999 -0.026501101
  vertex -0.038600899 0.012568999 -0.029564699
  vertex -0.043273799 0.00142168 -0.033617299
  endloop
 endfacet

 facet normal 0 0 0
  outer loop
  vertex -0.037862599 0.0027258999 -0.026501101
  vertex -0.043273799 0.00142168 -0.033617299
  vertex -0.039317302 -0.00421665 -0.028116301
  endloop
 endfacet

 facet normal 0 0 0
  outer loop
  vertex -0.037862599 0.0027258999 -0.026501101
  vertex -0.039317302 -0.00421665 -0.028116301
  vertex 0.051192202 0.00088455592 0.045464203
  endloop
 endfacet

 facet normal 0 0 0
  outer loop
  vertex -0.037862599 0.0027258999 -0.026501101
  vertex 0.051192202 0.00088455592 0.045464203
  vertex 0.051102601 0.067234002 0.042012502
  endloop
 endfacet

 facet normal 0 0 0
  outer loop
  vertex -0.037862599 0.0027258999 -0.026501101
  vertex 0.051102601 0.067234002 0.042012502
  vertex -0.038600899 0.012568999 -0.029564699
  endloop
 endfacet

 facet normal 0 0 0
  outer loop
  vertex -0.030186903 -0.0231463 -0.026645001
  vertex -0.028469302 -0.029574899 -0.030170502
  vertex 0.051192202 0.00088455592 0.045464203
  endloop
 endfacet

 facet normal 0 0 0
  outer loop
  vertex -0.030186903 -0.0231463 -0.026645001
  vertex 0.051192202 0.00088455592 0.045464203
  vertex -0.034843501 -0.0139181 -0.026153401
  endloop
 endfacet

 facet normal 0 0 0
  outer loop
  vertex -0.030186903 -0.0231463 -0.026645001
  vertex -0.034843501 -0.0139181 -0.026153401
  vertex -0.0360201 -0.022938199 -0.032648701
  endloop
 endfacet

 facet normal 0 0 0
  outer loop
  vertex -0.030186903 -0.0231463 -0.026645001
  vertex -0.0360201 -0.022938199 -0.032648701
  vertex -0.028469302 -0.029574899 -0.030170502
  endloop
 endfacet

 facet normal 0 0 0
  outer loop
  vertex -0.048066299 -0.0215763 -0.0803416
  vertex -0.045138102 -0.029589498 -0.092390299
  vertex -0.0413705 -0.026752301 -0.0569502
  endloop
 endfacet

 facet normal 0 0 0
  outer loop
  vertex -0.048066299 -0.0215763 -0.0803416
  vertex -0.0413705 -0.026752301 -0.0569502
  vertex -0.0454068 -0.0182906 -0.0554967
  endloop
 endfacet

 facet normal 0 0 0
  outer loop
  vertex -0.048066299 -0.0215763 -0.0803416
  vertex -0.0454068 -0.0182906 -0.0554967
  vertex -0.050969999 -0.011642499 -0.076610804
  endloop
 endfacet

 facet normal 0 0 0
  outer loop
  vertex -0.048066299 -0.0215763 -0.0803416
  vertex -0.050969999 -0.011642499 -0.076610804
  vertex -0.052008301 -0.016770398 -0.10234801
  endloop
 endfacet

 facet normal 0 0 0
  outer loop
  vertex -0.048066299 -0.0215763 -0.0803416
  vertex -0.052008301 -0.016770398 -0.10234801
  vertex -0.045138102 -0.029589498 -0.092390299
  endloop
 endfacet

 facet normal 0 0 0
  outer loop
  vertex 0.127308 0.00050727901 0.032247402
  vertex 0.125852 0.065915391 0.030017203
  vertex 0.120542 0.00054633297 0.040057998
  endloop
 endfacet

 facet normal 0 0 0
  outer loop
  vertex 0.127308 0.00050727901 0.032247402
  vertex 0.120542 0.00054633297 0.040057998
  vertex 0.0050816499 -0.044914395 -0.038338702
  endloop
 endfacet

 facet normal 0 0 0
  outer loop
  vertex 0.127308 0.00050727901 0.032247402
  vertex 0.0050816499 -0.044914395 -0.038338702
  vertex 0.0111526 -0.050958697 -0.075627208
  endloop
 endfacet

 facet normal 0 0 0
  outer loop
  vertex 0.127308 0.00050727901 0.032247402
  vertex 0.0111526 -0.050958697 -0.075627208
  vertex 0.13237801 0.00060845999 0.023833102
  endloop
 endfacet

 facet normal 0 0 0
  outer loop
  vertex 0.127308 0.00050727901 0.032247402
  vertex 0.13237801 0.00060845999 0.023833102
  vertex 0.125852 0.065915391 0.030017203
  endloop
 endfacet

 facet normal 0 0 0
  outer loop
  vertex 0.066635303 0.10790999 0.011381501
  vertex 0.0761002 0.110146 0.0094572296
  vertex 0.063815907 0.108261 0.00070359104
  endloop
 endfacet

 facet normal 0 0 0
  outer loop
  vertex 0.066635303 0.10790999 0.011381501
  vertex 0.063815907 0.108261 0.00070359104
  vertex 0.0471173 0.10086999 0.0104199
  endloop
 endfacet

 facet normal 0 0 0
  outer loop
  vertex 0.066635303 0.10790999 0.011381501
  vertex 0.0471173 0.10086999 0.0104199
  vertex 0.053134099 0.10090899 0.0224573
  endloop
 endfacet

 facet normal 0 0 0
  outer loop
  vertex 0.066635303 0.10790999 0.011381501
  vertex 0.053134099 0.10090899 0.0224573
  vertex 0.070087202 0.10103499 0.0350396
  endloop
 endfacet

 facet normal 0 0 0
  outer loop
  vertex 0.066635303 0.10790999 0.011381501
  vertex 0.070087202 0.10103499 0.0350396
  vertex 0.0761002 0.110146 0.0094572296
  endloop
 endfacet

 facet normal 0 0 0
  outer loop
  vertex -0.029421402 -0.039623599 -0.057483204
  vertex -0.025242902 -0.037023298 -0.036986198
  vertex -0.033717599 -0.030905098 -0.039762799
  endloop
 endfacet

 facet normal 0 0 0
  outer loop
  vertex -0.029421402 -0.039623599 -0.057483204
  vertex -0.033717599 -0.030905098 -0.039762799
  vertex -0.036776599 -0.038713995 -0.086750507
  endloop
 endfacet

 facet normal 0 0 0
  outer loop
  vertex -0.029421402 -0.039623599 -0.057483204
  vertex -0.036776599 -0.038713995 -0.086750507
  vertex -0.027532799 -0.044025697 -0.074281797
  endloop
 endfacet

 facet normal 0 0 0
  outer loop
  vertex -0.029421402 -0.039623599 -0.057483204
  vertex -0.027532799 -0.044025697 -0.074281797
  vertex -0.0155338 -0.047013797 -0.058545303
  endloop
 endfacet

 facet normal 0 0 0
  outer loop
  vertex -0.029421402 -0.039623599 -0.057483204
  vertex -0.0155338 -0.047013797 -0.058545303
  vertex -0.025242902 -0.037023298 -0.036986198
  endloop
 endfacet

 facet normal 0 0 0
  outer loop
  vertex -0.028926402 -0.045977 -0.09807881
  vertex -0.027532799 -0.044025697 -0.074281797
  vertex -0.036776599 -0.038713995 -0.086750507
  endloop
 endfacet

 facet normal 0 0 0
  outer loop
  vertex -0.028926402 -0.045977 -0.09807881
  vertex -0.036776599 -0.038713995 -0.086750507
  vertex -0.0378698 -0.040342297 -0.120938
  endloop
 endfacet

 facet normal 0 0 0
  outer loop
  vertex -0.028926402 -0.045977 -0.09807881
  vertex -0.0378698 -0.040342297 -0.120938
  vertex -0.025691902 -0.048999496 -0.12099801
  endloop
 endfacet

 facet normal 0 0 0
  outer loop
  vertex -0.028926402 -0.045977 -0.09807881
  vertex -0.025691902 -0.048999496 -0.12099801
  vertex -0.018800899 -0.051550895 -0.10790101
  endloop
 endfacet

 facet normal 0 0 0
  outer loop
  vertex -0.028926402 -0.045977 -0.09807881
  vertex -0.018800899 -0.051550895 -0.10790101
  vertex -0.021153299 -0.048748899 -0.084459201
  endloop
 endfacet

 facet normal 0 0 0
  outer loop
  vertex -0.028926402 -0.045977 -0.09807881
  vertex -0.021153299 -0.048748899 -0.084459201
  vertex -0.027532799 -0.044025697 -0.074281797
  endloop
 endfacet

endsolidAssimpScene
