solid AssimpScene
 facet normal 0 0 0
  outer loop
  vertex -0.0299749 -0.0321946 0.052039005
  vertex -0.037013199 -0.023884999 0.052071001
  vertex -0.042725001 -0.0104429 0.052063599
  endloop
 endfacet

 facet normal 0 0 0
  outer loop
  vertex -0.0299749 -0.0321946 0.052039005
  vertex -0.042725001 -0.0104429 0.052063599
  vertex -0.0440346 -0.00161988 0.052073698
  endloop
 endfacet

 facet normal 0 0 0
  outer loop
  vertex -0.0299749 -0.0321946 0.052039005
  vertex -0.0440346 -0.00161988 0.052073698
  vertex -0.043266401 0.0085255103 0.052097298
  endloop
 endfacet

 facet normal 0 0 0
  outer loop
  vertex -0.0299749 -0.0321946 0.052039005
  vertex -0.043266401 0.0085255103 0.052097298
  vertex -0.0400378 0.018477399 0.052094802
  endloop
 endfacet

 facet normal 0 0 0
  outer loop
  vertex -0.0299749 -0.0321946 0.052039005
  vertex -0.0400378 0.018477399 0.052094802
  vertex -0.034472797 0.027531801 0.052108202
  endloop
 endfacet

 facet normal 0 0 0
  outer loop
  vertex -0.0299749 -0.0321946 0.052039005
  vertex -0.034472797 0.027531801 0.052108202
  vertex -0.0287566 0.033325899 0.0521097
  endloop
 endfacet

 facet normal 0 0 0
  outer loop
  vertex -0.0299749 -0.0321946 0.052039005
  vertex -0.0287566 0.033325899 0.0521097
  vertex -0.0232013 0.037466496 0.052085999
  endloop
 endfacet

 facet normal 0 0 0
  outer loop
  vertex -0.0299749 -0.0321946 0.052039005
  vertex -0.0232013 0.037466496 0.052085999
  vertex -0.0132719 0.041874599 0.0520049
  endloop
 endfacet

 facet normal 0 0 0
  outer loop
  vertex -0.0299749 -0.0321946 0.052039005
  vertex -0.0132719 0.041874599 0.0520049
  vertex -0.00294573 0.043820299 0.052000199
  endloop
 endfacet

 facet normal 0 0 0
  outer loop
  vertex -0.0299749 -0.0321946 0.052039005
  vertex -0.00294573 0.043820299 0.052000199
  vertex 0.0137097 0.042013399 0.052002601
  endloop
 endfacet

 facet normal 0 0 0
  outer loop
  vertex -0.0299749 -0.0321946 0.052039005
  vertex 0.0137097 0.042013399 0.052002601
  vertex 0.031150701 0.031214699 0.051990502
  endloop
 endfacet

 facet normal 0 0 0
  outer loop
  vertex -0.0299749 -0.0321946 0.052039005
  vertex 0.031150701 0.031214699 0.051990502
  vertex 0.042535 0.012074799 0.052002501
  endloop
 endfacet

 facet normal 0 0 0
  outer loop
  vertex -0.0299749 -0.0321946 0.052039005
  vertex 0.042535 0.012074799 0.052002501
  vertex 0.043768302 -0.0034676599 0.052000403
  endloop
 endfacet

 facet normal 0 0 0
  outer loop
  vertex -0.0299749 -0.0321946 0.052039005
  vertex 0.043768302 -0.0034676599 0.052000403
  vertex 0.0405875 -0.0172367 0.052040104
  endloop
 endfacet

 facet normal 0 0 0
  outer loop
  vertex -0.0299749 -0.0321946 0.052039005
  vertex 0.0405875 -0.0172367 0.052040104
  vertex 0.0277464 -0.034283001 0.052052002
  endloop
 endfacet

 facet normal 0 0 0
  outer loop
  vertex -0.0299749 -0.0321946 0.052039005
  vertex 0.0277464 -0.034283001 0.052052002
  vertex 0.0182619 -0.040126897 0.052101102
  endloop
 endfacet

 facet normal 0 0 0
  outer loop
  vertex -0.0299749 -0.0321946 0.052039005
  vertex 0.0182619 -0.040126897 0.052101102
  vertex 0.0085169803 -0.043262701 0.0521053
  endloop
 endfacet

 facet normal 0 0 0
  outer loop
  vertex -0.0299749 -0.0321946 0.052039005
  vertex 0.0085169803 -0.043262701 0.0521053
  vertex -0.0010181299 -0.044029601 0.052071001
  endloop
 endfacet

 facet normal 0 0 0
  outer loop
  vertex -0.0299749 -0.0321946 0.052039005
  vertex -0.0010181299 -0.044029601 0.052071001
  vertex -0.0117819 -0.042408597 0.052054703
  endloop
 endfacet

 facet normal 0 0 0
  outer loop
  vertex -0.0299749 -0.0321946 0.052039005
  vertex -0.0117819 -0.042408597 0.052054703
  vertex -0.021465 -0.0383734 0.052004099
  endloop
 endfacet

 facet normal 0 0 0
  outer loop
  vertex 0.022050399 0.022362499 0.10681801
  vertex 0.031086899 -0.0014967599 0.106799
  vertex 0.077637002 0.035709102 0.095991105
  endloop
 endfacet

 facet normal 0 0 0
  outer loop
  vertex -0.036570001 0.024465498 0.096558303
  vertex -0.0400378 0.018477399 0.052094802
  vertex -0.042959999 0.0090409201 0.096820198
  endloop
 endfacet

 facet normal 0 0 0
  outer loop
  vertex -0.036570001 0.024465498 0.096558303
  vertex -0.0225321 0.0207093 0.1068
  vertex -0.027494499 0.034204502 0.096754797
  endloop
 endfacet

 facet normal 0 0 0
  outer loop
  vertex 0.031150701 0.031214699 0.051990502
  vertex 0.064352296 0.0579626 0.078304298
  vertex 0.079327799 0.037021395 0.076647103
  endloop
 endfacet

 facet normal 0 0 0
  outer loop
  vertex 0.031150701 0.031214699 0.051990502
  vertex 0.079327799 0.037021395 0.076647103
  vertex 0.042535 0.012074799 0.052002501
  endloop
 endfacet

 facet normal 0 0 0
  outer loop
  vertex -0.0117819 -0.042408597 0.052054703
  vertex -0.035310399 -0.040737398 0.0846138
  vertex -0.021465 -0.0383734 0.052004099
  endloop
 endfacet

 facet normal 0 0 0
  outer loop
  vertex 0.0215296 -0.038274299 0.096689001
  vertex 0.0277464 -0.034283001 0.052052002
  vertex 0.0333841 -0.028651698 0.0966786
  endloop
 endfacet

 facet normal 0 0 0
  outer loop
  vertex 0.0215296 -0.038274299 0.096689001
  vertex 0.0333841 -0.028651698 0.0966786
  vertex 0.0244647 -0.0185901 0.106837
  endloop
 endfacet

 facet normal 0 0 0
  outer loop
  vertex 0.0215296 -0.038274299 0.096689001
  vertex 0.0244647 -0.0185901 0.106837
  vertex 0.015969301 -0.026111899 0.1068
  endloop
 endfacet

 facet normal 0 0 0
  outer loop
  vertex 0.080359802 0.0390829 0.09251371
  vertex 0.066782102 0.054020699 0.094386697
  vertex 0.077637002 0.035709102 0.095991105
  endloop
 endfacet

 facet normal 0 0 0
  outer loop
  vertex -0.00048874202 0.0308253 0.1068
  vertex 0.022050399 0.022362499 0.10681801
  vertex 0.0352562 0.077529199 0.096056998
  endloop
 endfacet

 facet normal 0 0 0
  outer loop
  vertex -0.036426701 -0.039501097 0.089078799
  vertex -0.035310399 -0.040737398 0.0846138
  vertex -0.00260754 -0.043851897 0.096674398
  endloop
 endfacet

 facet normal 0 0 0
  outer loop
  vertex -0.036426701 -0.039501097 0.089078799
  vertex -0.00260754 -0.043851897 0.096674398
  vertex -0.0111965 -0.042298798 0.096977599
  endloop
 endfacet

 facet normal 0 0 0
  outer loop
  vertex -0.036426701 -0.039501097 0.089078799
  vertex -0.019961201 -0.038750697 0.097167201
  vertex -0.015706399 -0.026249697 0.10680101
  endloop
 endfacet

 facet normal 0 0 0
  outer loop
  vertex -0.036426701 -0.039501097 0.089078799
  vertex -0.015706399 -0.026249697 0.10680101
  vertex -0.0238942 -0.0193545 0.106802
  endloop
 endfacet

 facet normal 0 0 0
  outer loop
  vertex -0.0238942 -0.0193545 0.106802
  vertex -0.015706399 -0.026249697 0.10680101
  vertex -0.0052733799 -0.030337797 0.106803
  endloop
 endfacet

 facet normal 0 0 0
  outer loop
  vertex -0.0238942 -0.0193545 0.106802
  vertex -0.0052733799 -0.030337797 0.106803
  vertex 0.0068888897 -0.029908299 0.1068
  endloop
 endfacet

 facet normal 0 0 0
  outer loop
  vertex -0.0238942 -0.0193545 0.106802
  vertex 0.0068888897 -0.029908299 0.1068
  vertex 0.015969301 -0.026111899 0.1068
  endloop
 endfacet

 facet normal 0 0 0
  outer loop
  vertex -0.0238942 -0.0193545 0.106802
  vertex 0.015969301 -0.026111899 0.1068
  vertex 0.0244647 -0.0185901 0.106837
  endloop
 endfacet

 facet normal 0 0 0
  outer loop
  vertex -0.0238942 -0.0193545 0.106802
  vertex 0.0244647 -0.0185901 0.106837
  vertex 0.031086899 -0.0014967599 0.106799
  endloop
 endfacet

 facet normal 0 0 0
  outer loop
  vertex -0.0238942 -0.0193545 0.106802
  vertex 0.031086899 -0.0014967599 0.106799
  vertex 0.022050399 0.022362499 0.10681801
  endloop
 endfacet

 facet normal 0 0 0
  outer loop
  vertex -0.0238942 -0.0193545 0.106802
  vertex 0.022050399 0.022362499 0.10681801
  vertex -0.00048874202 0.0308253 0.1068
  endloop
 endfacet

 facet normal 0 0 0
  outer loop
  vertex -0.0238942 -0.0193545 0.106802
  vertex -0.00048874202 0.0308253 0.1068
  vertex -0.014643299 0.026962599 0.106821
  endloop
 endfacet

 facet normal 0 0 0
  outer loop
  vertex -0.0238942 -0.0193545 0.106802
  vertex -0.014643299 0.026962599 0.106821
  vertex -0.0225321 0.0207093 0.1068
  endloop
 endfacet

 facet normal 0 0 0
  outer loop
  vertex -0.0238942 -0.0193545 0.106802
  vertex -0.0225321 0.0207093 0.1068
  vertex -0.028506698 0.0114344 0.106802
  endloop
 endfacet

 facet normal 0 0 0
  outer loop
  vertex -0.0238942 -0.0193545 0.106802
  vertex -0.028506698 0.0114344 0.106802
  vertex -0.030755199 -0.0037394098 0.10680401
  endloop
 endfacet

 facet normal 0 0 0
  outer loop
  vertex 0.0244647 -0.0185901 0.106837
  vertex 0.0333841 -0.028651698 0.0966786
  vertex 0.077637002 0.035709102 0.095991105
  endloop
 endfacet

 facet normal 0 0 0
  outer loop
  vertex 0.0244647 -0.0185901 0.106837
  vertex 0.077637002 0.035709102 0.095991105
  vertex 0.031086899 -0.0014967599 0.106799
  endloop
 endfacet

 facet normal 0 0 0
  outer loop
  vertex 0.038972195 0.079641901 0.09369161
  vertex 0.0352562 0.077529199 0.096056998
  vertex 0.049937699 0.069711596 0.094903611
  endloop
 endfacet

 facet normal 0 0 0
  outer loop
  vertex -0.028506698 0.0114344 0.106802
  vertex -0.042959999 0.0090409201 0.096820198
  vertex -0.043903802 0.0024142298 0.09664911
  endloop
 endfacet

 facet normal 0 0 0
  outer loop
  vertex -0.028506698 0.0114344 0.106802
  vertex -0.043903802 0.0024142298 0.09664911
  vertex -0.030755199 -0.0037394098 0.10680401
  endloop
 endfacet

 facet normal 0 0 0
  outer loop
  vertex -0.028506698 0.0114344 0.106802
  vertex -0.0225321 0.0207093 0.1068
  vertex -0.036570001 0.024465498 0.096558303
  endloop
 endfacet

 facet normal 0 0 0
  outer loop
  vertex -0.028506698 0.0114344 0.106802
  vertex -0.036570001 0.024465498 0.096558303
  vertex -0.042959999 0.0090409201 0.096820198
  endloop
 endfacet

 facet normal 0 0 0
  outer loop
  vertex -0.035310399 -0.040737398 0.0846138
  vertex -0.036426701 -0.039501097 0.089078799
  vertex -0.039666399 -0.036274001 0.088832401
  endloop
 endfacet

 facet normal 0 0 0
  outer loop
  vertex -0.035310399 -0.040737398 0.0846138
  vertex -0.039666399 -0.036274001 0.088832401
  vertex -0.040711701 -0.035504501 0.084713697
  endloop
 endfacet

 facet normal 0 0 0
  outer loop
  vertex -0.040711701 -0.035504501 0.084713697
  vertex -0.039666399 -0.036274001 0.088832401
  vertex -0.043357499 -0.0066392696 0.09682221
  endloop
 endfacet

 facet normal 0 0 0
  outer loop
  vertex -0.040711701 -0.035504501 0.084713697
  vertex -0.043357499 -0.0066392696 0.09682221
  vertex -0.043903802 0.0024142298 0.09664911
  endloop
 endfacet

 facet normal 0 0 0
  outer loop
  vertex -0.040711701 -0.035504501 0.084713697
  vertex -0.043903802 0.0024142298 0.09664911
  vertex -0.0440346 -0.00161988 0.052073698
  endloop
 endfacet

 facet normal 0 0 0
  outer loop
  vertex 0.054797396 0.069277599 0.08241301
  vertex 0.039655995 0.081087001 0.081627801
  vertex 0.0393553 0.08109659 0.089372203
  endloop
 endfacet

 facet normal 0 0 0
  outer loop
  vertex 0.054797396 0.069277599 0.08241301
  vertex 0.0393553 0.08109659 0.089372203
  vertex 0.058681801 0.065670401 0.08834821
  endloop
 endfacet

 facet normal 0 0 0
  outer loop
  vertex -0.039005097 -0.018734001 0.097568601
  vertex -0.039666399 -0.036274001 0.088832401
  vertex -0.036426701 -0.039501097 0.089078799
  endloop
 endfacet

 facet normal 0 0 0
  outer loop
  vertex -0.039005097 -0.018734001 0.097568601
  vertex -0.036426701 -0.039501097 0.089078799
  vertex -0.0238942 -0.0193545 0.106802
  endloop
 endfacet

 facet normal 0 0 0
  outer loop
  vertex -0.039005097 -0.018734001 0.097568601
  vertex -0.0238942 -0.0193545 0.106802
  vertex -0.030755199 -0.0037394098 0.10680401
  endloop
 endfacet

 facet normal 0 0 0
  outer loop
  vertex -0.039005097 -0.018734001 0.097568601
  vertex -0.030755199 -0.0037394098 0.10680401
  vertex -0.043357499 -0.0066392696 0.09682221
  endloop
 endfacet

 facet normal 0 0 0
  outer loop
  vertex -0.039005097 -0.018734001 0.097568601
  vertex -0.043357499 -0.0066392696 0.09682221
  vertex -0.039666399 -0.036274001 0.088832401
  endloop
 endfacet

 facet normal 0 0 0
  outer loop
  vertex 0.035178598 0.079449296 0.093829408
  vertex 0.0352562 0.077529199 0.096056998
  vertex 0.038972195 0.079641901 0.09369161
  endloop
 endfacet

 facet normal 0 0 0
  outer loop
  vertex 0.035178598 0.079449296 0.093829408
  vertex 0.038972195 0.079641901 0.09369161
  vertex 0.0393553 0.08109659 0.089372203
  endloop
 endfacet

 facet normal 0 0 0
  outer loop
  vertex 0.035178598 0.079449296 0.093829408
  vertex -0.027494499 0.034204502 0.096754797
  vertex 0.0352562 0.077529199 0.096056998
  endloop
 endfacet

 facet normal 0 0 0
  outer loop
  vertex 0.079070695 0.035077397 0.094492108
  vertex 0.080359802 0.0390829 0.09251371
  vertex 0.077637002 0.035709102 0.095991105
  endloop
 endfacet

 facet normal 0 0 0
  outer loop
  vertex 0.079070695 0.035077397 0.094492108
  vertex 0.077637002 0.035709102 0.095991105
  vertex 0.0333841 -0.028651698 0.0966786
  endloop
 endfacet

 facet normal 0 0 0
  outer loop
  vertex -0.042725001 -0.0104429 0.052063599
  vertex -0.037013199 -0.023884999 0.052071001
  vertex -0.040711701 -0.035504501 0.084713697
  endloop
 endfacet

 facet normal 0 0 0
  outer loop
  vertex -0.042725001 -0.0104429 0.052063599
  vertex -0.040711701 -0.035504501 0.084713697
  vertex -0.0440346 -0.00161988 0.052073698
  endloop
 endfacet

 facet normal 0 0 0
  outer loop
  vertex 0.043768302 -0.0034676599 0.052000403
  vertex 0.079327799 0.037021395 0.076647103
  vertex 0.0405875 -0.0172367 0.052040104
  endloop
 endfacet

 facet normal 0 0 0
  outer loop
  vertex 0.043768302 -0.0034676599 0.052000403
  vertex 0.042535 0.012074799 0.052002501
  vertex 0.079327799 0.037021395 0.076647103
  endloop
 endfacet

 facet normal 0 0 0
  outer loop
  vertex 0.0182619 -0.040126897 0.052101102
  vertex 0.0277464 -0.034283001 0.052052002
  vertex 0.0215296 -0.038274299 0.096689001
  endloop
 endfacet

 facet normal 0 0 0
  outer loop
  vertex 0.0215296 -0.038274299 0.096689001
  vertex 0.0083664898 -0.043150101 0.096607797
  vertex 0.0085169803 -0.043262701 0.0521053
  endloop
 endfacet

 facet normal 0 0 0
  outer loop
  vertex 0.0215296 -0.038274299 0.096689001
  vertex 0.0085169803 -0.043262701 0.0521053
  vertex 0.0182619 -0.040126897 0.052101102
  endloop
 endfacet

 facet normal 0 0 0
  outer loop
  vertex 0.074200802 0.0478683 0.079663798
  vertex 0.079327799 0.037021395 0.076647103
  vertex 0.064352296 0.0579626 0.078304298
  endloop
 endfacet

 facet normal 0 0 0
  outer loop
  vertex 0.034635302 -0.027228199 0.052123602
  vertex 0.0277464 -0.034283001 0.052052002
  vertex 0.0405875 -0.0172367 0.052040104
  endloop
 endfacet

 facet normal 0 0 0
  outer loop
  vertex 0.034635302 -0.027228199 0.052123602
  vertex 0.0333841 -0.028651698 0.0966786
  vertex 0.0277464 -0.034283001 0.052052002
  endloop
 endfacet

 facet normal 0 0 0
  outer loop
  vertex -0.043266401 0.0085255103 0.052097298
  vertex -0.042959999 0.0090409201 0.096820198
  vertex -0.0400378 0.018477399 0.052094802
  endloop
 endfacet

 facet normal 0 0 0
  outer loop
  vertex 0.080795094 0.036670301 0.082324103
  vertex 0.080878697 0.037305702 0.090442702
  vertex 0.079070695 0.035077397 0.094492108
  endloop
 endfacet

 facet normal 0 0 0
  outer loop
  vertex 0.080795094 0.036670301 0.082324103
  vertex 0.079070695 0.035077397 0.094492108
  vertex 0.0333841 -0.028651698 0.0966786
  endloop
 endfacet

 facet normal 0 0 0
  outer loop
  vertex 0.080795094 0.036670301 0.082324103
  vertex 0.0333841 -0.028651698 0.0966786
  vertex 0.034635302 -0.027228199 0.052123602
  endloop
 endfacet

 facet normal 0 0 0
  outer loop
  vertex 0.080795094 0.036670301 0.082324103
  vertex 0.034635302 -0.027228199 0.052123602
  vertex 0.0405875 -0.0172367 0.052040104
  endloop
 endfacet

 facet normal 0 0 0
  outer loop
  vertex 0.080795094 0.036670301 0.082324103
  vertex 0.0405875 -0.0172367 0.052040104
  vertex 0.079327799 0.037021395 0.076647103
  endloop
 endfacet

 facet normal 0 0 0
  outer loop
  vertex -0.0299749 -0.0321946 0.052039005
  vertex -0.021465 -0.0383734 0.052004099
  vertex -0.035310399 -0.040737398 0.0846138
  endloop
 endfacet

 facet normal 0 0 0
  outer loop
  vertex -0.0299749 -0.0321946 0.052039005
  vertex -0.035310399 -0.040737398 0.0846138
  vertex -0.040711701 -0.035504501 0.084713697
  endloop
 endfacet

 facet normal 0 0 0
  outer loop
  vertex -0.0299749 -0.0321946 0.052039005
  vertex -0.040711701 -0.035504501 0.084713697
  vertex -0.037013199 -0.023884999 0.052071001
  endloop
 endfacet

 facet normal 0 0 0
  outer loop
  vertex 0.080873601 0.0391079 0.079978898
  vertex 0.079327799 0.037021395 0.076647103
  vertex 0.074200802 0.0478683 0.079663798
  endloop
 endfacet

 facet normal 0 0 0
  outer loop
  vertex 0.080873601 0.0391079 0.079978898
  vertex 0.0813061 0.039723501 0.085821308
  vertex 0.080795094 0.036670301 0.082324103
  endloop
 endfacet

 facet normal 0 0 0
  outer loop
  vertex 0.080873601 0.0391079 0.079978898
  vertex 0.080795094 0.036670301 0.082324103
  vertex 0.079327799 0.037021395 0.076647103
  endloop
 endfacet

 facet normal 0 0 0
  outer loop
  vertex -0.00260754 -0.043851897 0.096674398
  vertex -0.0052733799 -0.030337797 0.106803
  vertex -0.0111965 -0.042298798 0.096977599
  endloop
 endfacet

 facet normal 0 0 0
  outer loop
  vertex -0.0010181299 -0.044029601 0.052071001
  vertex 0.0085169803 -0.043262701 0.0521053
  vertex 0.0083664898 -0.043150101 0.096607797
  endloop
 endfacet

 facet normal 0 0 0
  outer loop
  vertex -0.0010181299 -0.044029601 0.052071001
  vertex 0.0083664898 -0.043150101 0.096607797
  vertex -0.00260754 -0.043851897 0.096674398
  endloop
 endfacet

 facet normal 0 0 0
  outer loop
  vertex -0.0010181299 -0.044029601 0.052071001
  vertex -0.00260754 -0.043851897 0.096674398
  vertex -0.035310399 -0.040737398 0.0846138
  endloop
 endfacet

 facet normal 0 0 0
  outer loop
  vertex -0.0010181299 -0.044029601 0.052071001
  vertex -0.035310399 -0.040737398 0.0846138
  vertex -0.0117819 -0.042408597 0.052054703
  endloop
 endfacet

 facet normal 0 0 0
  outer loop
  vertex 0.049674802 0.069796503 0.0766427
  vertex 0.064352296 0.0579626 0.078304298
  vertex 0.031150701 0.031214699 0.051990502
  endloop
 endfacet

 facet normal 0 0 0
  outer loop
  vertex 0.049674802 0.069796503 0.0766427
  vertex 0.0381517 0.080492899 0.078362204
  vertex 0.054797396 0.069277599 0.08241301
  endloop
 endfacet

 facet normal 0 0 0
  outer loop
  vertex 0.049674802 0.069796503 0.0766427
  vertex 0.054797396 0.069277599 0.08241301
  vertex 0.064352296 0.0579626 0.078304298
  endloop
 endfacet

 facet normal 0 0 0
  outer loop
  vertex -0.0052733799 -0.030337797 0.106803
  vertex -0.00260754 -0.043851897 0.096674398
  vertex 0.0083664898 -0.043150101 0.096607797
  endloop
 endfacet

 facet normal 0 0 0
  outer loop
  vertex -0.0052733799 -0.030337797 0.106803
  vertex 0.0083664898 -0.043150101 0.096607797
  vertex 0.0068888897 -0.029908299 0.1068
  endloop
 endfacet

 facet normal 0 0 0
  outer loop
  vertex 0.0083664898 -0.043150101 0.096607797
  vertex 0.0215296 -0.038274299 0.096689001
  vertex 0.015969301 -0.026111899 0.1068
  endloop
 endfacet

 facet normal 0 0 0
  outer loop
  vertex 0.0083664898 -0.043150101 0.096607797
  vertex 0.015969301 -0.026111899 0.1068
  vertex 0.0068888897 -0.029908299 0.1068
  endloop
 endfacet

 facet normal 0 0 0
  outer loop
  vertex 0.073059499 0.0503521 0.088556103
  vertex 0.066782102 0.054020699 0.094386697
  vertex 0.080359802 0.0390829 0.09251371
  endloop
 endfacet

 facet normal 0 0 0
  outer loop
  vertex 0.073059499 0.0503521 0.088556103
  vertex 0.080359802 0.0390829 0.09251371
  vertex 0.0813061 0.039723501 0.085821308
  endloop
 endfacet

 facet normal 0 0 0
  outer loop
  vertex -0.034472797 0.027531801 0.052108202
  vertex -0.0400378 0.018477399 0.052094802
  vertex -0.036570001 0.024465498 0.096558303
  endloop
 endfacet

 facet normal 0 0 0
  outer loop
  vertex -0.036570001 0.024465498 0.096558303
  vertex -0.027494499 0.034204502 0.096754797
  vertex -0.0287566 0.033325899 0.0521097
  endloop
 endfacet

 facet normal 0 0 0
  outer loop
  vertex -0.036570001 0.024465498 0.096558303
  vertex -0.0287566 0.033325899 0.0521097
  vertex -0.034472797 0.027531801 0.052108202
  endloop
 endfacet

 facet normal 0 0 0
  outer loop
  vertex 0.039655995 0.081087001 0.081627801
  vertex 0.054797396 0.069277599 0.08241301
  vertex 0.0381517 0.080492899 0.078362204
  endloop
 endfacet

 facet normal 0 0 0
  outer loop
  vertex 0.035347298 0.079851098 0.079386905
  vertex 0.035178598 0.079449296 0.093829408
  vertex 0.0393553 0.08109659 0.089372203
  endloop
 endfacet

 facet normal 0 0 0
  outer loop
  vertex 0.035347298 0.079851098 0.079386905
  vertex 0.0393553 0.08109659 0.089372203
  vertex 0.039655995 0.081087001 0.081627801
  endloop
 endfacet

 facet normal 0 0 0
  outer loop
  vertex 0.035347298 0.079851098 0.079386905
  vertex 0.039655995 0.081087001 0.081627801
  vertex 0.0381517 0.080492899 0.078362204
  endloop
 endfacet

 facet normal 0 0 0
  outer loop
  vertex -0.014643299 0.026962599 0.106821
  vertex -0.00048874202 0.0308253 0.1068
  vertex 0.0352562 0.077529199 0.096056998
  endloop
 endfacet

 facet normal 0 0 0
  outer loop
  vertex 0.0352562 0.077529199 0.096056998
  vertex -0.027494499 0.034204502 0.096754797
  vertex -0.0225321 0.0207093 0.1068
  endloop
 endfacet

 facet normal 0 0 0
  outer loop
  vertex 0.0352562 0.077529199 0.096056998
  vertex -0.0225321 0.0207093 0.1068
  vertex -0.014643299 0.026962599 0.106821
  endloop
 endfacet

 facet normal 0 0 0
  outer loop
  vertex -0.0232013 0.037466496 0.052085999
  vertex -0.0287566 0.033325899 0.0521097
  vertex -0.027494499 0.034204502 0.096754797
  endloop
 endfacet

 facet normal 0 0 0
  outer loop
  vertex -0.0232013 0.037466496 0.052085999
  vertex -0.027494499 0.034204502 0.096754797
  vertex 0.035178598 0.079449296 0.093829408
  endloop
 endfacet

 facet normal 0 0 0
  outer loop
  vertex -0.0232013 0.037466496 0.052085999
  vertex 0.035178598 0.079449296 0.093829408
  vertex 0.035347298 0.079851098 0.079386905
  endloop
 endfacet

 facet normal 0 0 0
  outer loop
  vertex -0.019961201 -0.038750697 0.097167201
  vertex -0.036426701 -0.039501097 0.089078799
  vertex -0.0111965 -0.042298798 0.096977599
  endloop
 endfacet

 facet normal 0 0 0
  outer loop
  vertex -0.019961201 -0.038750697 0.097167201
  vertex -0.0111965 -0.042298798 0.096977599
  vertex -0.0052733799 -0.030337797 0.106803
  endloop
 endfacet

 facet normal 0 0 0
  outer loop
  vertex -0.019961201 -0.038750697 0.097167201
  vertex -0.0052733799 -0.030337797 0.106803
  vertex -0.015706399 -0.026249697 0.10680101
  endloop
 endfacet

 facet normal 0 0 0
  outer loop
  vertex 0.055082701 0.067464903 0.092769697
  vertex 0.058681801 0.065670401 0.08834821
  vertex 0.0393553 0.08109659 0.089372203
  endloop
 endfacet

 facet normal 0 0 0
  outer loop
  vertex 0.055082701 0.067464903 0.092769697
  vertex 0.0393553 0.08109659 0.089372203
  vertex 0.038972195 0.079641901 0.09369161
  endloop
 endfacet

 facet normal 0 0 0
  outer loop
  vertex 0.055082701 0.067464903 0.092769697
  vertex 0.038972195 0.079641901 0.09369161
  vertex 0.049937699 0.069711596 0.094903611
  endloop
 endfacet

 facet normal 0 0 0
  outer loop
  vertex 0.055082701 0.067464903 0.092769697
  vertex 0.049937699 0.069711596 0.094903611
  vertex 0.066782102 0.054020699 0.094386697
  endloop
 endfacet

 facet normal 0 0 0
  outer loop
  vertex 0.066782102 0.054020699 0.094386697
  vertex 0.073059499 0.0503521 0.088556103
  vertex 0.058681801 0.065670401 0.08834821
  endloop
 endfacet

 facet normal 0 0 0
  outer loop
  vertex 0.066782102 0.054020699 0.094386697
  vertex 0.058681801 0.065670401 0.08834821
  vertex 0.055082701 0.067464903 0.092769697
  endloop
 endfacet

 facet normal 0 0 0
  outer loop
  vertex 0.065140598 0.059106097 0.081588499
  vertex 0.054797396 0.069277599 0.08241301
  vertex 0.058681801 0.065670401 0.08834821
  endloop
 endfacet

 facet normal 0 0 0
  outer loop
  vertex 0.065140598 0.059106097 0.081588499
  vertex 0.058681801 0.065670401 0.08834821
  vertex 0.073059499 0.0503521 0.088556103
  endloop
 endfacet

 facet normal 0 0 0
  outer loop
  vertex 0.065140598 0.059106097 0.081588499
  vertex 0.073059499 0.0503521 0.088556103
  vertex 0.0813061 0.039723501 0.085821308
  endloop
 endfacet

 facet normal 0 0 0
  outer loop
  vertex 0.065140598 0.059106097 0.081588499
  vertex 0.0813061 0.039723501 0.085821308
  vertex 0.080873601 0.0391079 0.079978898
  endloop
 endfacet

 facet normal 0 0 0
  outer loop
  vertex 0.065140598 0.059106097 0.081588499
  vertex 0.080873601 0.0391079 0.079978898
  vertex 0.074200802 0.0478683 0.079663798
  endloop
 endfacet

 facet normal 0 0 0
  outer loop
  vertex 0.065140598 0.059106097 0.081588499
  vertex 0.074200802 0.0478683 0.079663798
  vertex 0.064352296 0.0579626 0.078304298
  endloop
 endfacet

 facet normal 0 0 0
  outer loop
  vertex 0.065140598 0.059106097 0.081588499
  vertex 0.064352296 0.0579626 0.078304298
  vertex 0.054797396 0.069277599 0.08241301
  endloop
 endfacet

 facet normal 0 0 0
  outer loop
  vertex -0.043903802 0.0024142298 0.09664911
  vertex -0.043357499 -0.0066392696 0.09682221
  vertex -0.030755199 -0.0037394098 0.10680401
  endloop
 endfacet

 facet normal 0 0 0
  outer loop
  vertex -0.043903802 0.0024142298 0.09664911
  vertex -0.042959999 0.0090409201 0.096820198
  vertex -0.043266401 0.0085255103 0.052097298
  endloop
 endfacet

 facet normal 0 0 0
  outer loop
  vertex -0.043903802 0.0024142298 0.09664911
  vertex -0.043266401 0.0085255103 0.052097298
  vertex -0.0440346 -0.00161988 0.052073698
  endloop
 endfacet

 facet normal 0 0 0
  outer loop
  vertex 0.036947399 0.079380594 0.076667309
  vertex 0.0137097 0.042013399 0.052002601
  vertex -0.00294573 0.043820299 0.052000199
  endloop
 endfacet

 facet normal 0 0 0
  outer loop
  vertex 0.036947399 0.079380594 0.076667309
  vertex -0.00294573 0.043820299 0.052000199
  vertex -0.0132719 0.041874599 0.0520049
  endloop
 endfacet

 facet normal 0 0 0
  outer loop
  vertex 0.036947399 0.079380594 0.076667309
  vertex -0.0132719 0.041874599 0.0520049
  vertex -0.0232013 0.037466496 0.052085999
  endloop
 endfacet

 facet normal 0 0 0
  outer loop
  vertex 0.036947399 0.079380594 0.076667309
  vertex -0.0232013 0.037466496 0.052085999
  vertex 0.035347298 0.079851098 0.079386905
  endloop
 endfacet

 facet normal 0 0 0
  outer loop
  vertex 0.036947399 0.079380594 0.076667309
  vertex 0.035347298 0.079851098 0.079386905
  vertex 0.0381517 0.080492899 0.078362204
  endloop
 endfacet

 facet normal 0 0 0
  outer loop
  vertex 0.036947399 0.079380594 0.076667309
  vertex 0.0381517 0.080492899 0.078362204
  vertex 0.049674802 0.069796503 0.0766427
  endloop
 endfacet

 facet normal 0 0 0
  outer loop
  vertex 0.036947399 0.079380594 0.076667309
  vertex 0.049674802 0.069796503 0.0766427
  vertex 0.031150701 0.031214699 0.051990502
  endloop
 endfacet

 facet normal 0 0 0
  outer loop
  vertex 0.036947399 0.079380594 0.076667309
  vertex 0.031150701 0.031214699 0.051990502
  vertex 0.0137097 0.042013399 0.052002601
  endloop
 endfacet

 facet normal 0 0 0
  outer loop
  vertex 0.080878697 0.037305702 0.090442702
  vertex 0.080359802 0.0390829 0.09251371
  vertex 0.079070695 0.035077397 0.094492108
  endloop
 endfacet

 facet normal 0 0 0
  outer loop
  vertex 0.080878697 0.037305702 0.090442702
  vertex 0.080795094 0.036670301 0.082324103
  vertex 0.0813061 0.039723501 0.085821308
  endloop
 endfacet

 facet normal 0 0 0
  outer loop
  vertex 0.080878697 0.037305702 0.090442702
  vertex 0.0813061 0.039723501 0.085821308
  vertex 0.080359802 0.0390829 0.09251371
  endloop
 endfacet

 facet normal 0 0 0
  outer loop
  vertex 0.062301502 0.055876501 0.095823802
  vertex 0.066782102 0.054020699 0.094386697
  vertex 0.049937699 0.069711596 0.094903611
  endloop
 endfacet

 facet normal 0 0 0
  outer loop
  vertex 0.062301502 0.055876501 0.095823802
  vertex 0.049937699 0.069711596 0.094903611
  vertex 0.0352562 0.077529199 0.096056998
  endloop
 endfacet

 facet normal 0 0 0
  outer loop
  vertex 0.0352562 0.077529199 0.096056998
  vertex 0.022050399 0.022362499 0.10681801
  vertex 0.077637002 0.035709102 0.095991105
  endloop
 endfacet

 facet normal 0 0 0
  outer loop
  vertex 0.0352562 0.077529199 0.096056998
  vertex 0.077637002 0.035709102 0.095991105
  vertex 0.062301502 0.055876501 0.095823802
  endloop
 endfacet

 facet normal 0 0 0
  outer loop
  vertex 0.062301502 0.055876501 0.095823802
  vertex 0.077637002 0.035709102 0.095991105
  vertex 0.066782102 0.054020699 0.094386697
  endloop
 endfacet

endsolidAssimpScene
